<?xml version="1.0" encoding="utf-8"?>
<!-- Generator: Adobe Illustrator 26.0.3, SVG Export Plug-In . SVG Version: 6.00 Build 0)  -->
<svg version="1.1" xmlns="http://www.w3.org/2000/svg" xmlns:xlink="http://www.w3.org/1999/xlink" x="0px" y="0px"
	 viewBox="0 0 500 500" style="enable-background:new 0 0 500 500;" xml:space="preserve">
<style type="text/css">
	.st0{fill:#EBEBEB;}
	.st1{fill:#E6E6E6;}
	.st2{fill:#F0F0F0;}
	.st3{fill:#FAFAFA;}
	.st4{fill:#FFFFFF;}
	.st5{opacity:0.5;fill:#E0E0E0;}
	.st6{fill:#E0E0E0;}
	.st7{fill:#F5F5F5;}
	.st8{display:none;}
	.st9{display:inline;}
	.st10{fill:#407BFF;}
	.st11{opacity:0.9;fill:#FFFFFF;}
	.st12{opacity:0.3;fill:#FFFFFF;}
	.st13{opacity:0.5;}
	.st14{opacity:0.2;}
	.st15{fill:#FFB573;}
	.st16{fill:#263238;}
	.st17{opacity:0.3;}
	.st18{fill:#ED893E;}
</style>
<g id="Background_Complete">
	<g>
		<rect y="382.4" class="st0" width="500" height="0.25"/>
		<rect x="416.78" y="398.49" class="st0" width="33.12" height="0.25"/>
		<rect x="322.53" y="401.21" class="st0" width="8.69" height="0.25"/>
		<rect x="396.59" y="389.21" class="st0" width="19.19" height="0.25"/>
		<rect x="52.46" y="390.89" class="st0" width="43.19" height="0.25"/>
		<rect x="104.56" y="390.89" class="st0" width="6.33" height="0.25"/>
		<rect x="131.47" y="395.11" class="st0" width="93.68" height="0.25"/>
		<path class="st0" d="M237.01,337.8H43.92c-3.15,0-5.71-2.56-5.71-5.71V60.66c0-3.15,2.56-5.71,5.71-5.71h193.1
			c3.15,0,5.71,2.56,5.71,5.71v271.43C242.72,335.24,240.16,337.8,237.01,337.8z M43.92,55.2c-3.01,0-5.46,2.45-5.46,5.46v271.43
			c0,3.01,2.45,5.46,5.46,5.46h193.1c3.01,0,5.46-2.45,5.46-5.46V60.66c0-3.01-2.45-5.46-5.46-5.46H43.92z"/>
		<path class="st0" d="M453.31,337.8h-193.1c-3.15,0-5.71-2.56-5.71-5.71V60.66c0-3.15,2.56-5.71,5.71-5.71h193.1
			c3.15,0,5.71,2.56,5.71,5.71v271.43C459.02,335.24,456.46,337.8,453.31,337.8z M260.21,55.2c-3.01,0-5.46,2.45-5.46,5.46v271.43
			c0,3.01,2.45,5.46,5.46,5.46h193.1c3.01,0,5.46-2.45,5.46-5.46V60.66c0-3.01-2.45-5.46-5.46-5.46H260.21z"/>
	</g>
	<g>
		<g>
			<rect x="228.15" y="79.78" class="st1" width="194.79" height="171.1"/>
			<rect x="230.53" y="79.78" class="st2" width="197.5" height="171.1"/>
			<rect x="228.15" y="250.87" class="st1" width="194.79" height="4.72"/>
			<rect x="238.99" y="250.87" class="st2" width="197.5" height="4.72"/>
			
				<rect x="250.84" y="73.69" transform="matrix(-1.836970e-16 1 -1 -1.836970e-16 494.6011 -163.9496)" class="st3" width="156.88" height="183.27"/>
			<polygon class="st4" points="262.17,243.76 282.39,86.89 317.37,86.89 297.15,243.76 			"/>
			<polygon class="st4" points="304.66,243.76 324.88,86.89 338.52,86.89 318.3,243.76 			"/>
			
				<rect x="342.02" y="164.87" transform="matrix(-1.836970e-16 1 -1 -1.836970e-16 585.787 -255.1355)" class="st1" width="156.88" height="0.9"/>
			<polygon class="st5" points="429.71,101.84 234.91,101.84 234.26,89.65 429.05,89.65 			"/>
			<polygon class="st5" points="429.71,121.87 234.91,121.87 234.26,109.68 429.05,109.68 			"/>
			<polygon class="st5" points="429.71,141.9 234.91,141.9 234.26,129.72 429.05,129.72 			"/>
			<polygon class="st5" points="429.71,161.94 234.91,161.94 234.26,149.75 429.05,149.75 			"/>
			<polygon class="st5" points="429.71,181.97 234.91,181.97 234.26,169.78 429.05,169.78 			"/>
			<polygon class="st5" points="429.71,202 234.91,202 234.26,189.81 429.05,189.81 			"/>
		</g>
		<g>
			<g>
				<g>
					<rect x="58.65" y="115.72" class="st6" width="60.85" height="120.31"/>
					<rect x="61.06" y="115.72" class="st7" width="62.05" height="120.31"/>
					
						<rect x="38.89" y="150.04" transform="matrix(6.123234e-17 -1 1 6.123234e-17 -83.7853 267.9583)" class="st4" width="106.39" height="51.65"/>
				</g>
			</g>
			<g>
				<g>
					<rect x="139.89" y="97.36" class="st6" width="60.85" height="120.31"/>
					<rect x="142.3" y="97.36" class="st7" width="62.05" height="120.31"/>
					
						<rect x="120.13" y="131.68" transform="matrix(6.123234e-17 -1 1 6.123234e-17 15.8156 330.8375)" class="st4" width="106.39" height="51.66"/>
				</g>
			</g>
		</g>
		<g>
			<g>
				<rect x="164.32" y="271.52" class="st1" width="25.61" height="110.88"/>
				<polygon class="st2" points="185.07,382.4 189.93,382.4 189.93,371.11 179.96,371.11 				"/>
				<rect x="68.59" y="271.52" class="st1" width="25.61" height="110.88"/>
				<rect x="89.95" y="271.52" class="st2" width="99.98" height="103.95"/>
				
					<rect x="122.41" y="297.6" transform="matrix(6.123234e-17 -1 1 6.123234e-17 -156.0296 483.7617)" class="st1" width="82.92" height="44.58"/>
				
					<rect x="74.56" y="297.6" transform="matrix(6.123234e-17 -1 1 6.123234e-17 -203.8768 435.9146)" class="st1" width="82.92" height="44.58"/>
				<path class="st2" d="M120.43,281.6h-8.82c-3.83,0-7.49-1.29-10.13-3.55l0,0h29.08l0,0C127.92,280.31,124.26,281.6,120.43,281.6z
					"/>
				<path class="st2" d="M168.73,281.6h-8.82c-3.83,0-7.49-1.29-10.13-3.55l0,0h29.08l0,0C176.22,280.31,172.56,281.6,168.73,281.6z
					"/>
				<polygon class="st2" points="94.82,382.4 89.95,382.4 89.95,371.11 99.92,371.11 				"/>
			</g>
			<path class="st1" d="M113.42,260.94c0,0,0.76,10.58,29.91,10.58s29.91-10.58,29.91-10.58H113.42z"/>
		</g>
		<g>
			
				<rect x="228.33" y="290.05" transform="matrix(-1 -1.224647e-16 1.224647e-16 -1 675.4741 598.4181)" class="st0" width="218.82" height="18.32"/>
			
				<rect x="228.33" y="290.05" transform="matrix(-1 -1.224647e-16 1.224647e-16 -1 518.7673 598.4181)" class="st6" width="62.11" height="18.32"/>
			
				<rect x="434.05" y="308.37" transform="matrix(-1 -1.224647e-16 1.224647e-16 -1 881.1955 690.7697)" class="st0" width="13.1" height="74.03"/>
			<polygon class="st6" points="434.05,313.5 447.15,310.94 447.15,308.37 434.05,308.37 			"/>
			
				<rect x="228.33" y="308.37" transform="matrix(-1 -1.224647e-16 1.224647e-16 -1 469.7527 690.7697)" class="st6" width="13.1" height="74.03"/>
			
				<rect x="277.34" y="308.37" transform="matrix(-1 -1.224647e-16 1.224647e-16 -1 567.782 690.7697)" class="st0" width="13.1" height="74.03"/>
			<polygon class="st6" points="277.34,313.5 290.44,310.94 290.44,308.37 277.34,308.37 			"/>
			
				<rect x="393.04" y="308.37" transform="matrix(-1 -1.224647e-16 1.224647e-16 -1 799.181 690.7697)" class="st6" width="13.1" height="74.03"/>
		</g>
	</g>
</g>
<g id="Background_Simple" class="st8">
	<g class="st9">
		<path class="st10" d="M407.54,95.87c-2.58-2.77-5.33-5.4-8.25-7.87c-25.11-21.29-65.1-33.42-99.01-22.87
			c-20.2,6.28-33.49,23.76-50.71,35.41c-21.66,14.65-50.03,19.65-75.52,25.18c-34.43,7.46-66.32,17.2-86.5,45.45
			c-16.77,23.49-21.74,54.38-6.94,78.96c14.08,23.38,36.31,43.35,60.37,58.19c20.7,12.77,42.25,16.77,64.81,3.38
			c14.74-8.75,25.72-21.76,36.99-34.1c12.74-13.95,29.06-31.28,49.2-35.54c19.22-4.06,39.86,3.25,59.28,2.1
			c32.09-1.91,61.28-23.57,73.44-50.98C439.14,160.61,431.7,121.82,407.54,95.87z"/>
		<path class="st11" d="M407.54,95.87c-2.58-2.77-5.33-5.4-8.25-7.87c-25.11-21.29-65.1-33.42-99.01-22.87
			c-20.2,6.28-33.49,23.76-50.71,35.41c-21.66,14.65-50.03,19.65-75.52,25.18c-34.43,7.46-66.32,17.2-86.5,45.45
			c-16.77,23.49-21.74,54.38-6.94,78.96c14.08,23.38,36.31,43.35,60.37,58.19c20.7,12.77,42.25,16.77,64.81,3.38
			c14.74-8.75,25.72-21.76,36.99-34.1c12.74-13.95,29.06-31.28,49.2-35.54c19.22-4.06,39.86,3.25,59.28,2.1
			c32.09-1.91,61.28-23.57,73.44-50.98C439.14,160.61,431.7,121.82,407.54,95.87z"/>
	</g>
</g>
<g id="Shadow_1_">
	<ellipse id="_x3C_Path_x3E__274_" class="st7" cx="250" cy="416.24" rx="193.89" ry="11.32"/>
</g>
<g id="Smartphone">
</g>
<g id="Character_1_">
</g>
<g id="Megaphone">
	<g>
		<g>
			<g>
				<g>
					<path class="st10" d="M221.28,94.62H66.51c-10.49,0-18.5,8.59-17.8,19.08L70.9,443.76c0.71,10.49,9.87,19.08,20.36,19.08
						h154.77c10.49,0,18.5-8.59,17.8-19.08L241.64,113.7C240.94,103.21,231.77,94.62,221.28,94.62z"/>
					<path class="st12" d="M221.28,94.62H66.51c-10.49,0-18.5,8.59-17.8,19.08L70.9,443.76c0.71,10.49,9.87,19.08,20.36,19.08
						h154.77c10.49,0,18.5-8.59,17.8-19.08L241.64,113.7C240.94,103.21,231.77,94.62,221.28,94.62z"/>
				</g>
				
					<rect x="48.68" y="165.33" transform="matrix(0.9977 -0.0671 0.0671 0.9977 -12.022 3.715)" class="st10" width="1.3" height="31.2"/>
				
					<rect x="51.3" y="212.88" transform="matrix(0.9977 -0.0671 0.0671 0.9977 -14.6315 3.9795)" class="st10" width="1.3" height="13.99"/>
				<path class="st10" d="M82.13,447.07c0.4,5.99-7.99,7.78-10.07,2.16c-0.64-1.73-1.04-3.56-1.17-5.46L48.71,113.7
					c-0.13-1.92,0.03-3.78,0.45-5.54c1.38-5.81,9.85-5.11,10.25,0.84L82.13,447.07z"/>
				<path class="st4" d="M246.03,456.59H102.24c-7.18,0-13.65-6.07-14.13-13.25L65.93,113.29c-0.22-3.34,0.86-6.47,3.04-8.81
					c2.18-2.33,5.2-3.61,8.52-3.61h143.79c7.18,0,13.65,6.07,14.13,13.25l22.19,330.06c0.22,3.34-0.86,6.47-3.04,8.81
					C252.38,455.31,249.35,456.59,246.03,456.59z M77.49,102.26c-2.93,0-5.6,1.12-7.51,3.17c-1.92,2.06-2.87,4.81-2.67,7.77
					L89.5,443.25c0.44,6.48,6.27,11.96,12.74,11.96h143.79c2.93,0,5.6-1.13,7.51-3.17c1.92-2.06,2.87-4.81,2.67-7.76l-22.19-330.06
					c-0.44-6.48-6.27-11.96-12.74-11.96H77.49z"/>
			</g>
			<g>
				<g class="st13">
					
						<ellipse transform="matrix(0.6871 -0.7265 0.7265 0.6871 -98.8078 183.1797)" class="st10" cx="163.29" cy="206.32" rx="57.78" ry="64.6"/>
					
						<ellipse transform="matrix(0.6871 -0.7265 0.7265 0.6871 -98.8079 183.1805)" class="st4" cx="163.29" cy="206.32" rx="46.23" ry="51.68"/>
					
						<ellipse transform="matrix(0.6872 -0.7265 0.7265 0.6872 -98.8075 183.1755)" class="st10" cx="163.29" cy="206.32" rx="34.67" ry="38.76"/>
					
						<ellipse transform="matrix(0.6871 -0.7265 0.7265 0.6871 -98.808 183.1813)" class="st4" cx="163.29" cy="206.32" rx="23.11" ry="25.84"/>
					
						<ellipse transform="matrix(0.6872 -0.7265 0.7265 0.6872 -98.807 183.1698)" class="st10" cx="163.29" cy="206.32" rx="11.56" ry="12.92"/>
				</g>
				<path class="st4" d="M175.06,289.46c-0.23,0-0.45,0.02-0.68,0.03c-3.57-6.81-10.74-11.54-18.71-11.54
					c-2.06,0-4.03,0.32-5.85,0.9c-3.73-6.77-10.97-11.43-18.99-11.43c-10.55,0-18.67,8.09-18.88,18.4
					c-8.17,0.57-14.19,7.39-13.63,15.74c0.59,8.72,8.14,15.79,16.86,15.79h61.77c7.7,0,13.53-6.25,13-13.95
					C189.44,295.71,182.77,289.46,175.06,289.46z"/>
				<path class="st4" d="M214.42,138.51c-0.18,0-0.35,0.02-0.53,0.03c-2.78-5.31-8.38-9-14.59-9c-1.61,0-3.14,0.25-4.56,0.71
					c-2.91-5.27-8.55-8.91-14.8-8.91c-8.23,0-14.55,6.3-14.72,14.35c-6.37,0.44-11.06,5.76-10.62,12.27
					c0.46,6.8,6.35,12.31,13.14,12.31h48.15c6.01,0,10.54-4.87,10.14-10.87C225.62,143.38,220.42,138.51,214.42,138.51z"/>
				<g>
					<path class="st12" d="M233.59,340.52h-88.95c-2.76,0-4.84,2.24-4.65,4.99l3.6,53.06c0.19,2.76,2.57,4.99,5.33,4.99h11.94
						l0.99,14.67l13.67-14.67h62.34c2.76,0,4.84-2.24,4.65-4.99l-3.6-53.06C238.74,342.75,236.35,340.52,233.59,340.52z"/>
					<polygon class="st4" points="232.91,375.39 150.05,375.39 149.6,368.68 232.46,368.68 					"/>
					<polygon class="st4" points="207.64,389.33 151,389.33 150.54,382.62 207.19,382.62 					"/>
					<polygon class="st4" points="231.97,361.46 149.11,361.46 148.65,354.75 231.51,354.75 					"/>
				</g>
			</g>
		</g>
		<g>
			<g>
				<path class="st10" d="M303.19,116.27l3.41,2.46c1.18,0.83,2.37,1.65,3.58,2.45c2.4,1.6,4.81,3.2,7.26,4.65
					c2.45,1.43,4.9,2.83,7.34,4.05c2.41,1.19,4.92,2.25,7.09,2.94c-0.58-0.13-1.17-0.14-1.65-0.07c-0.44,0.05-0.78,0.19-0.95,0.26
					c-0.37,0.19-0.25,0.21-0.06,0.1c0.44-0.24,1.25-0.98,2.01-1.85c1.57-1.78,3.13-4.1,4.62-6.48c1.52-2.39,2.97-4.92,4.35-7.51
					c1.41-2.55,2.78-5.26,4.07-7.8l0.09-0.17c1.46-2.87,4.97-4.02,7.84-2.57c2.54,1.29,3.73,4.17,2.97,6.81
					c-1.78,6.24-3.92,12.07-6.68,18.07c-1.43,2.98-2.98,5.93-5.13,9.01c-1.12,1.54-2.32,3.13-4.26,4.81c-1,0.84-2.16,1.72-3.96,2.46
					c-0.88,0.37-1.97,0.68-3.16,0.84c-1.24,0.14-2.6,0.1-3.92-0.21c-3.75-0.85-6.96-1.99-10.14-3.26c-3.15-1.26-6.11-2.71-9-4.24
					c-2.89-1.53-5.68-3.14-8.42-4.84c-1.37-0.85-2.71-1.73-4.05-2.63c-1.37-0.91-2.62-1.78-4.06-2.84
					c-4.01-2.96-4.86-8.61-1.9-12.62c2.94-3.98,8.52-4.84,12.53-1.97L303.19,116.27z"/>
				<path class="st14" d="M303.19,116.27l3.41,2.46c1.18,0.83,2.37,1.65,3.58,2.45c2.4,1.6,4.81,3.2,7.26,4.65
					c2.45,1.43,4.9,2.83,7.34,4.05c2.41,1.19,4.92,2.25,7.09,2.94c-0.58-0.13-1.17-0.14-1.65-0.07c-0.44,0.05-0.78,0.19-0.95,0.26
					c-0.37,0.19-0.25,0.21-0.06,0.1c0.44-0.24,1.25-0.98,2.01-1.85c1.57-1.78,3.13-4.1,4.62-6.48c1.52-2.39,2.97-4.92,4.35-7.51
					c1.41-2.55,2.78-5.26,4.07-7.8l0.09-0.17c1.46-2.87,4.97-4.02,7.84-2.57c2.54,1.29,3.73,4.17,2.97,6.81
					c-1.78,6.24-3.92,12.07-6.68,18.07c-1.43,2.98-2.98,5.93-5.13,9.01c-1.12,1.54-2.32,3.13-4.26,4.81c-1,0.84-2.16,1.72-3.96,2.46
					c-0.88,0.37-1.97,0.68-3.16,0.84c-1.24,0.14-2.6,0.1-3.92-0.21c-3.75-0.85-6.96-1.99-10.14-3.26c-3.15-1.26-6.11-2.71-9-4.24
					c-2.89-1.53-5.68-3.14-8.42-4.84c-1.37-0.85-2.71-1.73-4.05-2.63c-1.37-0.91-2.62-1.78-4.06-2.84
					c-4.01-2.96-4.86-8.61-1.9-12.62c2.94-3.98,8.52-4.84,12.53-1.97L303.19,116.27z"/>
			</g>
			<path class="st15" d="M347.53,107.03l3.51-5.95l6.75,7.29c0,0-1.33,3.28-4.91,4.61c-0.98,0.36-2.07,0.17-2.95-0.4l-1.29-0.83
				C347.07,110.72,346.57,108.64,347.53,107.03z"/>
			<path class="st15" d="M360.6,97.54l1.49,0.92c2.01,1.24,2.25,4.07,0.49,5.65l-4.79,4.26l-6.75-7.29l5.87-3.55
				C358.05,96.83,359.47,96.84,360.6,97.54z"/>
			<g>
				<polygon class="st15" points="220.65,456.32 230.91,456.62 234.79,432.83 224.52,432.53 				"/>
				<path class="st16" d="M232.54,453.73l-11.47-1.45c-0.42-0.05-0.77,0.2-0.85,0.6l-1.7,9.01c-0.18,0.93,0.59,1.94,1.56,2.04
					c4,0.44,5.94,0.44,10.99,1.08c3.1,0.39,11.19,2.34,15.47,1.81c4.19-0.52,3.64-4.75,1.78-4.91c-8.36-0.72-11.5-4.7-14.1-7.33
					C233.75,454.1,233.15,453.81,232.54,453.73z"/>
				<g>
					<polygon class="st14" points="224.52,432.54 234.79,432.84 232.79,445.1 222.52,444.8 					"/>
				</g>
				<path class="st16" d="M280.68,204.42c0,0-8.97,85.09-14.93,114c-6.52,31.66-27.47,124.26-27.47,124.26l-18.8-1.39
					c0,0,10.3-95.8,18.74-126.81c0-32.2,7.82-122.45,7.82-122.45L280.68,204.42z"/>
				<path class="st17" d="M250.72,233.23c-0.17-6.65-3.78-8.8-7.33-8.72c-1.25,16.01-2.68,35.64-3.74,53.34
					C245.96,267.64,251.19,251.73,250.72,233.23z"/>
				<polygon class="st4" points="218.92,441.48 239.06,442.98 241.37,435.39 218.18,435.15 				"/>
			</g>
			<g>
				<polygon class="st15" points="116.45,376.58 122.93,384.57 142.29,370.61 135.81,362.61 				"/>
				<path class="st16" d="M124.33,384.59l-5.76-10.03c-0.21-0.36-0.62-0.49-0.99-0.31l-8.21,4.07c-0.85,0.42-1.19,1.64-0.69,2.47
					c2.07,3.46,3.23,5.01,5.76,9.42c1.56,2.71,5.66,10.5,7.81,14.25c2.1,3.66,5.8,1.51,5.22-0.27c-2.59-7.98-3.33-14.09-2.8-17.75
					C124.76,385.78,124.64,385.12,124.33,384.59z"/>
				<g>
					<polygon class="st14" points="135.81,362.61 142.29,370.61 132.3,377.81 125.82,369.81 					"/>
				</g>
				<path class="st16" d="M261.92,197.16c0,0-25.28,72.37-36.77,99.56c-12.58,29.77-87.76,82.66-87.76,82.66l-11.87-14.65
					c0,0,51.09-51.2,70.01-75.49c10.51-33.07,32.94-104.03,32.94-104.03L261.92,197.16z"/>
				<polygon class="st4" points="125.04,364.13 137.87,379.96 144.14,376.34 129.11,359.57 				"/>
			</g>
			<path class="st2" d="M280.57,204.96l-52.1-19.76c1.29-4.76,8.11-18.75,14.17-38.21c4.07-13.07,7.95-28.3,9.96-44.12
				c0-0.01,0-0.02,0-0.03c0.23-1.84,1.94-3.12,3.77-2.79c0.98,0.17,2.13,0.39,3.4,0.64c3.29,0.66,7.38,1.59,11.29,2.78
				c6.73,2.05,16.39,5.27,22.03,7.87c3.27,1.52,4.56,2.21,7.02,3.67c1.49,0.9,2.94,1.95,3.72,2.76c0.75,0.78,1.44,1.59,1.44,2.67
				C305.3,127.92,297.84,156.78,280.57,204.96z"/>
			<path class="st15" d="M292.08,110.88c-5.86-3.81-5.57-8.17-3.59-12.37c0.47-1.03,1.05-2.06,1.67-3.06l-5.65-9.54l-4.15-7
				c-0.9,7.68-3.68,21.27-10.17,24.29c0,0,4.85,7.62,14.43,10.63C294.21,116.86,292.08,110.88,292.08,110.88z"/>
			<polygon class="st6" points="284.27,113.73 284.17,111.28 277.7,112.56 			"/>
			<polygon class="st6" points="284.27,113.73 285.47,111.75 289.67,116.84 			"/>
			<path class="st4" d="M271.07,102.08c3.81,3.57,8.22,6.6,13.1,9.21c-2.55,1.6-5.06,5.81-5.99,9.28
				c-2.1-1.46-10.51-15.29-11.69-19.1L271.07,102.08z"/>
			<path class="st4" d="M290.87,109.41c-1.7,1.27-3.47,2.19-5.4,2.34c1.38,2.03,2.55,7.31,2.55,10.38c2.42-1.59,6.17-7.11,6.77-9.62
				L290.87,109.41z"/>
			<path class="st17" d="M291.07,109.23c0,0,5.66,2.73,10.67,5.82c4.21,2.59,6.23,7.69,4.89,12.44
				c-6.19,21.87-14.55,43.11-18.01,54.93c-3.68,12.59-8.78,28.4-8.78,28.4L271,212.9C271,212.9,293.14,128.19,291.07,109.23z"/>
			<g>
				<path class="st17" d="M270.95,101.09c0,0-7.62-0.99-14.25-1.3c-4.81-0.22-9.13,2.97-10.31,7.64
					c-3.37,13.34-5.86,38.85-9.28,48.78c-4.27,12.4-10,36.63-10,36.63l30.19,17.44C257.3,210.28,287.77,116.56,270.95,101.09z"/>
				<path class="st10" d="M270.95,101.09c0,0-7.62-0.99-14.25-1.3c-4.81-0.22-9.13,2.97-10.31,7.64
					c-3.37,13.34-7.97,38.26-11.39,48.19c-4.27,12.4-13.33,33.48-13.33,33.48l38.07,17.86
					C259.75,206.97,287.77,116.56,270.95,101.09z"/>
				<path class="st14" d="M270.95,101.09c0,0-7.62-0.99-14.25-1.3c-4.81-0.22-9.13,2.97-10.31,7.64
					c-3.37,13.34-7.97,38.26-11.39,48.19c-4.27,12.4-13.33,33.48-13.33,33.48l38.07,17.86
					C259.75,206.97,287.77,116.56,270.95,101.09z"/>
			</g>
			<g>
				<path class="st10" d="M291.07,109.23c0,0,5.66,2.73,10.67,5.82c4.21,2.59,6.23,7.69,4.89,12.44
					c-6.19,21.87-11.08,44.79-13.54,56.86c-2.62,12.85-5.32,24.54-5.32,24.54l-14.27,1.92C273.5,210.81,293.14,128.19,291.07,109.23
					z"/>
				<path class="st14" d="M291.07,109.23c0,0,5.66,2.73,10.67,5.82c4.21,2.59,6.23,7.69,4.89,12.44
					c-6.19,21.87-11.08,44.79-13.54,56.86c-2.62,12.85-5.32,24.54-5.32,24.54l-14.27,1.92C273.5,210.81,293.14,128.19,291.07,109.23
					z"/>
			</g>
			<path class="st14" d="M290.16,95.45c-0.62,1-1.2,2.03-1.67,3.06c-2.78-1.67-5.64-6.29-4.96-9.5c0.25-1.21,0.63-2.33,0.99-3.1
				L290.16,95.45z"/>
			<path class="st16" d="M298.17,56.15c6.9,0.89,9.43,10.21,5.61,16.36C297.53,63.44,298.17,56.15,298.17,56.15z"/>
			<path class="st15" d="M276.69,73.33c2.33,9.98,3.18,15.92,9.16,20.39c8.99,6.74,20.69,0.46,21.4-9.91
				c0.64-9.33-3.27-24.08-13.84-26.75C282.98,54.43,274.36,63.36,276.69,73.33z"/>
			<path class="st16" d="M279.75,82.21c6.02,0.17,5.08-9.78,2.45-13.54c8.33,1.33,22.13-6.06,23.53-13.77
				c2.02-11.17-15.03-11.17-20.54-7.62c2.37,0.17,3.59,2.18,3.01,3.22c0,0-8.21-2.49-13.54,0.4c2.31,0.85,4.78,4.2-4.05,5.26
				c-8.41,1.01-5.86,9.47-1.62,9.31c-2.26,3.47-4.98,11.34,0.12,14.69c5.09,3.36,8.56,7.69,7.46,9.49
				C278.35,89.61,282.12,87.47,279.75,82.21z"/>
			<path class="st16" d="M270.2,64.72c-4.02,0.39-6.33,3.52-6.49,7.79C265.63,68.61,270.2,64.72,270.2,64.72z"/>
			<path class="st15" d="M274.28,82.34c1.09,2.22,3.06,3.77,4.93,4.44c2.82,1.02,4.29-1.46,3.56-4.25
				c-0.66-2.51-2.91-6.06-5.77-5.87C274.19,76.84,273.03,79.81,274.28,82.34z"/>
			<path class="st16" d="M292.49,74.09c0.14,0.82,0.69,1.42,1.23,1.35c0.54-0.07,0.86-0.79,0.72-1.61
				c-0.14-0.82-0.69-1.42-1.23-1.35S292.35,73.27,292.49,74.09z"/>
			<path class="st16" d="M301.79,72.84c0.14,0.82,0.69,1.42,1.23,1.35c0.54-0.07,0.86-0.79,0.72-1.61
				c-0.14-0.82-0.69-1.42-1.23-1.35C301.98,71.3,301.65,72.02,301.79,72.84z"/>
			<path class="st18" d="M298.9,73.65c0,0,2.67,4.47,5.12,6.48c-1.23,1.55-3.81,1.26-3.81,1.26L298.9,73.65z"/>
			<path class="st16" d="M297.23,84.04c-3.27,0.05-5.13-1.96-5.21-2.06c-0.09-0.1-0.08-0.25,0.02-0.34c0.1-0.09,0.25-0.08,0.34,0.02
				c0.02,0.02,2.14,2.32,5.75,1.83c0.13-0.02,0.26,0.08,0.27,0.21c0.02,0.13-0.08,0.26-0.21,0.27
				C297.86,84.01,297.54,84.04,297.23,84.04z"/>
			<path class="st16" d="M294.64,86.74c-2.6-1.98-2.82-4.71-2.83-4.84c-0.01-0.13,0.09-0.25,0.23-0.26
				c0.13-0.01,0.25,0.09,0.26,0.23c0,0.03,0.25,3.14,3.4,4.99c0.12,0.07,0.15,0.22,0.09,0.33c-0.07,0.12-0.22,0.15-0.33,0.09
				C295.15,87.11,294.89,86.93,294.64,86.74z"/>
			<path class="st16" d="M289.11,71.49c-0.08,0-0.16-0.02-0.24-0.06c-0.24-0.13-0.33-0.42-0.2-0.66c1.26-2.35,3.51-2.52,3.61-2.52
				c0.25-0.04,0.5,0.19,0.52,0.46c0.02,0.27-0.19,0.5-0.45,0.52c-0.09,0.01-1.82,0.17-2.81,2.01
				C289.44,71.39,289.28,71.48,289.11,71.49z"/>
			<path class="st16" d="M305.25,69.12c-0.16,0-0.31-0.07-0.41-0.21c-1.28-1.81-3.09-1.82-3.11-1.82c-0.27,0-0.49-0.21-0.49-0.48
				c0-0.27,0.21-0.49,0.48-0.49c0,0,0,0,0,0c0.1,0,2.35,0.01,3.91,2.23c0.16,0.22,0.1,0.52-0.12,0.68
				C305.44,69.09,305.35,69.12,305.25,69.12z"/>
			<g>
				<path class="st10" d="M259.47,116.59c-2.57,2.11-5.34,4.45-7.95,6.76c-2.63,2.33-5.27,4.66-7.79,7.06
					c-5.05,4.8-9.97,9.74-14.07,14.87l-1.47,1.93l-0.19,0.24c0-0.01,0.08-0.12,0.1-0.18c0.06-0.15,0.15-0.3,0.19-0.46
					c0.12-0.3,0.15-0.62,0.17-0.82c0-0.43-0.08-0.44-0.07-0.23c0.01,0.22,0.13,0.65,0.33,1.15c0.4,1,1.11,2.25,1.96,3.49
					c0.84,1.25,1.83,2.52,2.88,3.78c2.09,2.54,4.42,5.08,6.88,7.53c2.42,2.45,5.04,4.93,7.53,7.2l0.16,0.14
					c2.38,2.17,2.55,5.86,0.38,8.23c-1.95,2.13-5.12,2.49-7.47,0.97c-6.5-4.2-12.4-8.67-18.15-14.21c-1.41-1.41-2.81-2.89-4.17-4.54
					c-1.36-1.65-2.69-3.43-3.91-5.68c-0.61-1.14-1.19-2.38-1.65-3.92c-0.45-1.54-0.81-3.37-0.6-5.62c0.09-1.11,0.37-2.31,0.8-3.46
					c0.24-0.57,0.48-1.15,0.8-1.68l0.46-0.76l0.21-0.31l1.69-2.51c4.62-6.51,9.64-12.25,14.95-17.63c2.65-2.7,5.32-5.34,8.09-7.87
					c2.8-2.55,5.5-5,8.55-7.49c3.86-3.16,9.54-2.59,12.7,1.27c3.16,3.86,2.59,9.54-1.27,12.7L259.47,116.59z"/>
				<path class="st14" d="M259.47,116.59c-2.57,2.11-5.34,4.45-7.95,6.76c-2.63,2.33-5.27,4.66-7.79,7.06
					c-5.05,4.8-9.97,9.74-14.07,14.87l-1.47,1.93l-0.19,0.24c0-0.01,0.08-0.12,0.1-0.18c0.06-0.15,0.15-0.3,0.19-0.46
					c0.12-0.3,0.15-0.62,0.17-0.82c0-0.43-0.08-0.44-0.07-0.23c0.01,0.22,0.13,0.65,0.33,1.15c0.4,1,1.11,2.25,1.96,3.49
					c0.84,1.25,1.83,2.52,2.88,3.78c2.09,2.54,4.42,5.08,6.88,7.53c2.42,2.45,5.04,4.93,7.53,7.2l0.16,0.14
					c2.38,2.17,2.55,5.86,0.38,8.23c-1.95,2.13-5.12,2.49-7.47,0.97c-6.5-4.2-12.4-8.67-18.15-14.21c-1.41-1.41-2.81-2.89-4.17-4.54
					c-1.36-1.65-2.69-3.43-3.91-5.68c-0.61-1.14-1.19-2.38-1.65-3.92c-0.45-1.54-0.81-3.37-0.6-5.62c0.09-1.11,0.37-2.31,0.8-3.46
					c0.24-0.57,0.48-1.15,0.8-1.68l0.46-0.76l0.21-0.31l1.69-2.51c4.62-6.51,9.64-12.25,14.95-17.63c2.65-2.7,5.32-5.34,8.09-7.87
					c2.8-2.55,5.5-5,8.55-7.49c3.86-3.16,9.54-2.59,12.7,1.27c3.16,3.86,2.59,9.54-1.27,12.7L259.47,116.59z"/>
			</g>
			<path class="st15" d="M250.03,171.04l8.82,5.4l-11.28,6.42c0,0-7.5-5.6-4.29-9.22l3.76-2.53
				C247.95,170.51,249.11,170.48,250.03,171.04z"/>
			<path class="st15" d="M259.33,186.24l-4.85,2.86c-1.42,0.84-3.25,0.34-4.05-1.1l-2.86-5.14l11.28-6.42l1.81,6.48
				C261.02,184.2,260.48,185.56,259.33,186.24z"/>
		</g>
		<g>
			<g>
				<path class="st10" d="M343.73,94.68l11.96-2.34c-3.28,5.79,1.54,11.32,5.87,14.8c2.07,1.66,0.61,4.63-2.56,5.25l-7.78,1.52
					C341.79,115.76,343.73,94.68,343.73,94.68z"/>
				<g>
					<path class="st10" d="M338.99,95.61l27.39-5.37c8.89-1.74,14.74-10.44,13-19.33l0,0c-1.74-8.89-10.44-14.74-19.33-13
						l-27.39,5.37c-8.89,1.74-14.74,10.44-13,19.33l0,0C321.4,91.5,330.1,97.35,338.99,95.61z"/>
					<path class="st12" d="M338.99,95.61l27.39-5.37c8.89-1.74,14.74-10.44,13-19.33l0,0c-1.74-8.89-10.44-14.74-19.33-13
						l-27.39,5.37c-8.89,1.74-14.74,10.44-13,19.33l0,0C321.4,91.5,330.1,97.35,338.99,95.61z"/>
				</g>
				<path class="st10" d="M413.55,101.19l-46.69-0.62c-4.06,0.8-14.33-51.62-10.27-52.42l43-18.2L413.55,101.19z"/>
				<g>
					<path class="st10" d="M402.84,66.31c3.86,19.67,8.65,35.29,10.72,34.89c2.06-0.4,0.61-16.68-3.25-36.35
						s-8.65-35.29-10.72-34.89C397.53,30.36,398.98,46.63,402.84,66.31z"/>
					<path class="st17" d="M402.84,66.31c3.86,19.67,8.65,35.29,10.72,34.89c2.06-0.4,0.61-16.68-3.25-36.35
						s-8.65-35.29-10.72-34.89C397.53,30.36,398.98,46.63,402.84,66.31z"/>
				</g>
				<path class="st10" d="M420.39,63.88c-0.94-4.81-11.65-6.76-13.94-6.31c-2.29,0.45-3.38,4.71-2.44,9.52
					c0.94,4.81,3.56,8.35,5.85,7.9C412.16,74.54,421.33,68.69,420.39,63.88z"/>
			</g>
			
				<rect x="431.62" y="56.32" transform="matrix(0.9872 -0.1597 0.1597 0.9872 -3.1714 74.5626)" class="st10" width="61.56" height="1.39"/>
			
				<rect x="422.71" y="35.62" transform="matrix(0.761 -0.6488 0.6488 0.761 81.384 293.5441)" class="st10" width="32.74" height="1.39"/>
			
				<rect x="467.07" y="88.27" transform="matrix(0.3328 -0.943 0.943 0.3328 224.2769 503.2257)" class="st10" width="1.39" height="9.7"/>
			
				<rect x="440.95" y="71.91" transform="matrix(0.318 -0.9481 0.9481 0.318 221.4765 476.0897)" class="st10" width="1.39" height="24.39"/>
		</g>
	</g>
</g>
</svg>
