<?xml version="1.0" encoding="utf-8"?>
<!-- Generator: Adobe Illustrator 26.0.1, SVG Export Plug-In . SVG Version: 6.00 Build 0)  -->
<svg version="1.1" id="Layer_1" xmlns="http://www.w3.org/2000/svg" xmlns:xlink="http://www.w3.org/1999/xlink" x="0px" y="0px"
	 viewBox="0 0 500 500" style="enable-background:new 0 0 500 500;" xml:space="preserve">
<style type="text/css">
	.st0{fill:#FFEECF;}
	.st1{fill:#0D9BC1;}
	.st2{fill:#1D7293;}
	.st3{fill:none;stroke:#1D7293;stroke-width:30;stroke-linecap:round;stroke-linejoin:round;stroke-miterlimit:10;}
	.st4{fill:#FFB692;}
	.st5{fill:#D88D87;}
	.st6{fill:#34344F;}
	.st7{fill:#2B2B38;}
	.st8{fill:none;stroke:#1D7293;stroke-width:4;stroke-linecap:round;stroke-linejoin:round;stroke-miterlimit:10;}
	.st9{fill:#27B7D8;}
	.st10{fill:#FFFFFF;}
	.st11{fill:#FF9F2C;}
	.st12{fill:#DEB248;}
	.st13{fill:#BEC564;}
	.st14{fill:#9DD981;}
	.st15{fill:#7DEC9D;}
	.st16{fill:#5CFFB9;}
	.st17{opacity:0.15;fill:#4850DE;enable-background:new    ;}
	.st18{fill:#2C87FF;}
	.st19{fill:#4850DE;}
	.st20{fill:#9D64C5;}
	.st21{fill:#D981C1;}
	.st22{fill:#EC7D82;}
	.st23{fill:#FF6B5C;}
	.st24{fill:none;stroke:#FD118D;stroke-miterlimit:10;}
	.st25{fill:#FFF7E9;}
	.st26{fill:#5D5D7C;}
	.st27{fill:#FF9292;}
	.st28{fill:#FFABAB;}
</style>
<g id="BACKGROUND">
</g>
<g id="OBJECTS">
	<g>
		<path class="st0" d="M478.17,348.48L348.98,121.64c-11.34-19.93-33.29-31.39-56.12-29.34l-225.5,20.28
			c-41.11,3.7-65.59,47.63-47.11,84.53l0,0C73,302.44,170.09,378.68,284.93,404.95l129.3,29.58
			C463.91,445.89,503.38,392.77,478.17,348.48z"/>
		<g>
			<g>
				<g>
					<ellipse class="st1" cx="253.19" cy="214.87" rx="44.25" ry="25.52"/>
					<ellipse class="st2" cx="253.19" cy="215.69" rx="34.6" ry="18.22"/>
				</g>
				<g>
					<path class="st3" d="M210.35,233.44c-19.81,68.74-47.19,83.3-72.81,50.39"/>
					<g>
						<path class="st4" d="M134.83,281.35c11.93-1.64,6.46-18.28,6.46-18.28l4.19-11.5c0,0-10.4-3.28-11.83,7.56
							c0,0-7.39-13.55-13.88-15.19c-3.05-0.77-13.72,5.14-17.35,10.6c-0.77,1.16-0.43,2.7,0.74,3.44c2.82,1.77,8.1,5.86,9.98,12.54
							C115.78,279.81,124.31,290.66,134.83,281.35z"/>
						<path class="st5" d="M133.65,259.12c0,0-8.13,3.77-6.24,14.05c0,0-0.08-9.32,6.57-13.43L133.65,259.12z"/>
						<path class="st5" d="M118.58,268.72c0,0,4.11-6,10.68-9.11C129.25,259.61,121.5,258.46,118.58,268.72z"/>
						<g>
							<path class="st5" d="M120.2,266.5l0.29-0.52c0,0-7.32-9.91-17.19-12.62c-0.13,0.16-0.26,0.31-0.38,0.47
								C106.53,255.25,114.9,259.14,120.2,266.5z"/>
							<path class="st5" d="M125.94,260.65l0.9-0.3c0,0-4.04-11.65-12.75-14.94c-2.08,0.99-4.39,2.38-6.48,3.95
								c2.76,1.16,10.73,5.15,14.93,13.85l0.63-0.38c0,0-4.03-11.73-14.3-14.1l4.35-2.87C113.23,245.86,122.42,249.7,125.94,260.65z
								"/>
						</g>
					</g>
				</g>
				<path class="st3" d="M293.36,233.59c69.25,21.41,98.2,48.97,88.68,60.29"/>
				<g>
					<g>
						<polygon class="st6" points="294.01,333.66 206.05,333.66 209.03,295.74 292.2,295.74 						"/>
						<path class="st7" d="M293.12,314.89l-0.91-19.16h-83.18l-2.06,26.24C234.26,332.43,268.33,324.21,293.12,314.89z"/>
					</g>
					<g>
						<g>
							<path class="st1" d="M251.74,209.29c-5.17-0.1-10.32,0.73-15.21,2.44l-18.07,6.35c-10.06,3.54-15.95,13.94-13.78,24.35
								l2.17,83.67c13.17,1.22,28.51,1.77,45.52,0.81c15.37-0.87,29.18-2.8,41.18-5.13c2.05-31.42,4.11-45.67,6.15-77.09
								c2.43-10.3-3.13-20.82-13.03-24.65l-20.17-7.83C261.81,210.37,256.8,209.39,251.74,209.29L251.74,209.29z"/>
						</g>
					</g>
					<g>
						<path class="st4" d="M272.32,215.73c0-0.5-0.09-0.95-0.27-1.39l-5.53-2.14c-4.72-1.83-9.71-2.81-14.78-2.92l0,0
							c-5.17-0.1-10.32,0.73-15.21,2.44l-7.91,2.78c-0.11,0.38-0.17,0.79-0.17,1.23c0,5.52,9.82,10,21.93,10
							C262.5,225.74,272.32,221.25,272.32,215.73z"/>
						<g>
							<path class="st4" d="M268,211.56c0-40.88-7.98-19.63-17.83-19.63c-9.85,0-17.83-18.61-17.83,19.63
								c0,14.32,7.98,13.08,17.83,13.08C260.02,224.64,268,225.88,268,211.56z"/>
							<path class="st5" d="M232.72,199.62c1.68-21.88,8.86-7.69,17.46-7.69c9.54,0,17.32-19.92,17.8,15.93
								C252.74,212.83,240.93,207.05,232.72,199.62z"/>
						</g>
					</g>
					<path class="st8" d="M228.02,213.75c-0.11,0.41-0.18,0.85-0.18,1.31c0,5.9,10.1,10.68,22.55,10.68
						c12.46,0,22.55-4.78,22.55-10.68c0-0.45-0.07-0.87-0.2-1.27"/>
					<path class="st9" d="M269.85,319.7h-40.86c-3.32,0-6.01-2.69-6.01-6.01v-17.18c0-3.32,2.69-6.01,6.01-6.01h40.86
						c3.32,0,6.01,2.69,6.01,6.01v17.18C275.86,317,273.16,319.7,269.85,319.7z"/>
				</g>
				<g>
					<g>
						<polygon class="st10" points="346.68,124.36 273.44,309.02 329.22,331.15 329.22,331.14 402.46,146.49 						"/>
						
							<rect x="296.76" y="269.56" transform="matrix(0.3687 -0.9295 0.9295 0.3687 -83.1057 476.7533)" class="st11" width="25.38" height="60"/>
						
							<rect x="308.15" y="240.86" transform="matrix(0.3687 -0.9295 0.9295 0.3687 -49.2284 469.2256)" class="st12" width="25.38" height="60"/>
						
							<rect x="319.55" y="212.14" transform="matrix(0.3687 -0.9295 0.9295 0.3687 -15.3436 461.6863)" class="st13" width="25.38" height="60"/>
						
							<rect x="330.94" y="183.42" transform="matrix(0.3687 -0.9295 0.9295 0.3687 18.5411 454.1477)" class="st14" width="25.38" height="60"/>
						
							<rect x="342.33" y="154.72" transform="matrix(0.3687 -0.9295 0.9295 0.3687 52.4149 446.6118)" class="st15" width="25.38" height="60"/>
						
							<rect x="353.72" y="126" transform="matrix(0.3687 -0.9295 0.9295 0.3687 86.2997 439.0732)" class="st16" width="25.38" height="60"/>
						<polygon class="st17" points="378.95,137.16 281.43,312.18 329.22,331.15 329.22,331.15 402.46,146.49 						"/>
					</g>
					<g>
						<polygon class="st10" points="397.59,133.26 289.92,300.2 340.35,332.73 340.35,332.73 448.03,165.79 						"/>
						
							<rect x="314.42" y="267.9" transform="matrix(0.542 -0.8404 0.8404 0.542 -100.5356 411.3455)" class="st18" width="25.38" height="60.01"/>
						
							<rect x="331.16" y="241.94" transform="matrix(0.542 -0.8404 0.8404 0.542 -71.0522 413.5238)" class="st19" width="25.38" height="60.01"/>
						
							<rect x="347.91" y="215.99" transform="matrix(0.542 -0.8404 0.8404 0.542 -41.5677 415.7097)" class="st20" width="25.38" height="60.01"/>
						
							<rect x="364.65" y="190.03" transform="matrix(0.542 -0.8404 0.8404 0.542 -12.0832 417.8866)" class="st21" width="25.38" height="60.01"/>
						
							<rect x="381.39" y="164.07" transform="matrix(0.542 -0.8404 0.8404 0.542 17.4005 420.0649)" class="st22" width="25.38" height="60.01"/>
						
							<rect x="398.13" y="138.1" transform="matrix(0.542 -0.8404 0.8404 0.542 46.8849 422.2417)" class="st23" width="25.38" height="60.01"/>
					</g>
				</g>
				<g>
					<g>
						<path class="st4" d="M358.44,309.36l-8.42-0.59c0,0-24.64,11.56-39.4,5.51c0,0-7.21-10.16-1.92-20.82l22.2-2.57
							c0,0-3.1-2.83-4.12-7.03c-0.78-3.19,3.46-5.19,5.39-2.54c0.03,0.04,0.05,0.08,0.08,0.11c2.64,3.8,8.72,1.96,12.55,8.52
							l17.48-0.37L358.44,309.36z"/>
						<g>
							<path class="st5" d="M306.9,304.07c0.05,0.39,0.1,0.77,0.17,1.15c11.23,0.03,20.49-2.26,23.59-3.13
								C323.56,304.01,311.08,304.1,306.9,304.07z"/>
							<path class="st5" d="M330.66,302.09c0.26-0.07,0.51-0.14,0.75-0.22C331.22,301.93,330.97,302,330.66,302.09z"/>
							<path class="st5" d="M307.02,298.63c-0.11,0.63-0.18,1.25-0.22,1.87c10.23-0.31,23.71-3.75,23.71-3.75
								C324.48,297.83,312.18,298.42,307.02,298.63z"/>
							<path class="st5" d="M331.41,301.87c0.25-0.07,0.38-0.12,0.38-0.12C331.66,301.8,331.54,301.83,331.41,301.87z"/>
							<path class="st5" d="M308.4,310c0.14,0.34,0.28,0.67,0.4,0.97c9.75,0.25,21.92-3.23,21.92-3.23
								C322.22,309.66,311.69,309.95,308.4,310z"/>
						</g>
					</g>
					<path class="st3" d="M382.03,293.88c-3.18,3.77-10.62,5.75-22.27,5.1"/>
				</g>
				<g>
					<g>
						<path class="st24" d="M107.58,71.24c-90.46,25.84-48.6,119.81-48.6,119.81"/>
						<rect x="54.24" y="186.32" class="st1" width="9.48" height="9.48"/>
						<rect x="103.4" y="66.64" class="st1" width="9.48" height="9.48"/>
					</g>
					<g>
						<g>
							<g>
								<path class="st6" d="M136.13,246.63l-6.65-6.65c-0.45-0.45-1-0.72-1.59-0.82c-0.03-0.2-0.07-0.4-0.15-0.59l-10.83-29.41
									c-0.32-0.87-1.03-1.54-1.93-1.81l-44.29-13.12c-0.28-0.08-0.56-0.12-0.84-0.12c-0.77,0-1.52,0.3-2.08,0.87l-4.33,4.33
									c-0.77,0.77-1.05,1.89-0.75,2.92l13.12,44.29c0.27,0.89,0.93,1.61,1.81,1.93l29.41,10.83c0.2,0.07,0.39,0.12,0.6,0.15
									c0.1,0.6,0.38,1.15,0.82,1.59l6.65,6.65c0.58,0.58,1.33,0.87,2.08,0.87c0.76,0,1.51-0.29,2.08-0.87l16.85-16.84
									c0.55-0.55,0.87-1.31,0.87-2.08C136.99,247.93,136.69,247.19,136.13,246.63z"/>
							</g>
							<g>
								
									<rect x="110.39" y="249.11" transform="matrix(0.7071 -0.7071 0.7071 0.7071 -143.6539 160.8179)" class="st25" width="23.82" height="9.41"/>
							</g>
							<g>
								<path class="st25" d="M69.86,197.05l-1.3,1.3l23.15,23.15c0.48,0.48,0.48,1.25,0,1.73s-1.25,0.48-1.73,0l-23.15-23.15
									l-1.3,1.3l13.12,44.29l29.41,10.83l16.91-16.91l-10.83-29.41L69.86,197.05z"/>
							</g>
						</g>
					</g>
				</g>
				<g>
					<g>
						<path class="st4" d="M226.43,158.12c0.95,5.9-1.46,11.29-5.41,12.03c-3.94,0.75-7.91-3.43-8.87-9.32
							c-0.95-5.9,1.46-11.29,5.41-12.03C221.5,148.06,225.47,152.22,226.43,158.12z"/>
						<path class="st5" d="M222.27,158.71c0.6-0.12,1.2-0.05,1.78,0.16c-0.01-0.1-0.02-0.2-0.04-0.29
							c-0.63-3.89-3.25-6.66-5.86-6.16s-4.2,4.05-3.57,7.94c0.48,3,2.15,5.31,4.07,6C218.15,162.59,219.73,159.19,222.27,158.71z"/>
					</g>
					<path class="st4" d="M257.12,116.5h-15.87c-12.38,0-22.51,10.13-22.51,22.51v32.76c0,17.28,14.15,31.43,31.43,31.43l0,0
						c17.28,0,31.43-14.15,31.43-31.43v-30.79C281.61,127.52,270.59,116.5,257.12,116.5z"/>
					<path class="st6" d="M218.89,152.41c0,0-18.94-37.68,10.71-59.07v12.83c0,0,0.88-5.16,7.52-7.67V110c0,0,34.22-6.19,46.02,9.44
						s-1.33,43.8-1.33,43.8l-4.87-1.18c0,0-10.32-10.99-6.19-30.45l-52.06,5.01L218.89,152.41z"/>
					<path class="st26" d="M236.97,129.18c-9.51-0.84-17.05-6.45-22.83-13.34c-0.92,3.83-1.26,7.68-1.2,11.33
						c21.29,11.34,53.97,1.1,71.4-5.94c-0.37-0.61-0.77-1.21-1.2-1.79c-0.46-0.61-0.97-1.18-1.5-1.73
						C269.64,123.75,252.34,130.54,236.97,129.18z"/>
					<g>
						<path class="st6" d="M261.31,150.62l-5.2-2c-1.61-0.62-2.42-2.44-1.8-4.05l0,0c0.62-1.61,2.44-2.42,4.05-1.8l5.2,2
							c1.61,0.62,2.42,2.44,1.8,4.05l0,0C264.74,150.42,262.92,151.24,261.31,150.62z"/>
						<path class="st6" d="M236.44,149.01l-5.01,2.43c-1.55,0.75-3.43,0.1-4.19-1.45l0,0c-0.75-1.55-0.1-3.43,1.45-4.19l5.01-2.43
							c1.55-0.75,3.43-0.1,4.19,1.45l0,0C238.65,146.37,237.99,148.25,236.44,149.01z"/>
						<path class="st5" d="M240.41,171.48c0,0,8.93,0.69,8.97,2.23c0.04,1.53-3.95,2.27-5.05,1.61
							C243.22,174.66,240.41,171.48,240.41,171.48z"/>
						<g>
							<path class="st6" d="M236.95,157.05c0,1.91-1.54,3.46-3.46,3.46c-1.91,0-3.46-1.54-3.46-3.46c0-1.91,1.54-3.46,3.46-3.46
								C235.39,153.59,236.95,155.14,236.95,157.05z"/>
							<path class="st6" d="M261.8,157.05c0,1.91-1.54,3.46-3.46,3.46c-1.91,0-3.46-1.54-3.46-3.46c0-1.91,1.54-3.46,3.46-3.46
								C260.24,153.59,261.8,155.14,261.8,157.05z"/>
							<g>
								<path class="st6" d="M246.16,154.09c-1.28,5.86-3.36,12.51-5.4,17.62c0-0.18-0.02-0.21-0.04-0.26
									c-0.03-0.08-0.05-0.08-0.04-0.06c1.01,1.31,2.38,2.38,3.4,3.77c-1.04-0.27-1.99-0.69-2.91-1.18
									c-0.85-0.52-1.78-0.94-2.25-1.95c-0.04-0.12-0.07-0.21-0.07-0.44c0.03-0.28,0.04-0.22,0.05-0.27
									C240.96,165.45,243.28,159.63,246.16,154.09L246.16,154.09z"/>
							</g>
						</g>
					</g>
					<g>
						<path class="st4" d="M276.6,158.12c-0.95,5.9,1.46,11.29,5.41,12.03c3.94,0.75,7.91-3.43,8.87-9.32
							c0.95-5.9-1.46-11.29-5.41-12.03C281.53,148.06,277.56,152.22,276.6,158.12z"/>
						<path class="st5" d="M280.77,158.71c-0.6-0.12-1.2-0.05-1.78,0.16c0.01-0.1,0.02-0.2,0.04-0.29c0.63-3.89,3.25-6.66,5.86-6.16
							c2.61,0.49,4.2,4.05,3.57,7.94c-0.48,3-2.15,5.31-4.07,6C284.88,162.59,283.31,159.19,280.77,158.71z"/>
					</g>
					<g>
						<path class="st6" d="M240.88,177.67c4.12-0.26,9.89-0.87,15.42-2.43c3.65-1.01,6.28,3.74,4.06,7.4
							c-2.37,3.89-6.2,7.39-12.38,7.35c-5.06-0.04-8.14-1.66-10.01-3.72C235.33,183.39,237.21,177.9,240.88,177.67z"/>
						<path class="st27" d="M247.99,190c6.17,0.04,10.02-3.45,12.38-7.35c0.33-0.55,0.54-1.12,0.67-1.7
							c-2.08-1.19-4.94-1.86-8.91-1.38c-6.12,0.74-9.46,4.69-11.28,8.86c0,0.01-0.01,0.02-0.01,0.03
							C242.62,189.38,244.94,189.98,247.99,190z"/>
						<path class="st28" d="M245.53,184.72c0.5,1.09,2.83,1.14,5.21,0.12c2.37-1.02,3.88-2.74,3.38-3.83s-2.83-1.14-5.21-0.12
							C246.54,181.92,245.03,183.64,245.53,184.72z"/>
						<path class="st10" d="M240.88,177.67c4.12-0.26,9.89-0.87,15.42-2.43c2.24-0.63,4.09,0.93,4.68,3.07
							c-3.4,2.5-8.41,4.32-14.1,4.8c-3.65,0.3-7.11,0.03-10.12-0.71C236.97,180.05,238.57,177.82,240.88,177.67z"/>
					</g>
				</g>
			</g>
		</g>
	</g>
</g>
</svg>
