<?xml version="1.0" encoding="utf-8"?>
<!-- Generator: Adobe Illustrator 26.0.3, SVG Export Plug-In . SVG Version: 6.00 Build 0)  -->
<svg version="1.1" xmlns="http://www.w3.org/2000/svg" xmlns:xlink="http://www.w3.org/1999/xlink" x="0px" y="0px"
	 viewBox="0 0 500 500" style="enable-background:new 0 0 500 500;" xml:space="preserve">
<style type="text/css">
	.st0{opacity:0.5;fill:#69CDFF;}
	.st1{fill:#69CDFF;}
	.st2{opacity:0.4;fill:#69CDFF;}
	.st3{fill:#2993E2;}
	.st4{fill:#E2E2E2;}
	.st5{fill:#0B3356;}
	.st6{fill:none;stroke:#FFFFFF;stroke-width:3;stroke-linecap:round;stroke-miterlimit:10;}
	.st7{opacity:0.4;clip-path:url(#SVGID_00000153699675963689976900000006952309821661641149_);fill:#9B9B9B;}
	.st8{clip-path:url(#SVGID_00000153699675963689976900000006952309821661641149_);}
	.st9{fill:#FFA383;}
	.st10{fill:#FF692E;}
	.st11{fill:#EA4613;}
	.st12{fill:#9B9B9B;}
	.st13{fill:#E5886E;}
	.st14{fill:#0E263F;}
	.st15{opacity:0.5;fill:#E5886E;}
	.st16{fill:#FFFFFF;}
	.st17{fill:#EA4939;}
	.st18{clip-path:url(#SVGID_00000134233145405790065530000010318940752052408975_);}
	.st19{fill:#EDEDED;}
	.st20{opacity:0.5;fill:#EA4613;}
	.st21{opacity:0.6;fill:#0B3356;}
	.st22{opacity:0.4;fill:#0B3356;}
	.st23{opacity:0.5;fill:#FFFFFF;}
	.st24{fill:none;stroke:#FFFFFF;stroke-width:3;stroke-linejoin:round;stroke-miterlimit:10;}
	.st25{fill:none;stroke:#FFFFFF;stroke-width:3;stroke-linecap:round;stroke-linejoin:round;stroke-miterlimit:10;}
	.st26{opacity:0.2;fill:#69CDFF;}
	.st27{fill:#123456;}
	.st28{fill:#0A1D35;}
	.st29{fill:none;stroke:#153556;stroke-width:5;stroke-linecap:round;stroke-miterlimit:10;}
</style>
<g id="BACKGROUND">
</g>
<g id="OBJECTS">
	<g>
		<g>
			<path class="st0" d="M376.46,189.91c-62.57,0-113.3,50.73-113.3,113.3c0,62.57,50.73,113.3,113.3,113.3
				c62.57,0,113.3-50.73,113.3-113.3C489.76,240.63,439.03,189.91,376.46,189.91z"/>
			<path class="st0" d="M452.74,159.91c0,8.47-6.87,15.34-15.34,15.34c-8.47,0-15.34-6.87-15.34-15.34
				c0-8.47,6.87-15.34,15.34-15.34C445.87,144.57,452.74,151.44,452.74,159.91z"/>
			<path class="st1" d="M42.78,377.27c0,7.56-6.13,13.69-13.69,13.69c-7.56,0-13.69-6.13-13.69-13.69c0-7.56,6.13-13.69,13.69-13.69
				C36.65,363.58,42.78,369.71,42.78,377.27z"/>
			<path class="st1" d="M478.39,138.74c0,6.57-5.32,11.89-11.89,11.89c-6.57,0-11.89-5.32-11.89-11.89
				c0-6.57,5.32-11.89,11.89-11.89C473.06,126.85,478.39,132.17,478.39,138.74z"/>
			<path class="st2" d="M77.58,219.79c-38.19,1.01-68.32,32.79-67.31,70.97c1.01,38.18,32.78,68.32,70.97,67.31
				c38.18-1.01,68.32-32.79,67.31-70.97C147.54,248.91,115.76,218.78,77.58,219.79z"/>
			<g>
				<polygon class="st3" points="40.14,139.95 34.05,139.95 43.68,122.91 49.76,122.91 				"/>
				<polygon class="st3" points="51.03,139.95 44.95,139.95 54.57,122.91 60.65,122.91 				"/>
				<polygon class="st3" points="61.92,139.95 55.84,139.95 65.47,122.91 71.55,122.91 				"/>
			</g>
			<g>
				<polygon class="st3" points="366.41,401.95 358.85,401.95 370.81,380.78 378.37,380.78 				"/>
				<polygon class="st3" points="379.95,401.95 372.39,401.95 384.35,380.78 391.91,380.78 				"/>
				<polygon class="st3" points="393.49,401.95 385.93,401.95 397.89,380.78 405.45,380.78 				"/>
				<polygon class="st3" points="407.03,401.95 399.47,401.95 411.43,380.78 418.99,380.78 				"/>
				<polygon class="st3" points="420.57,401.95 413.01,401.95 424.97,380.78 432.53,380.78 				"/>
			</g>
			
				<rect x="13.3" y="128.68" transform="matrix(0.7071 -0.7071 0.7071 0.7071 -86.341 54.4811)" class="st3" width="18.59" height="5.54"/>
			
				<rect x="19.82" y="122.16" transform="matrix(0.7071 -0.7071 0.7071 0.7071 -86.3412 54.4821)" class="st3" width="5.54" height="18.59"/>
			<g>
				<g>
					<path class="st3" d="M465.44,181.27c-0.99-1-2.61-1.01-3.61-0.01c-1,0.99-1.01,2.61-0.02,3.61c4.36,4.4,4.33,11.52-0.06,15.88
						c-1,0.99-1.01,2.61-0.02,3.61c0.99,1,2.61,1.01,3.61,0.01C471.74,198.03,471.78,187.67,465.44,181.27z"/>
					<path class="st3" d="M472.54,211.64c10.4-10.31,10.47-27.17,0.16-37.57c-0.99-1-2.61-1.01-3.61-0.01
						c-1,0.99-1.01,2.61-0.02,3.61c8.33,8.4,8.28,22.02-0.13,30.35c-1,0.99-1.01,2.61-0.01,3.61
						C469.92,212.62,471.54,212.63,472.54,211.64z"/>
					<path class="st3" d="M459.87,189.37c-1.96-1.97-5.15-1.98-7.12-0.03c-1.97,1.95-1.99,5.15-0.03,7.12
						c1.96,1.97,5.15,1.99,7.12,0.03C461.81,194.53,461.82,191.34,459.87,189.37z"/>
				</g>
			</g>
			<g>
				<g>
					<g>
						<path class="st3" d="M46.54,159.2l-2.25,0l-3.22-4.56c-0.25-0.36-0.67-0.58-1.11-0.58l-12.9-0.03c-0.44,0-0.86,0.21-1.11,0.57
							l-3.24,4.55l-2.25-0.01c-3.5-0.01-6.37,2.85-6.37,6.35L14.06,184c-0.01,3.5,2.85,6.37,6.35,6.37l26.08,0.05
							c3.5,0.01,6.37-2.85,6.37-6.35l0.03-18.5C52.9,162.07,50.04,159.2,46.54,159.2z M33.46,184c-5.18-0.01-9.37-4.21-9.36-9.39
							c0.01-5.18,4.21-9.37,9.39-9.36c5.18,0.01,9.37,4.22,9.36,9.39C42.84,179.82,38.64,184.01,33.46,184z"/>
						<path class="st3" d="M33.49,168.43c-3.42-0.01-6.2,2.76-6.21,6.19c-0.01,3.42,2.76,6.2,6.19,6.21
							c3.42,0.01,6.2-2.76,6.21-6.19C39.68,171.22,36.91,168.44,33.49,168.43z"/>
					</g>
				</g>
			</g>
			<g>
				<path class="st3" d="M456.74,382.14l-0.05-7.46c-0.01-0.71-0.59-1.29-1.31-1.28c-2.76,0.02-4.99,2.28-4.97,5.04l0.03,3.57
					l-8.2,0.06l-1.35,0.01c-1.49,0.01-2.69,1.23-2.68,2.72c0.01,1.03,0.59,1.9,1.44,2.35c-0.84,0.46-1.41,1.35-1.4,2.37
					c0.01,1.02,0.59,1.9,1.44,2.35c-0.84,0.46-1.41,1.35-1.4,2.37c0.01,1.14,0.73,2.11,1.73,2.49c-1,0.4-1.7,1.38-1.69,2.52
					c0.01,1.49,1.23,2.69,2.72,2.68l1.35-0.01l12.15-0.09l1.11-0.01c2.8-0.02,5.05-2.3,5.03-5.1L460.6,387
					C460.58,384.64,458.94,382.68,456.74,382.14z"/>
				<path class="st3" d="M468.24,383.91l-3.81,0.03c-1.04,0.01-1.87,0.86-1.87,1.89l0.09,12.05c0.01,1.04,0.86,1.88,1.89,1.87
					l3.81-0.03c1.04-0.01,1.87-0.86,1.87-1.89l-0.09-12.05C470.13,384.74,469.28,383.9,468.24,383.91z"/>
			</g>
		</g>
		<g>
			<rect x="86.48" y="141.59" class="st1" width="341.53" height="224.08"/>
			<rect x="89.47" y="147.44" class="st4" width="335.79" height="4.02"/>
			<rect x="338.02" y="123.19" class="st5" width="70.59" height="7.37"/>
			<polygon class="st5" points="428.02,137.77 421.57,125.8 94.23,125.8 87.32,132.03 87.32,147.44 428.02,147.44 			"/>
			<g>
				<line class="st6" x1="413.29" y1="133.03" x2="419.8" y2="139.53"/>
				<line class="st6" x1="419.8" y1="133.03" x2="413.29" y2="139.53"/>
			</g>
			<g>
				<defs>
					<polygon id="SVGID_1_" points="430.15,78.45 88.19,78.45 86.45,365.67 428.41,365.67 					"/>
				</defs>
				<clipPath id="SVGID_00000019668361635902424290000004045247821744312735_">
					<use xlink:href="#SVGID_1_"  style="overflow:visible;"/>
				</clipPath>
				<path style="opacity:0.4;clip-path:url(#SVGID_00000019668361635902424290000004045247821744312735_);fill:#9B9B9B;" d="
					M388.23,266.17c-32.91,0-59.59,26.68-59.59,59.59c0,32.91,26.68,59.59,59.59,59.59c32.91,0,59.59-26.68,59.59-59.59
					C447.82,292.85,421.14,266.17,388.23,266.17z M388.23,357.52c-17.54,0-31.76-14.22-31.76-31.76c0-17.54,14.22-31.76,31.76-31.76
					c17.54,0,31.76,14.22,31.76,31.76C419.99,343.3,405.77,357.52,388.23,357.52z"/>
				<path style="opacity:0.4;clip-path:url(#SVGID_00000019668361635902424290000004045247821744312735_);fill:#9B9B9B;" d="
					M332.8,160.72c-20.23,0-36.62,16.39-36.62,36.62c0,20.23,16.4,36.62,36.62,36.62c20.22,0,36.62-16.4,36.62-36.62
					C369.42,177.12,353.03,160.72,332.8,160.72z M332.8,216.86c-10.78,0-19.52-8.74-19.52-19.52c0-10.78,8.74-19.52,19.52-19.52
					c10.78,0,19.52,8.74,19.52,19.52C352.32,208.12,343.58,216.86,332.8,216.86z"/>
				<path style="opacity:0.4;clip-path:url(#SVGID_00000019668361635902424290000004045247821744312735_);fill:#9B9B9B;" d="
					M79.74,212.89c-22.38,0-40.52,18.14-40.52,40.52c0,22.38,18.14,40.52,40.52,40.52c22.38,0,40.52-18.14,40.52-40.52
					C120.25,231.02,102.11,212.89,79.74,212.89z M79.74,274.99c-11.93,0-21.59-9.67-21.59-21.59c0-11.93,9.67-21.59,21.59-21.59
					c11.93,0,21.59,9.67,21.59,21.59C101.33,265.33,91.66,274.99,79.74,274.99z"/>
				<path style="opacity:0.4;clip-path:url(#SVGID_00000019668361635902424290000004045247821744312735_);fill:#9B9B9B;" d="
					M136.9,361.99c-6.6-16.99-5.19-63.68,38.03-120.92c-8.6-32.16,3.94-83.41,26.53-93.63l39.39,0.95c0,0,39.39,112.66,31.28,213.59
					H136.9z"/>
				<g style="clip-path:url(#SVGID_00000019668361635902424290000004045247821744312735_);">
					<path class="st9" d="M371.23,129.68c-0.6-3.87-2.34-7.07-1.17-15.45c0.4-2.86-0.05-3.04,0.22-5.39
						c0.15-1.26,1.02-2.5,1.02-3.64c0-3.53-0.4-3.19-0.37-5.16c0.58-4.48,8.02,2.38,5.29,11.61c0.25,5.01,0.81,4.93,1.26,4.51
						c0.22-0.21,2.53-2.14,4.24-7.07c0.86-2.48,1.39-7.22,2.47-9.89c1.12-2.78,1.7-5.49,3.18-7.74c1.7-2.58,3.2-4.13,4.65-2.26
						c0.45,0.58,0.22,2.64-0.98,5.33c-0.9,2-0.83,2.79-1.8,5.32c-0.76,2.45-2.33,9.76-2.12,9.89c0.14,0.09,2.42-5.55,5.55-11.29
						c1.15-2.11,2.08-3.52,2.73-4.84c1.12-2.25,2.92-2.33,3.4-1.83c1.03,1.07,0.92,2.57-0.37,5.69c-0.72,1.73-1.81,3.85-2.89,5.96
						c-2.18,4.28-3.85,8.06-3.68,8.28c0.03,0.04,0.42,1.5,0.91,0.76c1.79-2.7,5.97-11.42,8.27-14.44c1.67-2.19,2.72-0.62,2.64,1.26
						c-0.03,0.73-0.14,2.09-1.31,3.95c-0.52,0.81-1.53,3.54-2.56,5.42c-1.32,2.41-3.09,5.63-3.04,5.78c0.01,0.04,0.4,0.91,0.91,0.05
						c0.92-1.56,2.13-4.34,3.71-6.78c0.66-1.72,1.65-3.21,2.3-3.85c0.78-0.78,1.48-0.03,1.66,0.5c0.51,1.5,0.33,2.15-0.51,4.18
						c-0.66,1.58-1.26,3.06-1.64,3.73c-0.8,1.43-2.02,3.74-2.7,5.15c-1.02,2.13-2.3,4.44-3.15,6.81c-1.82,5.11-7.8,12.47-11.3,16.28
						c-0.8,3.01-7.8,26.11-7.8,26.11s-16.91,0.8-15.49-3.92C364.19,158,369.57,136.34,371.23,129.68z"/>
					<path class="st10" d="M274.92,234.73c5.99,2.57,42.29-13.29,56.62-15.21c3.85-0.64,17.41-49.72,23.93-66.02
						c6.23-15.58,39.5,3.81,37.53,12.85c-1.97,9.08-30.84,80.07-36.4,87.62c-5.56,7.55-64.93,31.65-70.03,49.11"/>
					<path class="st11" d="M361.78,150.35c2.67-4.28,5.99-9.83,6.7-13.11c0.71-3.28,20.17,3.44,18.39,7.15
						c-2.58,5.37-2.92,11.8-2.85,14.23C384.12,162.4,360.07,153.1,361.78,150.35z"/>
					<path class="st12" d="M381.28,158.01c0,0,0.32-8.95,3.97-14.48"/>
					<path class="st12" d="M378.98,156.73c0,0,0.32-8.95,3.97-14.49"/>
					<path class="st12" d="M375.95,155.88c0,0,0.26-8.67,4.49-14.49"/>
					<path class="st12" d="M373.41,154.85c0,0,0.34-8.67,4.63-14.44"/>
					<path class="st12" d="M369.96,153.52c0,0,1.6-9.35,5.77-14.06"/>
					<path class="st12" d="M367.64,152.62c0,0,1.6-9.35,5.77-14.06"/>
					<path class="st12" d="M364.5,151.01c0,0,2.35-8.71,6.73-12.94"/>
					<path class="st3" d="M274.77,242.22c-4.67-11.1,5.97-69.81-4.35-92.42c-6.3-13.81-21.22-22.09-34.28-16.79
						c-10.01-0.32-16.48,7.08-21.45,16.02c-9.43,16.98-0.23,35.78-5.59,40.6c-8.81,7.92-15.85,13.99-15.6,23.16
						c0.37,13.6,10.24,17.92,8.13,28.07C195.65,269.54,274.77,242.22,274.77,242.22z"/>
					<path class="st4" d="M212.78,192.39c-2.52,11.47,4.69,17.36,5.69,23.7c0.93,5.87-0.12,14.19-5.65,17.65l11.7-2.5l3.19-24.43
						l-8.36-15.19L212.78,192.39z"/>
					<path class="st10" d="M251.78,230.02c13.84,6.33,35.44,20.86,39.22,32.43c3.79,11.57-9.74,59.97-10.35,73.77
						c-0.61,13.8-0.96,21.79-1.29,29.3c-0.5,11.38-94.87,7.95-94.33-4.16c0.33-7.51,0.68-15.49,1.29-29.3
						c0.61-13.8-8.61-63.21-3.82-74.4c4.79-11.19,27.58-23.77,41.92-28.86L251.78,230.02z"/>
					<path class="st13" d="M277.19,184.37c-0.98,5.48-5.57,12.36-9.57,10.05c-3.22-1.86-5.87-4.85-4.9-10.33
						c0.98-5.48,3.98-8.06,8.4-8.75C275.89,174.59,278.16,178.88,277.19,184.37z"/>
					<path class="st9" d="M276.2,177.35c-0.83-1.13-5.54-1.93-7.09,2.15l0.68-3.89c0,0,1.54-0.65,3.35-0.28
						C275.46,175.82,276.2,177.35,276.2,177.35z"/>
					<path class="st13" d="M206.04,181.23c0.49,5.55,4.46,12.8,8.65,10.85c3.37-1.58,6.27-4.32,5.79-9.86
						c-0.49-5.55-3.26-8.38-7.6-9.45C208.19,171.61,205.55,175.69,206.04,181.23z"/>
					<path class="st9" d="M207.65,174.33c0.93-1.06,5.69-1.44,6.87,2.77l-0.34-3.93c0,0-1.49-0.78-3.31-0.57
						C208.52,172.87,207.65,174.33,207.65,174.33z"/>
					<path class="st9" d="M222.34,207.66c1.47,6.11-1.54,19.55-2.09,22.92c-1.26,0.47-9.69,4.28-9.69,4.28
						c-2.4,8.3,4.45,14.96,10.86,23.7c7.25,9.89,15.61,24.21,14.99,35.34l2.67,0.12c6.09-23.16,21.07-51.55,17.57-61.55
						c-0.43-1.32-2.83-12.75-0.29-22.57L222.34,207.66z"/>
					<path class="st13" d="M222.71,211.25c0,0,0.17,2.14-0.22,5.79c0,0,9.34,12.11,16.38,12.42c7.05,0.31,16.52-10.08,16.52-10.08
						s0.17-7.23,0.62-10.23L222.71,211.25z"/>
					<path class="st9" d="M269.93,172.55c-0.68,15.35-13.67,27.25-29.02,26.57c-15.35-0.68-27.24-13.67-26.57-29.02
						c0.91-20.61,13.78-29.97,29.14-29.29C258.83,141.49,270.81,152.38,269.93,172.55z"/>
					<path class="st9" d="M269.93,172.55c-0.66,14.87-1.21,27.31-7.23,35.14c-3.63,4.72-12.86,12.69-19.38,14.53
						c-1.62,0.45-6.17-0.01-7.74-0.64c-6.27-2.54-14.08-11.05-17.14-15.83c-5.31-8.33-4.76-20.77-4.11-35.64"/>
					<path class="st14" d="M258.5,183.62c-0.11,2.52-1.72,4.51-3.6,4.43c-1.88-0.08-3.31-2.2-3.2-4.73c0.11-2.53,1.72-4.51,3.6-4.43
						C257.18,178.98,258.61,181.09,258.5,183.62z"/>
					<path class="st14" d="M232.2,182.31c-0.11,2.52-1.73,4.51-3.6,4.43c-1.88-0.08-3.31-2.2-3.2-4.73c0.11-2.53,1.72-4.51,3.6-4.43
						C230.88,177.66,232.31,179.78,232.2,182.31z"/>
					<g>
						<path class="st14" d="M247.31,170.18c5.65-2.47,14.86-1.65,18.23,4.13c0.21,0.38-0.12,0.88-0.55,0.83
							c-4.67-0.28-8.77-0.87-13.23-2.17c-1.47-0.45-2.96-0.97-4.47-1.78C246.87,171,246.89,170.36,247.31,170.18L247.31,170.18z"/>
					</g>
					<g>
						<path class="st14" d="M236.57,171.75c-5.6,2.3-11.18,2.97-17.18,3.44c-0.43,0.05-0.82-0.26-0.84-0.69
							c2.07-4.67,8.81-5.81,13.37-5.37C232.82,169.22,238.75,170.15,236.57,171.75L236.57,171.75z"/>
					</g>
					<path class="st13" d="M236.14,198.06c1.64-0.6,7.44-0.4,8.79,0.39c1.34,0.79-2.98,1.56-4.47,1.5
						C238.97,199.87,234.82,198.62,236.14,198.06z"/>
					<path class="st15" d="M243.95,214.48c-2.53-0.56-6.91-0.66-8.9-0.39c-1.43,0.19,1.88-1.1,4.46-0.99
						C241.88,213.2,245.31,214.84,243.95,214.48z"/>
					<path class="st16" d="M231.89,203.99c5.35,1.85,11.94,1.83,17.03,1.45c0.63-0.05,0.35,0.05-0.27,0.77
						c-1.01,1.17-4.26,4.77-8.59,4.54c-4.17-0.22-7.74-5.42-8.65-6.92C231.06,203.25,231.41,203.83,231.89,203.99z"/>
					<path class="st9" d="M214.03,188.23c-2.1-1.55-3.41-3.49-1.87-5.81c0.38-0.58,0.94-1.18,1.71-1.8
						c3.85-3.13,1.85,3.89,1.85,3.89L214.03,188.23z"/>
					<path class="st17" d="M230.56,202.93c3.4,0.57,7.62-1.34,9.53,0.78c2.66-1.69,7.22,1.33,10.7,1.32c0.07,0,0.17,0.12-0.07,0.2
						c-1.84,0.55-12.13,2.61-20.23-1.93C230.09,203.08,230.13,202.86,230.56,202.93z"/>
					<path class="st17" d="M230.77,203.37c0,0,2.69,4.44,4.63,6.24c1.86,1.72,7.14,2.32,9.3,0.86c1.96-1.32,5.26-5.24,5.26-5.24
						s-0.81,0.23-0.81,0.23c-1.87,1.1-3,2.26-5.16,2.99c-2.17,0.73-4.42,0.76-6.53,0.09c-2.75-0.88-3.34-2.93-5.25-4.47
						c0,0-0.94-0.56-0.94-0.56L230.77,203.37z"/>
					<path class="st4" d="M232.66,204.35c1.45,1.11,4.16,2.12,7.6,2.38c4.16,0.32,8.57-1.08,8.57-1.08s-4.47,0.62-8.37,0.45
						C236.39,205.92,232.66,204.35,232.66,204.35z"/>
					<path class="st13" d="M214.03,188.23c-0.02-8.49,3.08-20.54,8.5-25.39c4.5-4.03,11.79-8.34,10.72-15.65
						c0,0-1.62,8.66,6.81,14.14c6.05,3.93,34.65,4.35,26.08,27.48l3.21-3.17l0.46-11.81l-7.94-11.72l-29.4-20.22l-15.74,20.69
						l-4,14.43L214.03,188.23z"/>
					<path class="st3" d="M268.81,189.28c0.2-7.64,0.98-13.66-4.99-19.43c-8.4-8.12-16.31-5.77-23.09-10.83
						c-6.38-4.77-8.63-11.88-7.59-18.66l10.14-1l10.27,1.9l11.64,9.26l5.66,13.52c0,0,1.11,4.74,0.38,12.56
						C270.51,184.41,268.81,189.28,268.81,189.28z"/>
					<path class="st3" d="M235.03,140.4c-19.42,6.02-20.8,15.63-22.41,26.83c-1.61,11.2,1.41,21.01,1.41,21.01
						c-0.39-4.89,0.78-23.02,10.32-29.61c9.55-6.59,8.9-11.43,8.9-11.43L235.03,140.4z"/>
					<path class="st4" d="M233.25,147.19c0,0-1.42-9.33,2.89-14.18c0,0-3.7,0.32-5.19,5.15
						C229.58,142.65,233.25,147.19,233.25,147.19z"/>
					<path class="st11" d="M205.94,237.34c-1.31,7.85,3.6,13.71,11.28,24.24c7.69,10.53,16.11,21.63,16.74,32.21
						c0.72,12.16-4.84,71.47-4.84,71.47l5.66,0.25l4.31-71.49c0.26-8.36-5.4-17.33-9.62-24.45c-4.23-7.12-14.41-19.1-16.58-23.59
						c-2.17-4.49-3.17-7.54-2.32-11.1C210.57,234.86,207.6,233.86,205.94,237.34z"/>
					<path class="st11" d="M238.73,292.91c1.12-3.98,5.01-14.52,6.42-17.73c1.42-3.21,3.91,3.12,3.91,3.12s-10.38,26.25-11.13,34.95
						c-0.75,8.7-0.85-13.32-0.85-13.32L238.73,292.91z"/>
					<path class="st11" d="M286.57,303.09c1.26-6.42,6.16-18.69,4.18-29.48c-1.98-10.79,3.44-1.29,7.14,0.38
						c3.71,1.66,54.34-11.79,58.71-20.01c0,0-1,1.67-3.92,3.47c-5.86,3.62-17.35,9.58-29.34,16.35
						C296.08,289.19,287.63,297.82,286.57,303.09z"/>
					<path class="st11" d="M313.91,224.2c3.4-1.08,16.76-3.44,21.61,2.12c4.85,5.56,5.13,0.3,3.14-2.06
						c-2-2.36-4.03-8.45-3.72-10.45c-1.36,3.3-2.12,4.57-3,5.49C330.39,220.05,329.65,219.06,313.91,224.2z"/>
					<path class="st11" d="M357.12,150.77c-1.21,1.77,6.77,8.27,18.03,11.84c11.26,3.57,17.33,4.06,17.93,2.74
						c0,0,0.47,1.03-4.34,13.54c0,0,2.4-8.76-2.76-9.2c-6.1-0.51-19.78-3.98-27.44-13.1c-1.72-2.04-3.03-1.2-5.52,3.51
						C355.34,153.8,356,151.71,357.12,150.77z"/>
					<path class="st11" d="M205.98,291.97c0,0-8.58,20.1-5.37,24.8c3.21,4.7,10.13,5.86,10.13,9.06c0,3.21-7.57-0.73-7.14,2.48
						c0.3,2.24,23.56,22.54,28.72,30.43c2.23,3.41-0.71,12.23-0.07,13.53l-2.65-0.12c-7.51-6.35-34.34-34.44-34.34-34.44
						s-7.78-28.44-6.77-30.36c1-1.93,6.99-16.68,7.63-17.75C196.76,288.55,205.98,291.97,205.98,291.97z"/>
					<path class="st10" d="M184.68,253.97c-8.69,7.02-43.69,66.4-39.02,86.1c3.99,16.82,47.83,52.45,54.45,54.17
						c11.49,2.97,42.67-27.94,27.6-36.21c-15.06-8.27-34.04-32.5-34.95-35.63c-0.92-3.14,15.33-35.07,15.33-35.07"/>
					<path class="st11" d="M284.1,315.28c-3.1,7.05-15.94,22.23-15.08,27.79c0.86,5.56,11.36,10.28,10.49,19.04
						C279.52,362.11,279.58,334.73,284.1,315.28z"/>
					<path class="st4" d="M238.42,264.81c0.46,4.99,4.03,17.25,4.03,17.25l2.45-6.02C244.9,276.04,239.38,273.22,238.42,264.81z"/>
					<path class="st11" d="M242.45,282.06c5.27,4.13,27.61,7.63,35.88-5.06c8.27-12.69,5.03-23.02,5.03-23.02l-38.47,22.07
						L242.45,282.06z"/>
					<path class="st11" d="M145.23,333.8c0.43,6.27,59.78,61.69,71.01,53.8c0,0-8.72,7.78-16.14,6.64
						c-4.85-0.57-39.33-28.14-50.17-45.43C143.67,339.22,145.02,335.13,145.23,333.8z"/>
					<g>
						<defs>
							<path id="SVGID_00000041979160688081749710000009743614338801014166_" d="M355.46,153.5c-6.52,16.3-20.08,65.38-23.93,66.02
								c-14.33,1.92-50.63,17.78-56.62,15.21l1.84,10.81c-7.93-6.38-17.57-12.12-24.98-15.51l-27.36-1.2
								c-12.78,4.53-32.25,15.01-39.74,25.16l0,0c-8.69,7.02-43.69,66.4-39.02,86.1c3.99,16.82,47.83,52.45,54.45,54.17
								c7.57,1.96,23.68-10.79,29.49-22.08c24.29,1.17,49.5-0.77,49.76-6.63c0.33-7.51,0.68-15.5,1.29-29.3
								c0.27-6.21,3.16-19.43,5.91-33.15c5.11-17.46,64.47-41.55,70.03-49.11c5.56-7.55,34.43-78.54,36.4-87.62
								C394.96,157.3,361.7,137.92,355.46,153.5z"/>
						</defs>
						<clipPath id="SVGID_00000068650776783841955360000008814643397855871890_">
							<use xlink:href="#SVGID_00000041979160688081749710000009743614338801014166_"  style="overflow:visible;"/>
						</clipPath>
						<g style="clip-path:url(#SVGID_00000068650776783841955360000008814643397855871890_);">
							<path class="st19" d="M297.95,233.74c0,3.86-3.13,6.98-6.98,6.98c-3.86,0-6.98-3.13-6.98-6.98c0-3.86,3.13-6.98,6.98-6.98
								C294.83,226.75,297.95,229.88,297.95,233.74z"/>
							<path class="st19" d="M318.48,255.26c0,3.86-3.13,6.98-6.98,6.98c-3.86,0-6.98-3.13-6.98-6.98c0-3.86,3.13-6.99,6.98-6.99
								C315.35,248.28,318.48,251.4,318.48,255.26z"/>
							<path class="st19" d="M328.57,225.36c0,3.86-3.13,6.98-6.98,6.98c-3.86,0-6.99-3.13-6.99-6.98c0-3.86,3.13-6.98,6.99-6.98
								C325.44,218.38,328.57,221.5,328.57,225.36z"/>
							<path class="st19" d="M353.79,255.26c0,3.86-3.13,6.98-6.99,6.98c-3.86,0-6.98-3.13-6.98-6.98c0-3.86,3.13-6.99,6.98-6.99
								C350.67,248.28,353.79,251.4,353.79,255.26z"/>
							<circle class="st19" cx="364.5" cy="226.75" r="6.98"/>
							<path class="st19" d="M291.08,294.77c0,3.86-3.13,6.98-6.99,6.98c-3.86,0-6.99-3.13-6.99-6.98c0-3.86,3.13-6.99,6.99-6.99
								C287.96,287.79,291.08,290.92,291.08,294.77z"/>
							<path class="st19" d="M257.86,317.91c0,3.86-3.13,6.98-6.98,6.98c-3.86,0-6.98-3.12-6.98-6.98c0-3.86,3.13-6.99,6.98-6.99
								C254.73,310.93,257.86,314.05,257.86,317.91z"/>
							<path class="st19" d="M278.47,347.68c0,3.86-3.13,6.98-6.98,6.98c-3.86,0-6.98-3.13-6.98-6.98c0-3.86,3.13-6.98,6.98-6.98
								C275.34,340.7,278.47,343.83,278.47,347.68z"/>
							<path class="st19" d="M254.29,372.48c0,3.86-3.13,6.98-6.99,6.98c-3.86,0-6.98-3.13-6.98-6.98c0-3.86,3.13-6.99,6.98-6.99
								C251.16,365.5,254.29,368.62,254.29,372.48z"/>
							<path class="st19" d="M219.24,352.12c0,3.86-3.13,6.98-6.98,6.98c-3.86,0-6.98-3.13-6.98-6.98c0-3.61,2.73-6.58,6.24-6.95
								C211.75,345.15,215.2,349,219.24,352.12z"/>
							<path class="st19" d="M202.46,391.46c0,3.86-3.13,6.98-6.98,6.98c-3.86,0-6.98-3.13-6.98-6.98c0-3.86,3.13-6.99,6.98-6.99
								C199.33,384.48,202.46,387.6,202.46,391.46z"/>
							<path class="st19" d="M180.61,355.35c0,3.86-3.13,6.99-6.98,6.99c-3.86,0-6.99-3.13-6.99-6.99c0-3.86,3.13-6.99,6.99-6.99
								C177.48,348.36,180.61,351.49,180.61,355.35z"/>
							<path class="st19" d="M193.49,322.65c0,3.86-3.13,6.99-6.98,6.99c-3.86,0-6.99-3.13-6.99-6.99c0-3.86,3.13-6.98,6.99-6.98
								C190.36,315.67,193.49,318.79,193.49,322.65z"/>
							<path class="st19" d="M158.93,315.75c0,3.86-3.13,6.98-6.98,6.98c-3.86,0-6.98-3.13-6.98-6.98c0-3.86,3.13-6.99,6.98-6.99
								C155.81,308.76,158.93,311.89,158.93,315.75z"/>
							<path class="st19" d="M202.46,289.41c0,3.86-3.13,6.98-6.98,6.98c-3.86,0-6.98-3.13-6.98-6.98c0-3.86,3.13-6.99,6.98-6.99
								C199.33,282.42,202.46,285.55,202.46,289.41z"/>
							<path class="st19" d="M173.62,282.06c0,3.86-3.13,6.98-6.99,6.98c-3.86,0-6.98-3.13-6.98-6.98c0-3.86,3.13-6.99,6.98-6.99
								C170.49,275.07,173.62,278.2,173.62,282.06z"/>
							<path class="st19" d="M199.4,250.84c0,3.86-3.13,6.98-6.98,6.98c-3.86,0-6.98-3.13-6.98-6.98c0-3.86,3.13-6.99,6.98-6.99
								C196.27,243.85,199.4,246.98,199.4,250.84z"/>
							<path class="st19" d="M227.51,308.76c0,3.86-3.13,6.98-6.99,6.98c-3.86,0-6.98-3.13-6.98-6.98c0-3.86,3.13-6.99,6.98-6.99
								C224.38,301.78,227.51,304.9,227.51,308.76z"/>
							<path class="st19" d="M226.86,275.37c-1.19,0.95-2.71,1.53-4.36,1.53c-3.86,0-6.98-3.13-6.98-6.98
								c0-2.55,1.37-4.79,3.41-6.01C220.64,266.6,223.56,270.66,226.86,275.37z"/>
							<path class="st19" d="M350.1,194.88c0,3.86-3.13,6.99-6.98,6.99c-3.86,0-6.99-3.13-6.99-6.99c0-3.86,3.13-6.98,6.99-6.98
								C346.97,187.89,350.1,191.02,350.1,194.88z"/>
							<path class="st19" d="M387.42,189.28c0,3.86-3.13,6.98-6.99,6.98c-3.86,0-6.98-3.13-6.98-6.98c0-3.86,3.13-6.99,6.98-6.99
								C384.29,182.3,387.42,185.42,387.42,189.28z"/>
							<path class="st19" d="M369.66,164.31c0,3.86-3.13,6.98-6.99,6.98c-3.86,0-6.98-3.13-6.98-6.98c0-3.86,3.13-6.98,6.98-6.98
								c0.3,0,0.59,0.02,0.87,0.05c2.19,1.45,4.44,2.4,4.44,2.4C369.04,161,369.66,162.58,369.66,164.31z"/>
						</g>
					</g>
					<path class="st20" d="M286.57,303.09c1.26-6.42,6.16-18.69,4.18-29.48c-1.98-10.79,3.44-1.29,7.14,0.38
						c3.71,1.66,54.34-11.79,58.71-20.01c0,0-1,1.67-3.92,3.47c-5.86,3.62-17.35,9.58-29.34,16.35
						C296.08,289.19,287.63,297.82,286.57,303.09z"/>
					<path class="st20" d="M313.91,224.2c3.4-1.08,16.76-3.44,21.61,2.12c4.85,5.56,5.13,0.3,3.14-2.06
						c-2-2.36-4.03-8.45-3.72-10.45c-1.36,3.3-2.12,4.57-3,5.49C330.39,220.05,329.65,219.06,313.91,224.2z"/>
					<path class="st20" d="M357.12,150.77c-1.21,1.77,6.77,8.27,18.03,11.84c11.26,3.57,17.33,4.06,17.93,2.74
						c0,0,0.47,1.03-4.34,13.54c0,0,2.4-8.76-2.76-9.2c-6.1-0.51-19.78-3.98-27.44-13.1c-1.72-2.04-3.03-1.2-5.52,3.51
						C355.34,153.8,356,151.71,357.12,150.77z"/>
					<path class="st20" d="M205.98,291.97c0,0-8.58,20.1-5.37,24.8c3.21,4.7,10.13,5.86,10.13,9.06c0,3.21-7.57-0.73-7.14,2.48
						c0.3,2.24,23.56,22.54,28.72,30.43c2.23,3.41-0.71,12.23-0.07,13.53l-2.65-0.12c3.57-7.28,2.94-11.7-3.12-14.84
						c-16.89-9.64-33.07-33.63-33.07-33.63s-0.47-2.96,0.29-5C197.69,308,205.98,291.97,205.98,291.97z"/>
					<path class="st20" d="M284.1,315.28c-3.1,7.05-15.94,22.23-15.08,27.79c0.86,5.56,11.36,10.28,10.49,19.04
						C279.52,362.11,279.58,334.73,284.1,315.28z"/>
					<path class="st20" d="M242.45,282.06c5.27,4.13,27.61,7.63,35.88-5.06c8.27-12.69,5.03-23.02,5.03-23.02l-38.47,22.07
						L242.45,282.06z"/>
					<path class="st20" d="M145.23,333.8c0.43,6.27,59.78,61.69,71.01,53.8c0,0-8.72,7.78-16.14,6.64
						c-4.85-0.57-39.33-28.14-50.17-45.43C143.67,339.22,145.02,335.13,145.23,333.8z"/>
					<path class="st3" d="M272.69,156.6c2.79,12.51,0.62,14.64,6.6,25.05c4.56,7.93,14.21,24.28,4.84,35.99
						c-3.16,3.95-8.79,7-9.17,12.57c-0.28,4.23,2.85,8.34,4.51,12.08c3.41,7.68,6.86,17.97,1.9,25.61
						c-4.21,6.48-11.56,10.83-18.77,11.73c-8.79,1.1-18.87-1.04-22.81-9.98c-4.28-9.73,2.26-17.31,8.77-23.57
						c2.93-2.82,6.55-5.24,6.97-9.69c0.43-4.58-2.02-7.81-4.29-11.59c-10.56-17.56,17.16-29.2,17.61-44.12
						c0.21-6.83-2.94-9.78,0.27-15.98C269.12,164.7,272.68,156.59,272.69,156.6z"/>
					<path class="st4" d="M249.12,219.52c10.05,5.76,17.59,8.42,17.65,12.47c0.05,4.05-23.16,15.67-27.73,27.34
						c0.02-0.5,0.02-0.5,0.02-0.5s-1.14-5.63,4.31-13.52c3.02-4.37,7.34-7.71,8.56-13.19C252.59,229.14,249.28,223.99,249.12,219.52
						z"/>
					<path class="st3" d="M249.84,314.68c0,2.45-1.86,4.44-4.16,4.44c-2.3,0-4.16-1.98-4.16-4.44c0-2.45,1.86-4.44,4.16-4.44
						C247.98,310.25,249.84,312.23,249.84,314.68z"/>
					<path class="st3" d="M247.8,352.12c0,2.45-1.86,4.44-4.16,4.44c-2.3,0-4.16-1.99-4.16-4.44c0-2.45,1.86-4.44,4.16-4.44
						C245.94,347.68,247.8,349.67,247.8,352.12z"/>
					<path class="st3" d="M243.08,315.84c0-0.43,0.88,0.81,2.59,0.81c1.79,0,2.59-1.14,2.59-0.81c0,1.15-1.16,2.08-2.59,2.08
						C244.25,317.91,243.08,316.98,243.08,315.84z"/>
					<path class="st3" d="M241.05,353.27c0-0.43,0.88,0.81,2.59,0.81c1.79,0,2.59-1.14,2.59-0.81c0,1.15-1.16,2.08-2.59,2.08
						C242.21,355.35,241.05,354.42,241.05,353.27z"/>
					<path class="st19" d="M243.08,315.84c0-0.43,0.88,0.81,2.59,0.81c1.79,0,2.59-1.14,2.59-0.81c0,1.15-1.16,2.08-2.59,2.08
						C244.25,317.91,243.08,316.98,243.08,315.84z"/>
					<path class="st19" d="M241.05,353.27c0-0.43,0.88,0.81,2.59,0.81c1.79,0,2.59-1.14,2.59-0.81c0,1.15-1.16,2.08-2.59,2.08
						C242.21,355.35,241.05,354.42,241.05,353.27z"/>
				</g>
			</g>
			<rect x="89.47" y="341.73" class="st21" width="338.55" height="23.94"/>
			<rect x="89.47" y="339.43" class="st17" width="41.61" height="2.3"/>
			<rect x="142.09" y="339.43" class="st22" width="283.17" height="2.3"/>
			<rect x="131.71" y="339.43" class="st23" width="10.38" height="2.3"/>
			<g>
				<polyline class="st24" points="410.52,347.72 407.53,347.72 407.53,350.7 				"/>
				<polyline class="st24" points="416.74,350.7 416.74,347.72 413.75,347.72 				"/>
				<polyline class="st24" points="413.75,356.93 416.74,356.93 416.74,353.95 				"/>
				<polyline class="st24" points="407.53,353.95 407.53,356.93 410.52,356.93 				"/>
			</g>
			<rect x="392.18" y="350.87" class="st25" width="8.14" height="6.06"/>
			<g>
				<path class="st5" d="M87.72,123.19c-2.75,0-5,1.73-5,3.84c0,2.11,0,6.09,0,8.84v228.48c0,2.75,2.25,5,5,5h339.29
					c2.75,0,5-2.25,5-5V128.19c0-2.75-2.25-5-5-5h-20.57c-2.75,0-5.2,1.66-5.43,3.68c-0.24,2.03,1.82,3.68,4.57,3.68h14.68
					c2.75,0,5,2.25,5,5v221.43c0,2.75-2.25,5-5,5H94.47c-2.75,0-5-2.25-5-5V135.56c0-2.75,2.25-5,5-5H351.7
					c2.75,0,4.98-1.66,4.95-3.68c-0.03-2.03-2.3-3.68-5.05-3.68H87.72z"/>
			</g>
			<g>
				<path class="st16" d="M450.59,308.14c-3.27,4.37-44.15,14.77-50.17,14.1c-6.02-0.67-14.84-28.15-11.42-35.3
					c3.42-7.15,47.34-18.09,52.25-15.05C446.16,274.94,453.85,303.78,450.59,308.14z"/>
				<path class="st3" d="M426.3,293.94l-11.6-4.87c-1.37-0.58-2.82,0.66-2.45,2.11l3.68,14.64c0.36,1.44,2.22,1.86,3.16,0.7
					l7.93-9.77C427.77,295.81,427.41,294.4,426.3,293.94z"/>
			</g>
			<path class="st16" d="M193.53,198.63h-18.7c-4.61,0-8.39,3.77-8.39,8.39v8.48c0,4.61,3.77,8.39,8.39,8.39h13.96l2.66,3.44
				c0.55,0.71,1.67,0.59,2.04-0.23l1.53-3.35c3.91-0.71,6.89-4.14,6.89-8.25v-8.48C201.91,202.4,198.14,198.63,193.53,198.63z
				 M174.82,213.86c-1.28,0-2.31-1.04-2.31-2.32c0-1.28,1.04-2.31,2.31-2.31c1.28,0,2.31,1.04,2.31,2.31
				C177.14,212.82,176.1,213.86,174.82,213.86z M184.22,213.86c-1.28,0-2.31-1.04-2.31-2.32c0-1.28,1.04-2.31,2.31-2.31
				c1.28,0,2.31,1.04,2.31,2.31C186.54,212.82,185.5,213.86,184.22,213.86z M193.62,213.86c-1.28,0-2.31-1.04-2.31-2.32
				c0-1.28,1.04-2.31,2.31-2.31c1.28,0,2.31,1.04,2.31,2.31C195.94,212.82,194.9,213.86,193.62,213.86z"/>
			<g>
				<g>
					<g>
						<path class="st16" d="M317.28,317.71l0.12,0.04l13.44,4.74l7.78-11.94l0.07-0.11c2.08-3.19,1.17-7.5-2.02-9.58
							c-3.19-2.08-7.5-1.17-9.58,2.02l-1.91,2.93l-3.29-1.16c-3.59-1.27-7.57,0.64-8.83,4.23
							C311.79,312.47,313.69,316.44,317.28,317.71z"/>
					</g>
				</g>
			</g>
			<g>
				<g>
					<g>
						<path class="st16" d="M392.96,227.35l0.05,0.07l5.34,8.12l9.15-3.27l0.08-0.03c2.45-0.87,3.73-3.59,2.86-6.04
							c-0.87-2.45-3.59-3.73-6.04-2.86l-2.24,0.8l-1.31-1.99c-1.43-2.17-4.37-2.78-6.54-1.35
							C392.14,222.24,391.53,225.18,392.96,227.35z"/>
					</g>
				</g>
			</g>
			<g>
				<g>
					<g>
						<path class="st16" d="M125.91,179.89l0.08,0.03l9.16,3.25l5.32-8.13l0.05-0.07c1.42-2.17,0.8-5.12-1.37-6.54
							c-2.17-1.42-5.12-0.81-6.54,1.37l-1.3,1.99l-2.25-0.8c-2.45-0.87-5.16,0.42-6.03,2.87
							C122.17,176.31,123.47,179.03,125.91,179.89z"/>
					</g>
				</g>
			</g>
		</g>
		<g>
			<path class="st26" d="M163.75,402.36c0,10.6-24.31,19.2-54.29,19.2c-29.98,0-54.29-8.6-54.29-19.2c0-10.6,24.31-19.2,54.29-19.2
				C139.44,383.16,163.75,391.75,163.75,402.36z"/>
			<g>
				<rect x="105.76" y="261.22" class="st27" width="6.2" height="12.12"/>
				<g>
					<g>
						<path class="st5" d="M115.44,199.55c-0.23-1.08-1.32-1.96-2.42-1.96h-12.5c-1.1,0-2.19,0.88-2.42,1.96l-1.96,9.16
							c-0.23,1.08,0.48,1.96,1.58,1.96h18.1c1.1,0,1.81-0.88,1.58-1.96L115.44,199.55z"/>
					</g>
					<g>
						<path d="M111.91,204.31c0,1.1-0.9,2-2,2h-6.43c-1.1,0-2-0.9-2-2v-1.76c0-1.1,0.9-2,2-2h6.43c1.1,0,2,0.9,2,2V204.31z"/>
					</g>
					<g>
						<path class="st5" d="M149.1,254.72c0,2.75-2.25,5-5,5H71.92c-2.75,0-5-2.25-5-5v-42.48c0-2.75,2.25-5,5-5h72.17
							c2.75,0,5,2.25,5,5V254.72z"/>
					</g>
					<g>
						<path class="st28" d="M149.1,256.88c0,2.75-2.25,5-5,5H71.92c-2.75,0-5-2.25-5-5v-42.48c0-2.75,2.25-5,5-5h72.17
							c2.75,0,5,2.25,5,5V256.88z"/>
					</g>
					<g>
						<path class="st28" d="M117.82,249.73c0,2.75-2.25,5-5,5H77.06c-2.75,0-5-2.25-5-5v-23.1c0-2.75,2.25-5,5-5h35.76
							c2.75,0,5,2.25,5,5V249.73z"/>
					</g>
					<g>
						<path class="st1" d="M117.82,251.62c0,2.75-2.25,5-5,5H77.06c-2.75,0-5-2.25-5-5v-23.1c0-2.75,2.25-5,5-5h35.76
							c2.75,0,5,2.25,5,5V251.62z"/>
					</g>
					<polygon class="st16" points="86.85,256.62 82.18,256.62 92.61,223.52 97.27,223.52 					"/>
					<polygon class="st16" points="76.97,256.62 76.11,256.62 86.54,223.52 87.39,223.52 					"/>
					<polygon class="st16" points="102.8,256.62 89.73,256.62 100.15,223.52 113.22,223.52 					"/>
					<g>
						<path class="st4" d="M131.66,216.49c0,0.88-0.9,1.6-2,1.6h-1.8c-1.1,0-2-0.72-2-1.6s0.9-1.6,2-1.6h1.8
							C130.76,214.89,131.66,215.61,131.66,216.49z"/>
					</g>
					<g>
						<path class="st4" d="M140.18,216.49c0,0.88-0.9,1.6-2,1.6h-1.8c-1.1,0-2-0.72-2-1.6s0.9-1.6,2-1.6h1.8
							C139.28,214.89,140.18,215.61,140.18,216.49z"/>
					</g>
					<g>
						<path class="st4" d="M131.66,221.91c0,0.88-0.9,1.6-2,1.6h-1.8c-1.1,0-2-0.72-2-1.6s0.9-1.6,2-1.6h1.8
							C130.76,220.31,131.66,221.03,131.66,221.91z"/>
					</g>
					<g>
						<path class="st4" d="M140.18,221.91c0,0.88-0.9,1.6-2,1.6h-1.8c-1.1,0-2-0.72-2-1.6s0.9-1.6,2-1.6h1.8
							C139.28,220.31,140.18,221.03,140.18,221.91z"/>
					</g>
					<g>
						<path class="st4" d="M131.66,227.34c0,0.88-0.9,1.6-2,1.6h-1.8c-1.1,0-2-0.72-2-1.6c0-0.88,0.9-1.6,2-1.6h1.8
							C130.76,225.74,131.66,226.46,131.66,227.34z"/>
					</g>
					<g>
						<path class="st4" d="M140.18,227.34c0,0.88-0.9,1.6-2,1.6h-1.8c-1.1,0-2-0.72-2-1.6c0-0.88,0.9-1.6,2-1.6h1.8
							C139.28,225.74,140.18,226.46,140.18,227.34z"/>
					</g>
					<path class="st28" d="M141.71,244.69c0,5.03-4.08,9.1-9.1,9.1c-5.03,0-9.11-4.08-9.11-9.1c0-5.03,4.08-9.11,9.11-9.11
						C137.64,235.59,141.71,239.66,141.71,244.69z"/>
					<path class="st5" d="M140.18,244.69c0,4.18-3.39,7.57-7.57,7.57c-4.18,0-7.57-3.39-7.57-7.57c0-4.18,3.39-7.57,7.57-7.57
						C136.79,237.12,140.18,240.51,140.18,244.69z"/>
					<path class="st28" d="M138.08,244.69c0,3.02-2.45,5.47-5.47,5.47c-3.02,0-5.47-2.45-5.47-5.47c0-3.02,2.45-5.47,5.47-5.47
						C135.63,239.22,138.08,241.67,138.08,244.69z"/>
				</g>
				<rect x="98.32" y="272.08" class="st27" width="21.07" height="2.54"/>
				<path class="st27" d="M120.66,273.34c0,0.7-0.57,1.27-1.27,1.27c-0.7,0-1.27-0.57-1.27-1.27c0-0.7,0.57-1.27,1.27-1.27
					C120.09,272.08,120.66,272.64,120.66,273.34z"/>
				<path class="st27" d="M99.81,273.34c0,0.7-0.57,1.27-1.27,1.27c-0.7,0-1.27-0.57-1.27-1.27c0-0.7,0.57-1.27,1.27-1.27
					C99.24,272.08,99.81,272.64,99.81,273.34z"/>
				<rect x="98.32" y="278.02" class="st27" width="21.07" height="2.54"/>
				<path class="st27" d="M120.66,279.29c0,0.7-0.57,1.27-1.27,1.27c-0.7,0-1.27-0.57-1.27-1.27c0-0.7,0.57-1.27,1.27-1.27
					C120.09,278.02,120.66,278.59,120.66,279.29z"/>
				<path class="st27" d="M99.81,279.29c0,0.7-0.57,1.27-1.27,1.27c-0.7,0-1.27-0.57-1.27-1.27c0-0.7,0.57-1.27,1.27-1.27
					C99.24,278.02,99.81,278.59,99.81,279.29z"/>
				<rect x="99.07" y="273.34" class="st27" width="19.58" height="5.94"/>
				<line class="st29" x1="105.76" y1="279.29" x2="66.92" y2="401.27"/>
				<line class="st29" x1="152.02" y1="401.27" x2="113.19" y2="279.29"/>
				<line class="st29" x1="109.45" y1="280.41" x2="109.45" y2="411"/>
			</g>
		</g>
	</g>
</g>
</svg>
