<?xml version="1.0" encoding="utf-8"?>
<!-- Generator: Adobe Illustrator 26.0.3, SVG Export Plug-In . SVG Version: 6.00 Build 0)  -->
<svg version="1.1" xmlns="http://www.w3.org/2000/svg" xmlns:xlink="http://www.w3.org/1999/xlink" x="0px" y="0px"
	 viewBox="0 0 500 500" style="enable-background:new 0 0 500 500;" xml:space="preserve">
<style type="text/css">
	.st0{fill:url(#SVGID_1_);}
	.st1{fill:url(#SVGID_00000059291376836517041610000005098705122635949993_);}
	.st2{fill:#C8E9F2;}
	.st3{fill:url(#SVGID_00000135667759903892888150000007225965266918716854_);}
	.st4{fill:#FFFFFF;}
	.st5{fill:#1D5B25;}
	.st6{fill:url(#SVGID_00000021080236625850942200000006335189752731645112_);}
	.st7{fill:url(#SVGID_00000076575161045644240070000003390125570399071931_);}
	.st8{fill:#F9ED32;}
	.st9{fill:url(#SVGID_00000143610133495454707830000000180434164720732551_);}
	.st10{fill:url(#SVGID_00000020394774560027464530000016368709699643891358_);}
	.st11{fill:url(#SVGID_00000013897075715755294240000013709420909493378713_);}
	.st12{fill:#FBB040;}
	.st13{fill:url(#SVGID_00000152984275832964606970000003333977004311159703_);}
</style>
<g id="Layer_2">
</g>
<g id="Layer_3">
</g>
<g id="Layer_4">
	<g>
		<g>
			<linearGradient id="SVGID_1_" gradientUnits="userSpaceOnUse" x1="371.2314" y1="217.4932" x2="406.4986" y2="217.4932">
				<stop  offset="0" style="stop-color:#5EC3B9"/>
				<stop  offset="1" style="stop-color:#C8E9F2"/>
			</linearGradient>
			<polygon class="st0" points="386.49,233.14 371.23,242.22 391.24,201.85 406.5,192.77 			"/>
		</g>
		
			<linearGradient id="SVGID_00000045609389326189533880000001823748996493798287_" gradientUnits="userSpaceOnUse" x1="457.2632" y1="218.8324" x2="379.0301" y2="268.2654">
			<stop  offset="0" style="stop-color:#5EC3B9"/>
			<stop  offset="1" style="stop-color:#C8E9F2"/>
		</linearGradient>
		<polygon style="fill:url(#SVGID_00000045609389326189533880000001823748996493798287_);" points="386.49,233.14 371.23,242.22 
			369.84,244.1 409.06,276.55 413.3,277.03 428.55,267.95 		"/>
		<g>
			<polygon class="st2" points="392.1,230.85 386.49,233.14 406.5,192.77 410.74,193.25 			"/>
		</g>
		<g>
			<polygon class="st2" points="431.31,263.3 428.55,267.95 386.49,233.14 392.1,230.85 			"/>
		</g>
		<g>
			<g>
				
					<linearGradient id="SVGID_00000125586953429209475200000011828185949272678329_" gradientUnits="userSpaceOnUse" x1="392.0953" y1="228.2737" x2="449.9529" y2="228.2737">
					<stop  offset="0" style="stop-color:#5EC3B9"/>
					<stop  offset="1" style="stop-color:#C8E9F2"/>
				</linearGradient>
				<polygon style="fill:url(#SVGID_00000125586953429209475200000011828185949272678329_);" points="410.74,193.25 449.95,225.69 
					431.31,263.3 392.1,230.85 				"/>
				<path class="st4" d="M431.42,263.81l-39.73-32.87l18.94-38.2l39.73,32.87L431.42,263.81z M392.5,230.77l38.7,32.02l18.35-37.01
					l-38.7-32.02L392.5,230.77z"/>
			</g>
		</g>
		<g>
			<polygon class="st5" points="262.23,252.63 260.84,254.51 314.85,145.55 317.6,140.9 			"/>
		</g>
		
			<linearGradient id="SVGID_00000090272392819026442230000015906337125541391550_" gradientUnits="userSpaceOnUse" x1="362.2313" y1="281.7977" x2="261.6495" y2="323.062">
			<stop  offset="0" style="stop-color:#0C2F15"/>
			<stop  offset="0.43" style="stop-color:#32B34A"/>
			<stop  offset="0.76" style="stop-color:#B8D442"/>
			<stop  offset="1" style="stop-color:#EEE82A"/>
		</linearGradient>
		<polygon style="fill:url(#SVGID_00000090272392819026442230000015906337125541391550_);" points="277.48,243.55 262.23,252.63 
			260.84,254.51 373.69,347.9 377.93,348.38 393.18,339.3 		"/>
		<g>
			
				<linearGradient id="SVGID_00000106840420012763935720000009347642512994781098_" gradientUnits="userSpaceOnUse" x1="262.2265" y1="192.2273" x2="332.8585" y2="192.2273">
				<stop  offset="0" style="stop-color:#0C2F15"/>
				<stop  offset="0.43" style="stop-color:#32B34A"/>
				<stop  offset="0.76" style="stop-color:#B8D442"/>
				<stop  offset="1" style="stop-color:#EEE82A"/>
			</linearGradient>
			<polygon style="fill:url(#SVGID_00000106840420012763935720000009347642512994781098_);" points="277.48,243.55 262.23,252.63 
				317.6,140.9 332.86,131.82 			"/>
		</g>
		<g>
			<polygon class="st8" points="283.09,241.27 277.48,243.55 332.86,131.82 337.1,132.3 			"/>
		</g>
		<g>
			<polygon class="st8" points="395.94,334.65 393.18,339.3 277.48,243.55 283.09,241.27 			"/>
		</g>
		<g>
			
				<linearGradient id="SVGID_00000052807484253521241560000013788105703857129356_" gradientUnits="userSpaceOnUse" x1="423.5167" y1="195.7112" x2="283.3888" y2="288.557">
				<stop  offset="0" style="stop-color:#0C2F15"/>
				<stop  offset="0.08" style="stop-color:#32B34A"/>
				<stop  offset="0.57" style="stop-color:#B8D442"/>
				<stop  offset="1" style="stop-color:#EEE82A"/>
			</linearGradient>
			<polygon style="fill:url(#SVGID_00000052807484253521241560000013788105703857129356_);" points="337.1,132.3 383.91,171.04 
				351.28,236.86 417.33,291.52 395.94,334.65 283.09,241.27 			"/>
			<path class="st4" d="M396.05,335.16l-0.31-0.26l-113.05-93.55l0.11-0.23l54.19-109.33l47.32,39.16l-32.63,65.82l66.04,54.65
				L396.05,335.16z M283.49,241.18l112.34,92.96l21.09-42.54l-66.04-54.65l32.63-65.82l-46.3-38.31L283.49,241.18z"/>
		</g>
		<g>
			<polygon class="st5" points="152.31,68.85 150.24,72.11 172.3,27.6 175.06,22.95 			"/>
		</g>
		<g>
			<polygon class="st5" points="119.65,134.73 117.58,137.99 150.24,72.11 152.31,68.85 			"/>
		</g>
		<g>
			<g>
				<polygon class="st5" points="51.03,273.16 49.64,275.05 117.58,137.99 119.65,134.73 				"/>
			</g>
			
				<linearGradient id="SVGID_00000111886497269411077670000008125070309569078698_" gradientUnits="userSpaceOnUse" x1="269.5902" y1="277.1645" x2="134.183" y2="439.653">
				<stop  offset="0" style="stop-color:#ED342B"/>
				<stop  offset="1" style="stop-color:#EEE82A"/>
			</linearGradient>
			<polygon style="fill:url(#SVGID_00000111886497269411077670000008125070309569078698_);" points="274.87,436.7 209.16,382.32 
				66.29,264.08 51.03,273.16 49.64,275.05 191.1,392.1 256.78,446.46 305.38,485.7 309.63,486.16 324.89,477.08 			"/>
			
				<linearGradient id="SVGID_00000176011556347980209770000013159441347904001962_" gradientUnits="userSpaceOnUse" x1="51.0314" y1="143.518" x2="190.3136" y2="143.518">
				<stop  offset="0" style="stop-color:#ED342B"/>
				<stop  offset="1" style="stop-color:#EEE82A"/>
			</linearGradient>
			<polygon style="fill:url(#SVGID_00000176011556347980209770000013159441347904001962_);" points="175.06,22.95 152.31,68.85 
				119.65,134.73 51.03,273.16 66.29,264.08 134.91,125.65 167.56,59.77 190.31,13.87 			"/>
			<polygon class="st12" points="279.03,433.21 213.35,378.85 71.9,261.8 66.29,264.08 209.16,382.32 274.87,436.7 324.89,477.08 
				327.64,472.45 			"/>
			<g>
				<g>
					
						<linearGradient id="SVGID_00000163043896753387388920000017182890931105563567_" gradientUnits="userSpaceOnUse" x1="71.8957" y1="243.4014" x2="381.6841" y2="243.4014">
						<stop  offset="0" style="stop-color:#ED342B"/>
						<stop  offset="1" style="stop-color:#EEE82A"/>
					</linearGradient>
					<polygon style="fill:url(#SVGID_00000163043896753387388920000017182890931105563567_);" points="194.55,14.35 307.41,107.74 
						239.15,245.46 381.68,363.42 327.64,472.45 279.03,433.21 213.35,378.85 71.9,261.8 139.83,124.75 172.49,58.87 					"/>
					<path class="st4" d="M327.75,472.95l-48.92-39.49l-65.69-54.36L71.49,261.89l0.11-0.23L194.45,13.84l113.37,93.81l-0.11,0.23
						l-68.15,137.49l142.54,117.95L327.75,472.95z M72.3,261.71L213.55,378.6l65.69,54.36l48.29,38.98l53.76-108.45L238.74,245.55
						l0.11-0.23l68.15-137.49L194.66,14.86L72.3,261.71z"/>
				</g>
			</g>
			<polygon class="st12" points="190.31,13.87 167.56,59.77 134.91,125.65 66.29,264.08 71.9,261.8 139.83,124.75 172.49,58.87 
				194.55,14.35 			"/>
		</g>
	</g>
</g>
</svg>
