<?xml version="1.0" encoding="utf-8"?>
<!-- Generator: Adobe Illustrator 26.0.3, SVG Export Plug-In . SVG Version: 6.00 Build 0)  -->
<svg version="1.1" xmlns="http://www.w3.org/2000/svg" xmlns:xlink="http://www.w3.org/1999/xlink" x="0px" y="0px"
	 viewBox="0 0 500 500" style="enable-background:new 0 0 500 500;" xml:space="preserve">
<style type="text/css">
	.st0{enable-background:new    ;}
	.st1{fill:#3475B9;}
	.st2{fill:#14B0BF;}
	.st3{fill:#4596A3;}
	.st4{fill:#7DC1D1;}
	.st5{fill:#184F78;}
	.st6{fill:#CCEAF2;}
	.st7{fill:#DD4919;}
	.st8{fill:#FFFFFF;}
	.st9{fill:#95D8E9;}
	.st10{fill:#DE3F18;}
	.st11{fill:#E3A327;}
	.st12{fill:#FFA001;}
	.st13{fill:#2EAEB7;}
	.st14{fill:#F5B285;}
	.st15{fill:#FFC19C;}
	.st16{fill:#FFDFCF;}
	.st17{fill:#D1783D;}
</style>
<g id="Layer_2">
	<g>
		<g>
			<g>
				<g>
					<g class="st0">
						<g>
							<polygon class="st1" points="36.46,359.95 36.49,372.41 175.62,451.5 175.58,439.05 							"/>
						</g>
						<g>
							<polygon class="st1" points="175.58,439.05 175.62,451.5 396.77,323.28 396.73,310.82 							"/>
						</g>
						<g>
							<polygon class="st2" points="36.46,359.95 175.58,439.05 396.73,310.82 257.6,231.73 							"/>
						</g>
					</g>
				</g>
				<g>
					<g class="st0">
						<g>
							<polygon class="st3" points="272.93,265.41 272.95,269.56 289.87,279.39 289.86,275.25 							"/>
						</g>
						<g>
							<polygon class="st3" points="289.86,275.25 289.87,279.39 308.74,268.51 308.72,264.35 							"/>
						</g>
					</g>
					<g class="st0">
						<g>
							<polygon class="st3" points="242.43,283.02 242.44,287.16 259.37,297.01 259.36,292.86 							"/>
						</g>
						<g>
							<polygon class="st3" points="259.36,292.86 259.37,297.01 278.23,286.12 278.22,281.96 							"/>
						</g>
					</g>
					<g class="st0">
						<g>
							<polygon class="st3" points="211.9,300.65 211.91,304.8 228.84,314.64 228.83,310.48 							"/>
						</g>
						<g>
							<polygon class="st3" points="228.83,310.48 228.84,314.64 247.7,303.74 247.69,299.59 							"/>
						</g>
					</g>
					<g class="st0">
						<g>
							<polygon class="st3" points="181.39,318.25 181.4,322.41 198.33,332.25 198.32,328.09 							"/>
						</g>
						<g>
							<polygon class="st3" points="198.32,328.09 198.33,332.25 217.19,321.36 217.18,317.2 							"/>
						</g>
					</g>
					<g class="st0">
						<g>
							<polygon class="st3" points="150.86,335.89 150.87,340.04 167.8,349.87 167.78,345.73 							"/>
						</g>
						<g>
							<polygon class="st3" points="167.78,345.73 167.8,349.87 186.69,338.96 186.68,334.81 							"/>
						</g>
					</g>
					<g class="st0">
						<g>
							<polygon class="st3" points="120.35,353.49 120.37,357.65 137.3,367.48 137.29,363.33 							"/>
						</g>
						<g>
							<polygon class="st3" points="137.29,363.33 137.3,367.48 156.16,356.6 156.14,352.45 							"/>
						</g>
					</g>
					<g class="st0">
						<g>
							<polygon class="st3" points="89.85,371.1 89.86,375.26 106.79,385.1 106.78,380.95 							"/>
						</g>
						<g>
							<polygon class="st3" points="106.78,380.95 106.79,385.1 125.66,374.2 125.64,370.06 							"/>
						</g>
					</g>
					<g class="st0">
						<g>
							<polygon class="st3" points="305.73,284.46 305.74,288.61 322.64,298.43 322.62,294.28 							"/>
						</g>
						<g>
							<polygon class="st3" points="322.62,294.28 322.64,298.43 341.49,287.54 341.48,283.4 							"/>
						</g>
					</g>
					<g class="st0">
						<g>
							<polygon class="st3" points="339.55,304.12 339.56,308.27 356.49,318.11 356.48,313.96 							"/>
						</g>
						<g>
							<polygon class="st3" points="356.48,313.96 356.49,318.11 375.35,307.22 375.34,303.07 							"/>
						</g>
					</g>
					<g class="st0">
						<g>
							<polygon class="st3" points="275.22,302.07 275.23,306.22 292.13,316.05 292.12,311.89 							"/>
						</g>
						<g>
							<polygon class="st3" points="292.12,311.89 292.13,316.05 310.99,305.15 310.98,301 							"/>
						</g>
					</g>
					<g class="st0">
						<g>
							<polygon class="st3" points="244.69,319.7 244.7,323.85 261.59,333.67 261.58,329.52 							"/>
						</g>
						<g>
							<polygon class="st3" points="261.58,329.52 261.59,333.67 280.46,322.78 280.45,318.63 							"/>
						</g>
					</g>
					<g class="st0">
						<g>
							<polygon class="st3" points="214.19,337.31 214.2,341.46 231.09,351.28 231.08,347.13 							"/>
						</g>
						<g>
							<polygon class="st3" points="231.08,347.13 231.09,351.28 249.95,340.39 249.94,336.24 							"/>
						</g>
					</g>
					<g class="st0">
						<g>
							<polygon class="st3" points="183.65,354.94 183.66,359.09 200.56,368.91 200.55,364.76 							"/>
						</g>
						<g>
							<polygon class="st3" points="200.55,364.76 200.56,368.91 219.45,358 219.44,353.85 							"/>
						</g>
					</g>
					<g class="st0">
						<g>
							<polygon class="st3" points="153.14,372.55 153.16,376.7 170.06,386.52 170.04,382.36 							"/>
						</g>
						<g>
							<polygon class="st3" points="170.04,382.36 170.06,386.52 188.92,375.63 188.9,371.48 							"/>
						</g>
					</g>
					<g class="st0">
						<g>
							<polygon class="st3" points="122.65,390.16 122.66,394.32 139.56,404.13 139.54,399.98 							"/>
						</g>
						<g>
							<polygon class="st3" points="139.54,399.98 139.56,404.13 158.42,393.24 158.4,389.08 							"/>
						</g>
					</g>
					<g class="st0">
						<g>
							<polygon class="st3" points="186.82,392.3 186.83,396.46 203.75,406.29 203.74,402.14 							"/>
						</g>
						<g>
							<polygon class="st3" points="203.74,402.14 203.75,406.29 344.85,324.83 344.84,320.68 							"/>
						</g>
					</g>
					<g class="st0">
						<g>
							<polygon class="st3" points="156.47,409.82 156.49,413.97 173.42,423.81 173.4,419.67 							"/>
						</g>
						<g>
							<polygon class="st3" points="173.4,419.67 173.42,423.81 192.27,412.92 192.26,408.76 							"/>
						</g>
					</g>
					<g>
						<polygon class="st4" points="272.93,265.41 289.86,275.25 308.72,264.35 291.79,254.52 						"/>
					</g>
					<g>
						<polygon class="st4" points="242.43,283.02 259.36,292.86 278.22,281.96 261.29,272.13 						"/>
					</g>
					<g>
						<polygon class="st4" points="211.9,300.65 228.83,310.48 247.69,299.59 230.76,289.75 						"/>
					</g>
					<g>
						<polygon class="st4" points="181.39,318.25 198.32,328.09 217.18,317.2 200.25,307.36 						"/>
					</g>
					<g>
						<polygon class="st4" points="150.86,335.89 167.78,345.73 186.68,334.81 169.75,324.98 						"/>
					</g>
					<g>
						<polygon class="st4" points="120.35,353.49 137.29,363.33 156.14,352.45 139.22,342.6 						"/>
					</g>
					<g>
						<polygon class="st4" points="89.85,371.1 106.78,380.95 125.64,370.06 108.72,360.21 						"/>
					</g>
					<g class="st0">
						<g>
							<polygon class="st3" points="242.73,246.73 242.74,250.88 259.66,260.72 259.66,256.57 							"/>
						</g>
						<g>
							<polygon class="st3" points="259.66,256.57 259.66,260.72 278.53,249.83 278.51,245.68 							"/>
						</g>
					</g>
					<g class="st0">
						<g>
							<polygon class="st3" points="212.22,264.34 212.24,268.49 229.16,278.33 229.16,274.18 							"/>
						</g>
						<g>
							<polygon class="st3" points="229.16,274.18 229.16,278.33 248.02,267.44 248.01,263.29 							"/>
						</g>
					</g>
					<g class="st0">
						<g>
							<polygon class="st3" points="181.69,281.97 181.7,286.12 198.63,295.96 198.62,291.8 							"/>
						</g>
						<g>
							<polygon class="st3" points="198.62,291.8 198.63,295.96 217.49,285.07 217.48,280.91 							"/>
						</g>
					</g>
					<g class="st0">
						<g>
							<polygon class="st3" points="151.18,299.57 151.2,303.73 168.13,313.57 168.12,309.41 							"/>
						</g>
						<g>
							<polygon class="st3" points="168.12,309.41 168.13,313.57 186.99,302.68 186.98,298.53 							"/>
						</g>
					</g>
					<g class="st0">
						<g>
							<polygon class="st3" points="120.65,317.21 120.66,321.36 137.59,331.2 137.58,327.05 							"/>
						</g>
						<g>
							<polygon class="st3" points="137.58,327.05 137.59,331.2 156.48,320.29 156.47,316.14 							"/>
						</g>
					</g>
					<g class="st0">
						<g>
							<polygon class="st3" points="90.15,334.82 90.16,338.97 107.09,348.81 107.08,344.66 							"/>
						</g>
						<g>
							<polygon class="st3" points="107.08,344.66 107.09,348.81 125.95,337.92 125.94,333.77 							"/>
						</g>
					</g>
					<g class="st0">
						<g>
							<polygon class="st3" points="59.65,352.43 59.66,356.59 76.58,366.42 76.57,362.27 							"/>
						</g>
						<g>
							<polygon class="st3" points="76.57,362.27 76.58,366.42 95.45,355.52 95.44,351.38 							"/>
						</g>
					</g>
					<g>
						<polygon class="st4" points="242.73,246.73 259.66,256.57 278.51,245.68 261.58,235.84 						"/>
					</g>
					<g>
						<polygon class="st4" points="212.22,264.34 229.16,274.18 248.01,263.29 231.09,253.45 						"/>
					</g>
					<g>
						<polygon class="st4" points="181.69,281.97 198.62,291.8 217.48,280.91 200.55,271.08 						"/>
					</g>
					<g>
						<polygon class="st4" points="151.18,299.57 168.12,309.41 186.98,298.53 170.04,288.69 						"/>
					</g>
					<g>
						<polygon class="st4" points="120.65,317.21 137.58,327.05 156.47,316.14 139.54,306.3 						"/>
					</g>
					<g>
						<polygon class="st4" points="90.15,334.82 107.08,344.66 125.94,333.77 109.01,323.93 						"/>
					</g>
					<g>
						<polygon class="st4" points="59.65,352.43 76.57,362.27 95.44,351.38 78.51,341.54 						"/>
					</g>
					<g>
						<polygon class="st4" points="305.73,284.46 322.62,294.28 341.48,283.4 324.58,273.57 						"/>
					</g>
					<g>
						<polygon class="st4" points="339.55,304.12 356.48,313.96 375.34,303.07 358.41,293.23 						"/>
					</g>
					<g>
						<polygon class="st4" points="275.22,302.07 292.12,311.89 310.98,301 294.09,291.18 						"/>
					</g>
					<g>
						<polygon class="st4" points="244.69,319.7 261.58,329.52 280.45,318.63 263.55,308.81 						"/>
					</g>
					<g>
						<polygon class="st4" points="214.19,337.31 231.08,347.13 249.94,336.24 233.05,326.42 						"/>
					</g>
					<g>
						<polygon class="st4" points="183.65,354.94 200.55,364.76 219.44,353.85 202.54,344.03 						"/>
					</g>
					<g>
						<polygon class="st4" points="153.14,372.55 170.04,382.36 188.9,371.48 172.01,361.66 						"/>
					</g>
					<g>
						<polygon class="st4" points="122.65,390.16 139.54,399.98 158.4,389.08 141.5,379.28 						"/>
					</g>
					<g>
						<polygon class="st4" points="186.82,392.3 203.74,402.14 344.84,320.68 327.91,310.85 						"/>
					</g>
					<g>
						<polygon class="st4" points="156.47,409.82 173.4,419.67 192.26,408.76 175.34,398.94 						"/>
					</g>
				</g>
			</g>
			<g>
				<g>
					<g class="st0">
						<g>
							<path class="st1" d="M246.87,28.28c6.57,3.84,6.57,3.84,13.7,7.96c-1.66-0.97-3.95-0.83-6.5,0.64l-13.7-7.96
								C242.92,27.46,245.21,27.32,246.87,28.28z"/>
						</g>
						<g>
							<path class="st1" d="M37.28,358.17c-1.83-1.06-3.65-2.12-5.48-3.18c-1.83-1.06-3.65-2.12-5.48-3.18
								c-0.21-0.12-0.48-0.28-0.69-0.4c-0.69-0.4-1.37-0.8-2.06-1.2c-1.64-0.95-2.66-2.99-2.66-5.87l13.7,7.96
								C34.63,355.18,35.64,357.21,37.28,358.17z"/>
						</g>
						<g>
							<path class="st1" d="M34.11,174.43l-13.7-7.97c-0.02-5.82,4.04-12.87,9.11-15.8l13.7,7.96
								C38.16,161.55,34.1,168.61,34.11,174.43z"/>
						</g>
						<g>
							<polygon class="st1" points="34.62,352.3 20.92,344.34 20.41,166.46 34.11,174.43 							"/>
						</g>
						<g>
							<polygon class="st1" points="43.22,158.63 29.52,150.66 240.38,28.92 254.08,36.89 							"/>
						</g>
					</g>
				</g>
				<g>
					<polygon class="st5" points="252.35,50.11 252.85,224.59 45.51,344.29 45.02,169.82 					"/>
				</g>
				<g>
					<path class="st2" d="M254.08,36.89c5.07-2.92,9.15-0.57,9.17,5.25l0.5,177.88c0.02,5.79-4.04,12.85-9.11,15.78L43.78,357.53
						c-5.06,2.93-9.15,0.57-9.17-5.22l-0.5-177.87c-0.02-5.82,4.04-12.88,9.11-15.8L254.08,36.89z M252.85,224.59l-0.5-174.48
						L45.02,169.82l0.5,174.48L252.85,224.59z"/>
				</g>
			</g>
		</g>
		<g>
			<g>
				<polygon class="st5" points="203.91,230.99 203.94,242.78 173.97,260.09 173.93,248.3 				"/>
			</g>
			<g>
				<polygon class="st6" points="173.93,248.3 173.97,260.09 203.94,242.78 204.04,276.56 174.06,293.87 				"/>
			</g>
			<g>
				<polygon class="st6" points="203.84,182.64 203.97,228.2 142.6,263.63 142.47,218.08 				"/>
			</g>
			<g>
				<polygon class="st7" points="107.62,286.59 107.65,298.37 77.67,315.68 77.64,303.89 				"/>
			</g>
			<g>
				<polygon class="st6" points="77.64,303.89 77.67,315.68 107.65,298.37 107.75,332.16 77.77,349.47 				"/>
			</g>
			<g>
				<polygon class="st1" points="139.72,268.05 139.76,279.84 109.78,297.15 109.74,285.36 				"/>
			</g>
			<g>
				<polygon class="st6" points="109.74,285.36 109.78,297.15 139.76,279.84 139.85,313.63 109.87,330.93 				"/>
			</g>
			<g>
				<polygon class="st5" points="171.81,249.53 171.84,261.31 141.86,278.62 141.83,266.83 				"/>
			</g>
			<g>
				<polygon class="st6" points="141.83,266.83 141.86,278.62 171.84,261.31 171.94,295.1 141.96,312.41 				"/>
			</g>
			<g>
				<path class="st1" d="M188.61,164.15c1.12-0.65,2.02-0.11,2.03,1.16c0,1.27-0.89,2.84-2.01,3.49c-1.1,0.64-2.01,0.1-2.01-1.17
					C186.61,166.36,187.51,164.78,188.61,164.15z"/>
			</g>
			<g>
				<path class="st1" d="M201.68,156.6c1.12-0.65,2.02-0.11,2.03,1.16c0,1.27-0.89,2.84-2.01,3.49c-1.1,0.64-2.01,0.1-2.01-1.17
					C199.67,158.82,200.57,157.24,201.68,156.6z"/>
			</g>
			<g>
				<path class="st5" d="M98.71,277.79c0.32-0.19,0.58-0.02,0.58,0.35c0,1.49-1.53,3.08-3.18,4.24c-0.39,0.28-0.78,0.53-1.17,0.75
					c-0.41,0.23-0.81,0.44-1.18,0.61c-0.61,0.27-1.16,0.45-1.62,0.52c-1.38,0.21-1.58-0.59-1.58-1.08c0-0.37,0.27-0.84,0.59-1.03
					c0.32-0.19,0.6-0.03,0.6,0.34c0,0.47,1.21,0.42,3.2-0.73c1.97-1.14,3.18-2.48,3.17-2.95C98.12,278.44,98.39,277.97,98.71,277.79
					z"/>
			</g>
			<g>
				<path class="st5" d="M93.77,283.73c0.38-0.17,0.77-0.37,1.18-0.61c0.38-0.22,0.78-0.47,1.17-0.75
					c-0.18,0.57-0.62,1.14-1.16,1.45C94.4,284.15,93.96,284.09,93.77,283.73z"/>
			</g>
			<g>
				<path class="st5" d="M98.71,275.13c0.32-0.19,0.58-0.04,0.58,0.33c0,1.84-2.34,3.83-4.34,4.99c-1.07,0.62-2.06,1.01-2.8,1.13
					c-1.38,0.23-1.58-0.57-1.59-1.08c0-0.37,0.27-0.82,0.59-1c0.32-0.19,0.6-0.05,0.6,0.32c0,0.47,1.21,0.44,3.2-0.71
					c1.97-1.14,3.17-2.5,3.17-2.97C98.11,275.77,98.38,275.32,98.71,275.13z"/>
			</g>
			<g class="st0">
				<g>
					<path class="st5" d="M98.7,272.46c0.32-0.19,0.58-0.02,0.58,0.35c0,1.83-2.34,3.83-4.34,4.99c-1.07,0.62-2.06,1.01-2.81,1.11
						c-1.38,0.23-1.58-0.57-1.59-1.06c0-0.37,0.27-0.84,0.59-1.03c0.32-0.19,0.6-0.03,0.6,0.34c0,0.47,1.21,0.42,3.2-0.73
						c1.97-1.14,3.17-2.48,3.17-2.95C98.11,273.11,98.38,272.65,98.7,272.46z"/>
				</g>
				<g>
					<polygon class="st7" points="95.96,260.51 96.98,265.3 97.15,264.56 98.72,263.43 98.83,264.35 97.81,265.07 96.82,269.3 
						95.85,264.7 95.47,266.53 94.3,269.62 93.27,266.54 92.97,268.42 90.96,268.87 91.2,267.8 92.32,267.52 93.11,262.79 
						94.52,267.01 94.67,266.61 					"/>
				</g>
				<g>
					<path class="st6" d="M77.37,255.67l61.37-35.43l0.13,45.55L77.5,301.22L77.37,255.67z M100.57,265.89
						c0.64-2.62,1.41-5.88,1.41-7.67c-0.01-4.49-3.2-6.33-7.11-4.07c-3.92,2.27-7.09,7.77-7.08,12.26c0,1.8,0.79,4.15,1.45,6.03
						c0.36,1.06,0.77,2.27,0.77,2.7c0,2.05,2.64,1.25,4.92-0.06c2.24-1.3,4.89-3.55,4.88-5.59
						C99.81,269.04,100.22,267.36,100.57,265.89z M96.12,282.38c1.65-1.16,3.18-2.75,3.18-4.24c0-0.37-0.26-0.54-0.58-0.35
						c-0.32,0.19-0.59,0.65-0.59,1.03c0,0.47-1.2,1.81-3.17,2.95c-1.99,1.15-3.19,1.2-3.2,0.73c0-0.37-0.27-0.53-0.6-0.34
						c-0.32,0.18-0.59,0.65-0.59,1.03c0,0.49,0.21,1.29,1.58,1.08c0.46-0.07,1.02-0.25,1.62-0.52c0.19,0.36,0.63,0.41,1.19,0.1
						C95.49,283.52,95.93,282.95,96.12,282.38z M94.94,277.8c2.01-1.16,4.35-3.15,4.34-4.99c0-0.37-0.26-0.54-0.58-0.35
						c-0.32,0.19-0.59,0.65-0.59,1.03c0,0.47-1.2,1.81-3.17,2.95c-1.99,1.15-3.2,1.2-3.2,0.73c0-0.37-0.27-0.53-0.6-0.34
						c-0.32,0.19-0.59,0.65-0.59,1.03c0,0.49,0.21,1.29,1.59,1.06C92.88,278.81,93.87,278.42,94.94,277.8z M94.94,280.45
						c2-1.16,4.35-3.15,4.34-4.99c0-0.37-0.26-0.52-0.58-0.33c-0.32,0.19-0.59,0.64-0.59,1.01c0,0.47-1.2,1.83-3.17,2.97
						c-1.99,1.15-3.2,1.18-3.2,0.71c0-0.37-0.27-0.51-0.6-0.32c-0.32,0.19-0.59,0.64-0.59,1c0,0.51,0.21,1.31,1.59,1.08
						C92.89,281.46,93.88,281.07,94.94,280.45z"/>
				</g>
				<g>
					<path class="st8" d="M94.87,254.14c3.91-2.25,7.09-0.42,7.11,4.07c0,1.8-0.77,5.06-1.41,7.67c-0.35,1.47-0.76,3.15-0.76,3.58
						c0,2.05-2.64,4.3-4.88,5.59c-2.28,1.31-4.91,2.11-4.92,0.06c0-0.43-0.41-1.64-0.77-2.7c-0.65-1.87-1.44-4.23-1.45-6.03
						C87.78,261.91,90.95,256.41,94.87,254.14z M97.81,265.07l1.02-0.72l-0.1-0.92l-1.58,1.13l-0.17,0.74l-1.02-4.79l-1.29,6.1
						l-0.15,0.4l-1.41-4.23l-0.79,4.73l-1.12,0.28l-0.24,1.07l2.01-0.46l0.3-1.87l1.03,3.08l1.17-3.1l0.38-1.83l0.97,4.6
						L97.81,265.07z"/>
				</g>
				<g>
					<path class="st9" d="M73.1,227.2l135.12-78.01l0.37,129.4L73.47,356.6L73.1,227.2z M77.37,255.67l0.13,45.55l61.37-35.43
						l-0.13-45.55L77.37,255.67z M203.97,228.2l-0.13-45.56l-61.37,35.43l0.13,45.55L203.97,228.2z M171.84,261.31l-0.03-11.79
						l-29.98,17.31l0.13,45.57l29.98-17.31L171.84,261.31z M139.76,279.84l-0.03-11.79l-29.98,17.31l0.13,45.57l29.98-17.31
						L139.76,279.84z M203.94,242.78l-0.03-11.79l-29.98,17.31l0.13,45.57l29.98-17.31L203.94,242.78z M107.65,298.37l-0.03-11.79
						l-29.98,17.31l0.13,45.57l29.98-17.31L107.65,298.37z M204.12,179l-0.02-5.91L77.34,246.28l0.02,5.92L204.12,179z
						 M77.31,236.54l0.02,5.92l63.38-36.59l-0.02-5.91L77.31,236.54z M195.15,160.37c-1.12,0.65-2.02,2.22-2.01,3.49
						c0,1.27,0.91,1.8,2.03,1.16c1.1-0.64,2-2.21,2-3.48C197.16,160.27,196.26,159.73,195.15,160.37z M201.68,156.6
						c-1.1,0.64-2,2.21-2,3.48c0,1.27,0.91,1.8,2.01,1.17c1.12-0.65,2.02-2.22,2.01-3.49C203.7,156.49,202.8,155.96,201.68,156.6z
						 M188.61,164.15c-1.11,0.64-2,2.21-2,3.48c0,1.27,0.91,1.8,2.01,1.17c1.12-0.65,2.02-2.22,2.01-3.49
						C190.64,164.03,189.73,163.5,188.61,164.15z"/>
				</g>
				<g>
					<path class="st1" d="M195.15,160.37c1.1-0.64,2.01-0.1,2.01,1.17c0,1.27-0.89,2.84-2,3.48c-1.12,0.65-2.03,0.11-2.03-1.16
						C193.13,162.59,194.03,161.02,195.15,160.37z"/>
				</g>
				<g>
					<path class="st1" d="M77.34,246.28l126.76-73.19l0.02,5.91L77.36,252.19L77.34,246.28z M201.18,179.45l-0.01-3.2l-27.5,15.88
						l0.01,3.2L201.18,179.45z"/>
				</g>
				<g>
					<polygon class="st7" points="140.69,199.95 140.7,205.86 77.33,242.45 77.31,236.54 					"/>
				</g>
			</g>
			<g>
				<polygon class="st8" points="201.17,176.25 201.18,179.45 173.68,195.33 173.67,192.13 				"/>
			</g>
		</g>
		<g>
			<g>
				<path class="st2" d="M332.5,427.23l0.48,0.31c1.87,1.46,1.43,3.76-0.95,5.77l-10.07-5.81
					C325.73,426.02,330.1,425.84,332.5,427.23z"/>
			</g>
			<g class="st0">
				<g>
					<path class="st8" d="M335.99,435.61l0.48,0.28c1.08,0.62,1.08,1.63,0.01,2.25c-1.07,0.62-2.81,0.62-3.89,0l-0.48-0.27
						c-6.03,2.64-13.85,2.82-18.33,0.24c-1.08-0.63-1.09-1.63-0.01-2.25c1.07-0.63,2.78-0.61,3.83,0c2.43,1.41,6.8,1.2,10.54-0.27
						l-10.4-6.01c-6.01,2.66-13.82,2.85-18.33,0.25c-4.48-2.59-4.2-7.1,0.36-10.62l-0.48-0.28c-1.08-0.62-1.09-1.63-0.01-2.25
						c1.08-0.63,2.81-0.63,3.89,0l0.48,0.27c6.07-2.65,13.88-2.84,18.36-0.26c1.08,0.62,1.06,1.65,0.01,2.26
						c-1.07,0.63-2.81,0.63-3.89,0c-2.4-1.39-6.74-1.2-10.51,0.3l10.4,6c6.04-2.67,13.85-2.86,18.36-0.26
						c0.63,0.36,1.14,0.76,1.59,1.2C340.68,428.81,339.9,432.57,335.99,435.61z M303.33,427.58c2.4,1.38,6.74,1.2,10.48-0.28
						l-10.06-5.81c-2.54,2.17-2.88,4.7-0.48,6.09H303.33z M321.96,427.51l10.07,5.81c2.38-2.01,2.82-4.32,0.95-5.77l-0.48-0.31
						C330.1,425.84,325.73,426.02,321.96,427.51z"/>
				</g>
				<g>
					<path class="st2" d="M336.54,416.56c12.17,7.03,13.69,17.59,3.4,23.57c-10.3,5.99-28.54,5.14-40.68-1.91
						c-12.23-7.06-13.71-17.58-3.42-23.56C306.13,408.69,324.35,409.52,336.54,416.56z M332.59,438.14c1.08,0.62,2.82,0.62,3.89,0
						c1.07-0.63,1.07-1.63-0.01-2.25l-0.48-0.28c3.91-3.04,4.69-6.8,1.99-9.44c-0.45-0.43-0.96-0.84-1.59-1.2
						c-4.51-2.6-12.32-2.41-18.36,0.26l-10.4-6c3.77-1.49,8.11-1.68,10.51-0.3c1.08,0.63,2.82,0.63,3.89,0
						c1.04-0.61,1.07-1.63-0.01-2.26c-4.48-2.58-12.29-2.39-18.36,0.26l-0.48-0.27c-1.08-0.63-2.81-0.63-3.89,0
						c-1.08,0.62-1.07,1.63,0.01,2.25l0.48,0.28c-4.56,3.52-4.83,8.03-0.36,10.62c4.51,2.6,12.32,2.41,18.33-0.25l10.4,6.01
						c-3.74,1.47-8.11,1.68-10.54,0.27c-1.05-0.61-2.76-0.63-3.83,0c-1.08,0.63-1.07,1.63,0.01,2.25c4.48,2.58,12.29,2.4,18.33-0.24
						L332.59,438.14z"/>
				</g>
				<g>
					<path class="st8" d="M374.68,407.14c-6.06,3.52-6.03,9.25,0.07,12.77l-34.8,20.22c10.3-5.98,8.77-16.55-3.4-23.57
						c-12.2-7.04-30.41-7.87-40.71-1.89l34.8-20.23c6.13,3.54,15.98,3.52,22.05,0L374.68,407.14z"/>
				</g>
				<g>
					<path class="st2" d="M341.89,382.47l53.48,30.88l-101.49,58.98l-53.48-30.88L341.89,382.47z M339.94,440.14l34.8-20.22
						c-6.1-3.52-6.13-9.25-0.07-12.77l-21.99-12.7c-6.06,3.52-15.92,3.54-22.05,0l-69.61,40.45c6.1,3.52,6.16,9.23,0.07,12.77
						l22,12.7c6.09-3.54,15.94-3.51,22.04,0L339.94,440.14z"/>
				</g>
				<g>
					<path class="st2" d="M313.81,427.3c-3.74,1.47-8.08,1.66-10.48,0.28h-0.06c-2.4-1.39-2.06-3.92,0.48-6.09L313.81,427.3z"/>
				</g>
				<g>
					<path class="st8" d="M299.19,438.19c12.2,7.09,30.45,7.93,40.75,1.95l-34.8,20.23c-6.1-3.51-15.95-3.54-22.04,0l-22-12.7
						c6.09-3.54,6.03-9.25-0.07-12.77l34.81-20.23C285.55,420.64,287.03,431.17,299.19,438.19z"/>
				</g>
			</g>
		</g>
		<g>
			<g>
				<path class="st10" d="M304.33,165.04c1.68-0.97,3.05,0.04,3.05,2.27c0,0.33-0.12,0.77-0.32,1.28l0-1.21l-2.58,1.49l0.01,2.19
					l-1.92,1.11l0.01,2.97l1.07-0.62c-0.93,1.38-1.64,2.34-1.68,2.4c-0.27-0.06-5.43-1.11-5.44-3.33c-0.01-2.22,1.35-4.81,3.01-5.76
					c0.99-0.57,1.85-0.45,2.4,0.2C302.5,166.73,303.36,165.6,304.33,165.04z"/>
			</g>
			<g>
				<polygon class="st11" points="306.4,168.52 306.4,170.73 308.31,169.63 308.31,171.05 306.41,172.15 306.41,174.36 
					305.16,175.08 305.15,172.88 303.25,173.97 303.24,172.55 305.15,171.45 305.14,169.25 				"/>
			</g>
			<g>
				<path class="st5" d="M310.77,163.28c0.32,0.95,2.26,0.73,2.27,1.99c0,1.25-1.93,3.27-2.25,4.6c-0.34,1.37,0.77,2.76,0.15,4.1
					c-0.62,1.36-2.65,1.96-3.51,3.18c-0.85,1.19-0.99,3.68-2.01,4.64c-0.09,0.09-0.19,0.16-0.28,0.21
					c-0.95,0.55-2.15-0.26-3.15,0.33c-0.98,0.57-2.18,2.75-3.13,3.3c-0.09,0.06-0.19,0.1-0.28,0.11c-1.04,0.23-1.2-2.09-2.05-2.3
					c-0.87-0.22-2.87,1.5-3.52,0.88c-0.61-0.62,0.47-3.28,0.14-4.27c-0.33-0.97-2.27-0.74-2.27-1.99c0-1.27,1.93-3.28,2.25-4.6
					c0.32-1.38-0.77-2.76-0.17-4.11c0.64-1.37,2.65-1.94,3.51-3.16c0.85-1.21,0.99-3.68,2.03-4.67c0.09-0.09,0.19-0.15,0.28-0.21
					c0.95-0.55,2.15,0.27,3.14-0.3c1-0.58,2.2-2.78,3.15-3.33c0.1-0.06,0.19-0.09,0.28-0.11c1.02-0.2,1.18,2.1,2.03,2.33
					c0.87,0.22,2.89-1.53,3.52-0.9C311.53,159.64,310.43,162.28,310.77,163.28z M301.97,180.46c4.23-2.44,7.63-8.36,7.62-13.19
					c-0.01-4.86-3.44-6.81-7.67-4.37c-4.22,2.43-7.63,8.34-7.62,13.2C294.32,180.93,297.76,182.89,301.97,180.46z"/>
			</g>
			<g>
				<polygon class="st5" points="316.85,134.34 316.88,146.12 286.9,163.43 286.87,151.64 				"/>
			</g>
			<g>
				<path class="st8" d="M301.93,162.89c4.23-2.44,7.65-0.49,7.67,4.37c0.01,4.84-3.39,10.75-7.62,13.19
					c-4.21,2.43-7.65,0.47-7.67-4.37C294.29,171.23,297.71,165.32,301.93,162.89z M307.06,168.59c0.2-0.51,0.32-0.95,0.32-1.28
					c-0.01-2.23-1.37-3.24-3.05-2.27c-0.97,0.56-1.83,1.68-2.39,2.97c-0.55-0.64-1.41-0.77-2.4-0.2c-1.66,0.96-3.02,3.54-3.01,5.76
					c0.01,2.23,5.17,3.28,5.44,3.33c0.04-0.05,0.75-1.02,1.68-2.4l-1.07,0.62l-0.01-2.97l1.92-1.11l-0.01-2.19l2.58-1.49
					L307.06,168.59z M308.31,171.05l0-1.43l-1.91,1.1l0-2.21l-1.26,0.73l0.01,2.21l-1.9,1.1l0,1.42l1.9-1.1l0.01,2.21l1.26-0.73
					l-0.01-2.21L308.31,171.05z"/>
			</g>
			<g>
				<path class="st8" d="M286.9,163.43l29.98-17.31l0.1,33.78L287,197.22L286.9,163.43z M310.79,169.88
					c0.32-1.34,2.25-3.35,2.25-4.6c0-1.27-1.94-1.05-2.27-1.99c-0.34-0.99,0.76-3.64,0.12-4.27c-0.63-0.63-2.65,1.12-3.52,0.9
					c-0.85-0.23-1.01-2.53-2.03-2.33c-0.09,0.02-0.18,0.06-0.28,0.11c-0.95,0.55-2.14,2.75-3.15,3.33c-0.99,0.57-2.19-0.25-3.14,0.3
					c-0.1,0.06-0.19,0.12-0.28,0.21c-1.03,0.99-1.18,3.46-2.03,4.67c-0.87,1.22-2.87,1.79-3.51,3.16c-0.61,1.35,0.48,2.73,0.17,4.11
					c-0.32,1.32-2.25,3.33-2.25,4.6c0,1.25,1.94,1.03,2.27,1.99c0.33,0.98-0.75,3.64-0.14,4.27c0.65,0.62,2.65-1.1,3.52-0.88
					c0.85,0.21,1.01,2.52,2.05,2.3c0.09-0.02,0.19-0.06,0.28-0.11c0.95-0.55,2.14-2.73,3.13-3.3c1-0.58,2.21,0.22,3.15-0.33
					c0.1-0.06,0.19-0.13,0.28-0.21c1.02-0.96,1.16-3.45,2.01-4.64c0.87-1.22,2.89-1.82,3.51-3.18
					C311.57,172.63,310.45,171.24,310.79,169.88z"/>
			</g>
			<g>
				<polygon class="st7" points="284.76,152.86 284.8,164.65 254.8,181.97 254.77,170.18 				"/>
			</g>
			<g>
				<polygon class="st8" points="314.11,79.6 314.12,82.8 286.62,98.67 286.61,95.47 				"/>
			</g>
			<g>
				<path class="st11" d="M310.51,112.09c0.25-0.15,0.49-0.2,0.69-0.21c0.19-0.01,0.36,0.05,0.5,0.15c0.2,0.17,0.36,0.44,0.37,0.84
					c0.03,0.64-0.25,1.4-0.71,2.01c-0.17,0.23-0.35,0.42-0.56,0.58l-0.17,0.14l-6.61,4.11c-0.03,0.02-0.06,0.04-0.09,0.06
					c-0.82,0.48-1.51,0.13-1.56-0.78c-0.05-0.97,0.59-2.18,1.44-2.73l6.59-4.1L310.51,112.09z"/>
			</g>
			<g>
				<path class="st12" d="M301.17,112.01c0.41-0.1,0.83-0.25,1.26-0.39c0.15-0.05,0.33-0.13,0.51-0.22
					c-0.61,0.74-1.05,1.68-1.2,2.57l0.01-0.5C301.75,113.08,301.54,112.61,301.17,112.01z"/>
			</g>
			<g>
				<path class="st11" d="M310.32,106.92c0.7-0.4,1.33-0.16,1.43,0.6c0.07,0.51-0.1,1.14-0.42,1.67c-0.22,0.38-0.47,0.68-0.8,0.93
					l-6.16,4.57c-0.07,0.05-0.14,0.1-0.21,0.14c-0.7,0.41-1.33,0.16-1.44-0.6c-0.12-0.83,0.42-2,1.22-2.6l6.16-4.58l0.17-0.12
					L310.32,106.92z"/>
			</g>
			<g>
				<path class="st11" d="M303.47,125.81l0.05-0.01l5.42-2.29c0.2-0.1,0.37-0.12,0.54-0.12c0.17,0.02,0.3,0.1,0.43,0.22
					c0.14,0.18,0.22,0.44,0.21,0.78c-0.03,0.61-0.37,1.29-0.83,1.73l-0.43,0.34l-0.05,0.03l-0.12,0.05l-5.37,2.26
					c-0.68,0.33-1.21-0.07-1.16-0.9c0.05-0.77,0.59-1.69,1.25-2.07L303.47,125.81z"/>
			</g>
			<g>
				<path class="st11" d="M303.9,120.97l6.42-3.2l0.17-0.08c0.17-0.06,0.34-0.1,0.49-0.11c0.17,0.02,0.32,0.09,0.46,0.17
					c0.22,0.18,0.36,0.52,0.36,0.94c-0.03,0.68-0.37,1.44-0.84,1.99c-0.19,0.2-0.37,0.37-0.58,0.51l-0.09,0.05v0.45v0.14v-0.14
					l-0.02-0.44l-0.42,0.21l-6,2.99l-0.03,0.02l-0.24,0.1c-0.31,0.1-0.58,0.08-0.78-0.04c-0.27-0.2-0.43-0.54-0.41-1.01
					C302.4,122.6,303.08,121.44,303.9,120.97z"/>
			</g>
			<g>
				<path class="st11" d="M297.22,100.99c0.24-0.14,0.6,0.17,0.84,0.36l0.22,0.14l0.26,0.24l0.22,0.32c0.53,0.79,1.03,2.12,1.1,2.96
					c0.05,0.52-0.13,1.56-0.32,2.57c-0.07,0.43-0.15,0.85-0.22,1.28c-0.18,1.24-0.28,2.38,0.08,2.95c0.05,0.07,0.14,0.18,0.22,0.32
					c0.72,1.01,1.1,1.66,1.1,1.93c0.01,6.17-3.15,12.67-7.38,15.11c-0.61,0.35-1.24,0.6-1.83,0.73l-0.03-11.32
					c0.37-0.49,0.73-0.97,0.92-1.31c1.32-2.25,3.38-7.07,3.94-9.53c0.2-0.84,0.11-1.81,0.01-2.82c-0.09-1.03-0.19-2.2,0.06-2.87
					c0.05-0.11,0.24-0.41,0.54-0.77L297.22,100.99z"/>
			</g>
			<g>
				<path class="st12" d="M301.7,114.91v0.1c0.09,0.65,0.4,1.08,0.84,1.26c-0.76,1.01-1.25,2.29-1.2,3.39
					c0.05,0.87,0.46,1.41,1.04,1.59c-0.61,0.86-1.02,1.92-1.03,2.86c-0.01,0.79,0.23,1.37,0.7,1.69l0.1,0.04
					c-0.58,0.77-0.98,1.72-1.03,2.61c-0.1,1.5,0.87,2.21,2.09,1.61l2.74-1.15c-0.95,0.67-2.07,1.39-3.33,2.12
					c-3.68,2.13-8.19,4.16-10.52,4.74c-0.16,0.05-0.34,0.12-0.6,0.27l-0.01-4.86c0.59-0.17,1.22-0.43,1.83-0.79
					C297.83,127.78,301.26,121.3,301.7,114.91z"/>
			</g>
			<g>
				<polygon class="st10" points="290.52,118.86 290.57,136.7 284.73,140.08 284.67,122.24 				"/>
			</g>
			<g class="st0">
				<g>
					<polygon class="st8" points="254.77,170.18 254.8,181.97 284.8,164.65 284.89,198.43 254.89,215.75 					"/>
				</g>
				<g>
					<path class="st1" d="M255.41,121.42l61.37-35.43l0.13,45.55l-61.37,35.43L255.41,121.42z M302.63,131.01
						c1.26-0.73,2.38-1.45,3.33-2.12l-2.74,1.15c-1.22,0.61-2.19-0.1-2.09-1.61c0.05-0.89,0.45-1.84,1.03-2.61l-0.1-0.04
						c-0.47-0.31-0.72-0.9-0.7-1.69c0.01-0.95,0.42-2,1.03-2.86c-0.58-0.17-0.99-0.72-1.04-1.59c-0.05-1.1,0.44-2.38,1.2-3.39
						c-0.44-0.17-0.75-0.6-0.84-1.26v-0.1c-0.44,6.39-3.88,12.87-8.36,15.46c-0.61,0.35-1.24,0.62-1.83,0.79l0.01,4.86
						c0.25-0.15,0.44-0.22,0.6-0.27C294.44,135.17,298.95,133.14,302.63,131.01z M291.47,118.59l0.03,11.32
						c0.6-0.13,1.22-0.37,1.83-0.73c4.23-2.44,7.39-8.94,7.38-15.11c0-0.27-0.38-0.92-1.1-1.93c-0.08-0.15-0.17-0.25-0.22-0.32
						c-0.36-0.57-0.26-1.71-0.08-2.95c0.07-0.43,0.15-0.85,0.22-1.28c0.18-1.01,0.37-2.05,0.32-2.57c-0.07-0.84-0.57-2.18-1.1-2.96
						l-0.22-0.32l-0.26-0.24l-0.22-0.14c-0.24-0.19-0.6-0.5-0.84-0.36l-0.29,0.3c-0.3,0.36-0.49,0.66-0.54,0.77
						c-0.26,0.67-0.15,1.84-0.06,2.87c0.1,1.01,0.19,1.98-0.01,2.82c-0.56,2.45-2.61,7.28-3.94,9.53
						C292.2,117.62,291.84,118.1,291.47,118.59z M290.57,136.7l-0.05-17.84l-5.84,3.37l0.05,17.84L290.57,136.7z M310.96,120.69
						c0.47-0.55,0.81-1.31,0.84-1.99c0-0.43-0.14-0.76-0.36-0.94c-0.14-0.08-0.29-0.15-0.46-0.17c-0.15,0.01-0.32,0.05-0.49,0.11
						l-0.17,0.08l-6.42,3.2c-0.82,0.47-1.49,1.62-1.51,2.55c-0.02,0.48,0.14,0.82,0.41,1.01c0.2,0.12,0.48,0.14,0.77,0.05l0.26-0.11
						l0.03-0.02l6-2.99l0.42-0.21l0.02,0.44v-0.45l0.09-0.05C310.58,121.06,310.77,120.89,310.96,120.69z M303.94,111.64
						c-0.8,0.6-1.34,1.77-1.22,2.6c0.11,0.76,0.74,1,1.44,0.6c0.07-0.04,0.14-0.09,0.21-0.14l6.16-4.57
						c0.32-0.24,0.58-0.55,0.8-0.93c0.32-0.54,0.49-1.17,0.42-1.67c-0.1-0.76-0.73-1-1.43-0.6l-0.05,0.03l-0.17,0.12L303.94,111.64z
						 M311.37,114.88c0.46-0.62,0.74-1.37,0.71-2.01c-0.02-0.4-0.17-0.66-0.37-0.84c-0.14-0.1-0.31-0.16-0.5-0.15
						c-0.2,0-0.44,0.06-0.69,0.21l-0.1,0.06l-6.59,4.1c-0.85,0.55-1.49,1.76-1.44,2.73c0.05,0.91,0.74,1.26,1.56,0.78
						c0.03-0.02,0.06-0.03,0.09-0.06l6.61-4.11l0.17-0.14C311.01,115.3,311.2,115.12,311.37,114.88z M310.12,124.4
						c0.01-0.34-0.07-0.6-0.21-0.78c-0.12-0.13-0.26-0.2-0.43-0.22c-0.17,0-0.34,0.02-0.54,0.12l-5.42,2.29l-0.05,0.01l-0.05,0.03
						c-0.66,0.38-1.21,1.3-1.25,2.07c-0.05,0.83,0.48,1.23,1.16,0.9l5.37-2.26l0.1-0.04l0.07-0.04l0.43-0.34
						C309.75,125.69,310.09,125,310.12,124.4z M302.42,111.62c-0.42,0.15-0.85,0.3-1.26,0.39c0.38,0.6,0.58,1.07,0.58,1.46
						l-0.01,0.5c0.15-0.89,0.59-1.83,1.2-2.57C302.75,111.49,302.58,111.57,302.42,111.62z"/>
				</g>
			</g>
			<g>
				<polygon class="st7" points="220.57,189.92 220.61,201.71 190.61,219.03 190.58,207.24 				"/>
			</g>
			<g>
				<polygon class="st9" points="190.58,207.24 190.61,219.03 220.61,201.71 220.7,235.49 190.71,252.81 				"/>
			</g>
			<g>
				<polygon class="st1" points="252.66,171.39 252.69,183.18 222.71,200.49 222.68,188.71 				"/>
			</g>
			<g>
				<polygon class="st9" points="222.68,188.71 222.71,200.49 252.69,183.18 252.79,216.97 222.81,234.28 				"/>
			</g>
			<g>
				<path class="st1" d="M301.57,67.48c1.1-0.64,2.01-0.1,2.01,1.17c0,1.29-0.9,2.84-2,3.48c-1.12,0.65-2.02,0.13-2.03-1.15
					C299.55,69.7,300.45,68.13,301.57,67.48z"/>
			</g>
			<g>
				<path class="st1" d="M308.09,63.71c1.11-0.64,2.01-0.1,2.01,1.17c0,1.29-0.9,2.84-2,3.48c-1.12,0.65-2.02,0.13-2.03-1.15
					C306.07,65.94,306.97,64.36,308.09,63.71z"/>
			</g>
			<g>
				<path class="st1" d="M314.61,59.95c1.12-0.65,2.02-0.11,2.03,1.16c0,1.29-0.89,2.84-2.01,3.49c-1.1,0.64-2.01,0.12-2.01-1.17
					C312.61,62.16,313.51,60.59,314.61,59.95z"/>
			</g>
			<g class="st0">
				<g>
					<polygon class="st9" points="251.67,123.58 251.8,169.13 190.43,204.57 190.3,159.01 					"/>
				</g>
				<g>
					<path class="st6" d="M186.04,130.55l135.12-78.01l0.37,129.4l-135.12,78.01L186.04,130.55z M190.3,159.01l0.13,45.55
						l61.37-35.43l-0.13-45.55L190.3,159.01z M316.91,131.54l-0.13-45.55l-61.37,35.43l0.13,45.56L316.91,131.54z M220.61,201.71
						l-0.03-11.79l-30,17.32l0.13,45.57l30-17.32L220.61,201.71z M284.8,164.65l-0.03-11.79l-30,17.32l0.13,45.57l30-17.32
						L284.8,164.65z M316.88,146.12l-0.03-11.79l-29.98,17.31l0.13,45.57l29.98-17.31L316.88,146.12z M252.69,183.18l-0.03-11.79
						l-29.98,17.31l0.13,45.57l29.98-17.31L252.69,183.18z M317.06,82.35l-0.02-5.91l-126.76,73.19l0.02,5.91L317.06,82.35z
						 M190.25,139.88l0.02,5.92l63.39-36.6l-0.01-5.92L190.25,139.88z M308.09,63.71c-1.12,0.65-2.02,2.22-2.01,3.49
						c0,1.29,0.91,1.8,2.03,1.15c1.1-0.64,2-2.19,2-3.48C310.1,63.61,309.19,63.08,308.09,63.71z M301.57,67.48
						c-1.12,0.65-2.02,2.22-2.01,3.49c0,1.29,0.91,1.8,2.03,1.15c1.1-0.64,2-2.19,2-3.48C303.58,67.38,302.67,66.84,301.57,67.48z
						 M314.61,59.95c-1.1,0.64-2,2.21-2,3.48c0,1.29,0.9,1.81,2.01,1.17c1.12-0.65,2.02-2.2,2.01-3.49
						C316.64,59.84,315.73,59.3,314.61,59.95z"/>
				</g>
				<g>
					<path class="st1" d="M190.28,149.62l126.76-73.19l0.02,5.91L190.3,155.54L190.28,149.62z M314.12,82.8l-0.01-3.2l-27.5,15.88
						l0.01,3.2L314.12,82.8z"/>
				</g>
				<g>
					<polygon class="st7" points="253.64,103.28 253.66,109.2 190.27,145.8 190.25,139.88 					"/>
				</g>
			</g>
		</g>
		<g>
			<g>
				<polygon class="st7" points="251.62,169.78 251.64,177.32 170.67,224.07 170.65,216.53 				"/>
			</g>
			<g>
				<polygon class="st5" points="332.38,209.45 332.42,224.5 294.11,246.62 294.07,231.57 				"/>
			</g>
			<g>
				<polygon class="st6" points="294.07,231.57 294.11,246.62 332.42,224.5 332.54,267.65 294.24,289.77 				"/>
			</g>
			<g>
				<path class="st1" d="M312.84,124.04c1.43-0.83,2.59-0.17,2.59,1.47c0,1.64-1.15,3.61-2.58,4.44c-1.43,0.82-2.57,0.17-2.57-1.47
					C310.28,126.85,311.41,124.86,312.84,124.04z"/>
			</g>
			<g>
				<path class="st1" d="M321.18,119.22c1.42-0.83,2.58-0.16,2.59,1.48c0,1.64-1.15,3.61-2.58,4.44c-1.41,0.81-2.57,0.17-2.57-1.47
					C318.62,122.03,319.77,120.04,321.18,119.22z"/>
			</g>
			<g>
				<path class="st1" d="M329.52,114.41c1.43-0.82,2.59-0.16,2.59,1.48c0,1.64-1.14,3.61-2.57,4.44c-1.41,0.81-2.57,0.17-2.57-1.47
					C326.96,117.22,328.11,115.22,329.52,114.41z"/>
			</g>
			<g>
				<polygon class="st1" points="198.9,242.76 198.9,244.6 195.57,246.52 194.94,246.88 191.46,248.9 191.46,247.06 194.94,245.05 
					195.57,244.69 				"/>
			</g>
			<g>
				<polygon class="st1" points="233.19,239.84 233.19,241.48 230.71,242.91 230.71,241.27 				"/>
			</g>
			<g>
				<polygon class="st7" points="232.06,310.55 235.47,312.52 234.37,313.15 231.98,311.77 231.99,314.53 231.19,314.99 
					231.18,312.24 228.81,316.36 227.71,317 231.09,311.11 				"/>
			</g>
			<g class="st0">
				<g>
					<path class="st1" d="M237.34,300.12c-0.25,1.36-0.81,2.79-1.62,4.1L237.34,300.12z"/>
				</g>
				<g>
					<polygon class="st1" points="235.78,299.73 234.34,303.34 234.12,303.09 235.35,299.97 					"/>
				</g>
				<g>
					<polygon class="st1" points="236.66,299.22 234.83,303.81 234.61,303.57 236.23,299.47 					"/>
				</g>
				<g>
					<polygon class="st1" points="234.89,300.24 233.86,302.83 233.62,302.6 234.47,300.49 					"/>
				</g>
				<g>
					<polygon class="st1" points="234.01,300.75 233.37,302.35 233.14,302.11 233.58,301 					"/>
				</g>
				<g>
					<path class="st7" d="M232.26,294.65c2.87-1.66,5.24-0.33,5.26,2.96v0.06l-0.15,0.27l-5.09,2.94l-0.17-0.08l-0.02-5.86
						L232.26,294.65z"/>
				</g>
				<g>
					<path class="st1" d="M239.88,289.07l0-0.96l-16.68,9.63l0,0.96l0.05,16.67l16.68-9.63L239.88,289.07z M223.97,314.23
						l-0.05-15.95l0-0.76l15.22-8.79l0,0.76l0.05,15.94L223.97,314.23z"/>
				</g>
				<g>
					<polygon class="st1" points="235.09,304.07 235.33,304.31 237.47,298.87 237.49,298.74 237.12,298.96 					"/>
				</g>
				<g>
					<polygon class="st9" points="232.29,290.5 232.3,291.26 230.75,292.15 230.75,291.39 					"/>
				</g>
				<g>
					<polygon class="st1" points="223.93,298.28 223.93,297.52 239.14,288.73 239.15,289.5 					"/>
				</g>
				<g>
					<polygon class="st1" points="222.56,297.15 240.48,286.81 240.49,288.72 239.88,289.07 239.88,288.12 223.2,297.75 
						223.2,298.7 222.57,299.07 					"/>
				</g>
			</g>
			<g>
				<polygon class="st1" points="233.12,301.26 232.89,301.85 232.65,301.61 232.7,301.51 				"/>
			</g>
			<g>
				<path class="st9" d="M231.47,295.08l0.02,6.93l3.62,3.48c-1,1.46-2.24,2.68-3.6,3.47c-3.33,1.92-6.04,0.38-6.05-3.47
					C225.45,301.66,228.14,297,231.47,295.08z"/>
			</g>
			<g>
				<path class="st8" d="M223.93,298.28l15.22-8.79l0.05,15.94l-15.22,8.79L223.93,298.28z M231.51,308.96
					c1.36-0.79,2.6-2.01,3.6-3.47l-3.62-3.48l-0.02-6.93c-3.33,1.92-6.02,6.59-6.01,10.41
					C225.47,309.33,228.18,310.88,231.51,308.96z M237.52,297.67l0-0.06c-0.03-3.29-2.39-4.62-5.26-2.96l-0.17,0.29l0.02,5.86
					l0.17,0.08l5.08-2.93L237.52,297.67z M237.47,298.87l0.02-0.13l-0.37,0.21l-2.03,5.12l0.24,0.24L237.47,298.87z M236.23,299.47
					l-1.62,4.1l0.22,0.24l1.82-4.59L236.23,299.47z M235.72,304.22c0.81-1.31,1.37-2.75,1.62-4.1L235.72,304.22z M234.34,303.34
					l1.44-3.61l-0.43,0.24l-1.23,3.12L234.34,303.34z M233.86,302.83l1.03-2.59l-0.42,0.25l-0.85,2.11L233.86,302.83z
					 M233.37,302.35l0.64-1.6l-0.43,0.25l-0.44,1.11L233.37,302.35z M232.65,301.61l0.24,0.23l0.24-0.59l-0.42,0.24L232.65,301.61z"
					/>
			</g>
			<g class="st0">
				<g>
					<path class="st5" d="M199.09,322.2l1.05-0.61c-0.24,5.96-4.29,12.99-9.37,16.22l0-1.21
						C195.27,333.7,198.85,327.48,199.09,322.2z"/>
				</g>
				<g>
					<path class="st6" d="M190.77,334.61c3.54-2.34,6.36-7.21,6.6-11.41l1.72-0.99c-0.24,5.28-3.82,11.5-8.32,14.4L190.77,334.61z"
						/>
				</g>
				<g>
					<path class="st8" d="M196.31,323.8l1.06-0.61c-0.24,4.2-3.06,9.07-6.6,11.41l0-1.22C193.73,331.39,196.08,327.32,196.31,323.8z
						"/>
				</g>
				<g>
					<path class="st6" d="M212.11,293.96l38.3-22.11l0.12,43.15l-38.3,22.11L212.11,293.96z M240.49,288.72l0-1.91l-17.92,10.35
						l0.01,1.91l0.63-0.36l0.05,16.67l16.68-9.63l-0.05-16.67L240.49,288.72z M234.37,313.15l1.1-0.64l-3.41-1.96l-0.97,0.56
						l-3.38,5.89l1.1-0.64l2.37-4.12l0.01,2.75l0.8-0.46l-0.01-2.75L234.37,313.15z M230.75,291.39l0,0.76l1.55-0.89l0-0.76
						L230.75,291.39z"/>
				</g>
				<g>
					<path class="st6" d="M196.31,323.8c-0.24,3.52-2.59,7.58-5.55,9.59l-0.01-2.93c1.57-1.17,2.79-3.29,3.01-5.19L196.31,323.8z"/>
				</g>
				<g>
					<path class="st8" d="M189.71,331.07c0.17-0.07,0.35-0.15,0.53-0.26c0.18-0.1,0.36-0.22,0.53-0.35l0.01,2.93l0,1.22l0,1.99
						l0,1.21l0,1.19c0,0.35-0.22,0.73-0.53,0.91c-0.27,0.16-0.53,0.05-0.53-0.3l0-1.19l0-1.21l0-2l-0.01-1.21L189.71,331.07z"/>
				</g>
				<g>
					<path class="st6" d="M193.76,324.07c-0.09-0.61-0.31-1.08-0.63-1.41l1.8-3.11c0.77,0.62,1.26,1.67,1.38,3.05L193.76,324.07z"/>
				</g>
				<g>
					<path class="st8" d="M196.31,322.59c-0.12-1.39-0.61-2.43-1.38-3.05l0.74-1.29c0.95,0.74,1.57,2.01,1.69,3.73L196.31,322.59z"
						/>
				</g>
				<g>
					<path class="st6" d="M195.67,318.25l1.21-2.1c1.26,0.92,2.07,2.58,2.2,4.84l-1.72,1C197.25,320.26,196.63,318.99,195.67,318.25
						z"/>
				</g>
				<g>
					<path class="st5" d="M199.09,320.99c-0.13-2.26-0.94-3.92-2.2-4.84l0.63-1.1l0.25-0.09c1.37,1.06,2.25,2.91,2.38,5.42
						L199.09,320.99z"/>
				</g>
				<g>
					<polygon class="st7" points="200.2,310.42 201.69,309.85 199.03,314.47 197.77,314.96 197.52,315.05 200.11,310.57 					"/>
				</g>
				<g>
					<path class="st8" d="M200.11,309.82c0.17,0.1,0.17,0.43,0,0.74l-2.59,4.49l-0.63,1.1l-1.21,2.1l-0.74,1.29l-1.8,3.11
						l-2.64,4.57c-0.09,0.16-0.21,0.28-0.33,0.35c-0.12,0.07-0.23,0.08-0.32,0.02c-0.19-0.09-0.19-0.42,0-0.74l2.66-4.61l1.79-3.09
						l0.74-1.29l1.21-2.1l0.75-1.29l2.47-4.28c0.09-0.16,0.21-0.28,0.33-0.35C199.91,309.78,200.02,309.77,200.11,309.82z
						 M199.47,311.15l0.2-0.57l-0.39,0.46l-8.79,15.22l-0.2,0.57l0.39-0.46L199.47,311.15z"/>
				</g>
				<g>
					<path class="st7" d="M190.21,322.62c0.18-0.1,0.36-0.19,0.53-0.26c0.67-0.28,1.28-0.3,1.77-0.12l-2.66,4.61
						c-0.19,0.32-0.19,0.65,0,0.74c0.09,0.06,0.2,0.05,0.32-0.02c0.12-0.07,0.23-0.19,0.33-0.35l2.64-4.57
						c0.32,0.33,0.54,0.8,0.63,1.41c0.03,0.19,0.04,0.39,0.04,0.6c0,0.2-0.01,0.4-0.03,0.6c-0.22,1.91-1.44,4.03-3.01,5.19
						c-0.17,0.13-0.35,0.25-0.53,0.35c-0.18,0.1-0.35,0.19-0.53,0.26c-1.54,0.63-2.78-0.07-3.01-1.71
						c-0.02-0.18-0.04-0.37-0.04-0.57c0-0.21,0.01-0.43,0.04-0.65c0.23-1.92,1.46-4.03,2.99-5.18
						C189.85,322.84,190.03,322.72,190.21,322.62z"/>
				</g>
				<g>
					<path class="st6" d="M194.3,319.15l-1.79,3.09c-0.49-0.19-1.1-0.16-1.77,0.12l-0.01-2.93
						C192.09,318.78,193.33,318.71,194.3,319.15z"/>
				</g>
				<g>
					<path class="st8" d="M184.15,330.83c0.26,3.23,2.63,4.57,5.57,3.17l0.01,1.21c-3.53,1.74-6.37,0.13-6.63-3.78L184.15,330.83z"
						/>
				</g>
				<g>
					<path class="st6" d="M196.25,315.77l-1.21,2.1c-1.16-0.55-2.66-0.46-4.31,0.35l0-1.97
						C192.85,315.16,194.78,315.04,196.25,315.77z"/>
				</g>
				<g>
					<path class="st6" d="M184.15,329.62c0.25-3.54,2.6-7.59,5.53-9.57l0.01,2.92c-1.53,1.15-2.76,3.26-2.99,5.18L184.15,329.62z"/>
				</g>
				<g>
					<path class="st5" d="M196.87,314.68l-0.62,1.08c-1.47-0.72-3.4-0.61-5.53,0.48l0-1.23c2.34-1.21,4.47-1.36,6.11-0.62
						L196.87,314.68z"/>
				</g>
				<g>
					<path class="st6" d="M186.69,329.36c0.23,1.64,1.47,2.34,3.01,1.71l0.01,2.93c-2.93,1.4-5.31,0.06-5.57-3.17L186.69,329.36z"/>
				</g>
				<g>
					<path class="st8" d="M183.09,330.23c0.25-4.21,3.07-9.07,6.58-11.4l0,1.22c-2.93,1.98-5.28,6.04-5.53,9.57L183.09,330.23z"/>
				</g>
				<g>
					<path class="st8" d="M184.15,329.62l2.55-1.47c-0.03,0.22-0.04,0.43-0.04,0.65c0,0.2,0.02,0.39,0.04,0.57l-2.55,1.47
						l-1.06,0.61l-1.7,0.98l-1.07,0.62l-1.03,0.6c-0.29,0.17-0.53,0.03-0.53-0.28c0-0.35,0.23-0.76,0.52-0.93l1.03-0.6l1.07-0.62
						l1.7-0.98L184.15,329.62z"/>
				</g>
				<g>
					<path class="st6" d="M181.39,331.21c0.25-5.3,3.81-11.48,8.28-14.36l0,1.97c-3.52,2.33-6.33,7.19-6.58,11.4L181.39,331.21z"/>
				</g>
				<g>
					<path class="st6" d="M209.41,295.52l-38.3,22.12l0.12,43.15l38.3-22.11L209.41,295.52z M201.18,320.99l-1.03,0.6
						c-0.24,5.96-4.29,12.99-9.37,16.22l0,1.19c0,0.35-0.22,0.73-0.53,0.91c-0.27,0.16-0.53,0.05-0.53-0.3l0-1.19
						c-5.06,2.61-9.14,0.29-9.41-5.38l-1.03,0.6c-0.29,0.17-0.53,0.03-0.53-0.28c0-0.35,0.23-0.76,0.52-0.93l1.03-0.6
						c0.26-5.97,4.3-12.99,9.35-16.21l0-1.19c0-0.33,0.25-0.75,0.52-0.91c0.31-0.18,0.53-0.03,0.53,0.3l0,1.19
						c2.34-1.21,4.47-1.36,6.11-0.62l-0.21-1.3l2.68-4.61l0.26,1.57l-0.08,0.15c0.09-0.16,0.21-0.28,0.33-0.35
						c0.12-0.07,0.23-0.08,0.32-0.02c0.17,0.1,0.17,0.43,0,0.74l0.09-0.15l1.5-0.57l-2.66,4.62l-1.27,0.49
						c1.37,1.06,2.25,2.91,2.38,5.42l1.03-0.6c0.31-0.18,0.53-0.03,0.53,0.32C201.7,320.42,201.48,320.82,201.18,320.99z"/>
				</g>
				<g>
					<path class="st8" d="M201.17,319.78l-1.03,0.6l-1.05,0.61l-1.72,1l-1.06,0.61l-2.55,1.47c0.03,0.19,0.04,0.39,0.04,0.6
						c0,0.2-0.01,0.4-0.03,0.6l2.54-1.47l1.06-0.61l1.72-0.99l1.05-0.61l1.03-0.6c0.3-0.18,0.52-0.58,0.52-0.89
						C201.7,319.75,201.48,319.61,201.17,319.78z"/>
				</g>
				<g>
					<polygon class="st5" points="190.29,326.83 190.68,326.37 199.47,311.15 199.67,310.59 199.28,311.05 190.49,326.27 					"/>
				</g>
				<g>
					<path class="st6" d="M183.09,331.44c0.26,3.91,3.1,5.52,6.63,3.78l0,2c-4.48,2.28-8.07,0.2-8.33-4.79L183.09,331.44z"/>
				</g>
				<g>
					<polygon class="st1" points="250.37,256.8 250.41,271.85 212.11,293.96 212.07,278.91 					"/>
				</g>
				<g>
					<polygon class="st6" points="332.3,147.66 332.47,205.88 254.06,251.15 253.9,192.93 					"/>
				</g>
				<g>
					<polygon class="st1" points="233.16,231.09 233.17,232.73 231.16,233.89 230.6,234.21 226.39,236.65 226.39,235.01 
						230.6,232.58 231.16,232.25 					"/>
				</g>
				<g>
					<path class="st7" d="M231.78,247.06l5.23,3.68l-11.35-0.16l-16.26,9.39c-1.43,0.82-2.57,0.15-2.57-1.47l0-1.68l11.21-6.47
						c0.34-0.2,0.67-0.45,0.97-0.76l3.06-1.71l0.53-0.3l6.52-3.77l0-1.64l-6.52,3.77l-0.53,0.3l-1.5,0.87
						c0.2-0.56,0.31-1.13,0.31-1.66l0-1.25l0.34-0.2l0.7-0.4l0.58-0.33l0-1.64l-0.58,0.33l-0.7,0.4l-0.34,0.2l-0.01-2.73l0.27-0.16
						l0.54-0.31l3.04-1.76l0-1.64l-3.04,1.75l-0.54,0.31l-0.27,0.16l-0.02-8.57l13.49-7.79c1.41-0.81,2.57-0.15,2.57,1.47
						l0.05,17.82c0,1.62-1.15,3.61-2.56,4.43L231.78,247.06z M229.51,239.22l0.56-0.32l3.11-1.79l0-1.64l-3.11,1.79l-0.56,0.32
						l-5.37,3.1l0,1.64L229.51,239.22z M222.51,234.51l6.52-3.77l-0.01-1.64l-6.52,3.76l-0.71,0.41l-0.56,0.32l0,1.64l0.56-0.32
						L222.51,234.51z M231.16,232.25l-0.56,0.32l-4.21,2.43l0.01,1.64l4.21-2.43l0.56-0.32l2.01-1.16l-0.01-1.64L231.16,232.25z
						 M230.62,228.18l0,1.64l2.53-1.46l0-1.64L230.62,228.18z M230.71,241.27l0,1.64l2.48-1.43l-0.01-1.64L230.71,241.27z"/>
				</g>
				<g>
					<polygon class="st1" points="215.56,238.03 215.56,239.87 212.79,241.47 212.79,239.63 					"/>
				</g>
				<g>
					<polygon class="st1" points="215.54,233.15 215.55,234.99 212.73,236.62 212.72,234.78 					"/>
				</g>
				<g>
					<polygon class="st1" points="211.01,240.66 211.01,242.5 203.74,246.69 201.67,247.89 200.92,248.32 200.92,246.49 
						201.66,246.05 203.74,244.86 					"/>
				</g>
				<g>
					<polygon class="st1" points="215.53,228.29 215.53,230.11 213.29,231.41 212.66,231.77 207.98,234.47 207.97,232.66 
						212.66,229.95 213.29,229.59 					"/>
				</g>
				<g>
					<polygon class="st1" points="194.32,255.18 194.33,257.02 191.49,258.65 191.49,256.82 					"/>
				</g>
				<g>
					<polygon class="st1" points="199.05,247.57 199.05,249.4 194.37,252.11 193.74,252.47 191.48,253.77 191.47,251.94 
						193.73,250.63 194.36,250.27 					"/>
				</g>
				<g>
					<polygon class="st1" points="206.1,233.74 206.11,235.55 202.71,237.51 200.62,238.72 196.02,241.38 196.01,239.56 
						200.62,236.9 202.71,235.7 					"/>
				</g>
				<g>
					<path class="st9" d="M216.83,223.28c1.56-0.9,2.84-0.17,2.84,1.6l0.06,19.89c0,1.79-1.26,3.97-2.83,4.88l-16.97,9.8
						l-12.48,14.62l5.72-10.71l-2.96,1.71c-1.56,0.9-2.84,0.19-2.84-1.6l-0.06-19.89c0-1.78,1.27-3.98,2.83-4.88L216.83,223.28z
						 M210.94,235.81l-7.27,4.2l-0.8,0.46l-2.11,1.21l0,1.84l2.11-1.22l0.8-0.46l7.27-4.2L210.94,235.81z M201.67,247.89l2.07-1.2
						l7.27-4.2l0-1.84l-7.27,4.2l-2.07,1.2l-0.75,0.43l0.01,1.84L201.67,247.89z M215.58,244.75l0-1.84l-3.47,2l-0.63,0.37
						l-5.98,3.45l0,1.83l5.98-3.45l0.63-0.36L215.58,244.75z M196.01,239.56l0.01,1.81l4.6-2.66l2.09-1.2l3.4-1.96l0-1.82l-3.4,1.96
						l-2.09,1.2L196.01,239.56z M193.74,252.47l0.63-0.36l4.69-2.71l0-1.84l-4.69,2.71l-0.63,0.36l-2.26,1.3l0,1.84L193.74,252.47z
						 M203.64,251.64l0-1.84l-2.11,1.22l-0.8,0.46l-4.62,2.67l0.01,1.84l4.62-2.67l0.8-0.46L203.64,251.64z M215.53,230.11l0-1.82
						l-2.24,1.3l-0.63,0.36l-4.69,2.71l0,1.82l4.69-2.71l0.63-0.36L215.53,230.11z M191.46,247.06l0,1.84l3.48-2.01l0.63-0.36
						l3.33-1.92l-0.01-1.84l-3.33,1.92l-0.63,0.36L191.46,247.06z M194.33,257.02l0-1.84l-2.84,1.64l0,1.84L194.33,257.02z
						 M215.55,234.99l0-1.83l-2.82,1.63l0.01,1.84L215.55,234.99z M215.56,239.87l-0.01-1.84l-2.77,1.6l0,1.83L215.56,239.87z
						 M191.44,242.2l0.01,1.81l2.77-1.6l0-1.82L191.44,242.2z"/>
				</g>
				<g>
					<polygon class="st1" points="215.57,242.91 215.58,244.75 212.11,246.75 211.48,247.11 205.5,250.56 205.5,248.73 
						211.48,245.28 212.11,244.91 					"/>
				</g>
				<g>
					<path class="st6" d="M170.72,240.95l78.41-45.27l0.16,58.22l-78.4,45.27L170.72,240.95z M187.45,274.06l12.48-14.62l16.97-9.8
						c1.56-0.9,2.83-3.08,2.83-4.88l-0.06-19.89c0-1.78-1.28-2.51-2.84-1.6l-26.68,15.4c-1.56,0.9-2.83,3.1-2.83,4.88l0.06,19.89
						c0,1.8,1.28,2.51,2.84,1.6l2.96-1.71L187.45,274.06z M225.67,250.59l11.35,0.16l-5.23-3.68l2.6-1.5
						c1.41-0.81,2.56-2.81,2.56-4.43l-0.05-17.82c0-1.62-1.16-2.28-2.57-1.47l-13.49,7.79l0.05,15.83c0,0.53-0.11,1.1-0.31,1.66
						c-0.33,0.91-0.87,1.79-1.55,2.46c-0.3,0.32-0.63,0.58-0.97,0.77l-11.21,6.47l0,1.68c0,1.62,1.15,2.29,2.57,1.47L225.67,250.59z
						"/>
				</g>
				<g>
					<path class="st1" d="M229.11,242.19l-6.52,3.77l-0.53,0.3l-1.51,0.87c-0.32,0.91-0.86,1.79-1.54,2.47v0.06l3.06-1.77l0.53-0.3
						l6.52-3.77L229.11,242.19z"/>
				</g>
				<g>
					<polygon class="st1" points="221.9,243.62 222.48,243.28 222.47,241.64 221.9,241.98 221.2,242.38 220.86,242.58 
						220.86,243.53 220.87,244.22 221.2,244.02 					"/>
				</g>
				<g>
					<polygon class="st7" points="209.37,280.47 209.41,295.52 171.11,317.64 171.06,302.59 					"/>
				</g>
				<g>
					<path class="st1" d="M170.68,228.97l161.92-93.49l0.02,7.55l-161.93,93.49L170.68,228.97z M328.87,143.6l-0.01-4.08
						l-35.13,20.28l0.01,4.08L328.87,143.6z"/>
				</g>
				<g>
					<path class="st8" d="M337.88,104.93l-172.63,99.67l0.47,165.33l172.62-99.66L337.88,104.93z M329.52,114.41
						c1.43-0.82,2.59-0.16,2.59,1.48c0,1.64-1.14,3.61-2.57,4.44c-1.41,0.81-2.57,0.17-2.57-1.47
						C326.96,117.22,328.11,115.22,329.52,114.41z M321.18,119.22c1.42-0.82,2.58-0.16,2.59,1.47c0,1.64-1.15,3.61-2.58,4.44
						c-1.41,0.81-2.57,0.17-2.57-1.47C318.62,122.03,319.77,120.04,321.18,119.22z M312.84,124.04c1.43-0.83,2.59-0.17,2.59,1.47
						c0,1.64-1.15,3.61-2.58,4.44c-1.43,0.82-2.57,0.17-2.57-1.47C310.28,126.85,311.41,124.86,312.84,124.04z M170.65,216.53
						l80.97-46.75l0.02,7.53l-80.97,46.75L170.65,216.53z M170.72,240.95l78.41-45.27l0.16,58.22l-78.4,45.27L170.72,240.95z
						 M171.23,360.79l-0.17-58.2l38.3-22.11l0.04,15.05l0.12,43.16L171.23,360.79z M212.23,337.12l-0.16-58.2l38.3-22.11l0.04,15.05
						l0.12,43.15L212.23,337.12z M253.23,313.44l-0.16-58.2l38.3-22.12l0.04,15.05l0.12,43.15L253.23,313.44z M253.9,192.93
						l78.4-45.27l0.17,58.22l-78.41,45.27L253.9,192.93z M294.24,289.77l-0.17-58.2l38.3-22.11l0.04,15.05l0.12,43.15L294.24,289.77
						z M170.71,236.52l-0.02-7.55l161.92-93.49l0.02,7.55L170.71,236.52z"/>
				</g>
				<g>
					<polygon class="st6" points="253.07,255.24 253.11,270.29 291.42,248.18 291.54,291.33 253.23,313.44 					"/>
				</g>
				<g>
					<polygon class="st9" points="291.37,233.13 291.42,248.18 253.11,270.29 253.07,255.24 					"/>
				</g>
				<g>
					<polygon class="st8" points="328.86,139.52 328.87,143.6 293.75,163.88 293.73,159.8 					"/>
				</g>
				<g>
					<polygon class="st7" points="199.29,308.48 199.55,310.05 196.99,314.47 196.87,314.68 196.83,314.39 196.61,313.09 					"/>
				</g>
				<g>
					<path class="st8" d="M195.04,317.86l-0.74,1.29c-0.96-0.44-2.2-0.37-3.57,0.28l-0.01-1.22
						C192.38,317.4,193.88,317.32,195.04,317.86z"/>
				</g>
				<g>
					<path class="st5" d="M181.39,332.42c0.27,4.99,3.86,7.07,8.33,4.79l0,1.21c-5.06,2.61-9.14,0.29-9.41-5.38L181.39,332.42z"/>
				</g>
				<g>
					<path class="st8" d="M190.18,313.52c0.31-0.18,0.53-0.03,0.53,0.3l0,1.19l0,1.23l0,1.97l0.01,1.22l0.01,2.93
						c-0.17,0.07-0.35,0.16-0.53,0.26c-0.18,0.1-0.36,0.22-0.53,0.35l-0.01-2.92l0-1.22l0-1.97l0-1.23l0-1.19
						C189.66,314.1,189.91,313.68,190.18,313.52z"/>
				</g>
				<g>
					<path class="st5" d="M180.31,331.83c0.26-5.97,4.3-12.99,9.35-16.21l0,1.23c-4.47,2.88-8.03,9.06-8.28,14.36L180.31,331.83z"/>
				</g>
				<g>
					<polygon class="st1" points="233.18,235.47 233.18,237.11 230.07,238.9 229.51,239.22 224.15,242.32 224.14,240.68 
						229.51,237.58 230.07,237.26 					"/>
				</g>
				<g>
					<polygon class="st1" points="233.15,226.72 233.16,228.36 230.62,229.82 230.62,228.18 					"/>
				</g>
				<g>
					<polygon class="st1" points="203.63,249.81 203.64,251.64 201.53,252.86 200.73,253.32 196.11,255.99 196.11,254.15 
						200.73,251.48 201.52,251.02 					"/>
				</g>
				<g>
					<polygon class="st1" points="210.94,235.81 210.95,237.65 203.68,241.84 202.88,242.3 200.77,243.52 200.77,241.68 
						202.87,240.47 203.67,240.01 					"/>
				</g>
			</g>
			<g>
				<polygon class="st1" points="194.21,240.6 194.22,242.42 191.45,244.01 191.44,242.2 				"/>
			</g>
			<g>
				<polygon class="st1" points="224.7,235.98 224.71,237.62 221.67,239.37 221.13,239.69 220.85,239.84 220.85,238.2 
					221.12,238.05 221.66,237.73 				"/>
			</g>
			<g>
				<polygon class="st1" points="229.02,229.1 229.03,230.74 222.51,234.51 221.79,234.92 221.23,235.25 221.23,233.61 
					221.79,233.28 222.5,232.87 				"/>
			</g>
		</g>
		<g>
			<g class="st0">
				<g>
					<path class="st13" d="M305.8,180.52c8.28,4.81,16.56,9.62,24.84,14.43c0.82,1.64,1.27,3.72,1.28,6.18
						c0.03,9.46-6.68,21.05-14.92,25.81l-24.84-14.43c8.23-4.76,14.94-16.34,14.92-25.81C307.07,184.24,306.61,182.16,305.8,180.52z
						"/>
				</g>
				<g>
					<path class="st5" d="M291.12,207c0.11-0.15,0.21-0.31,0.3-0.47l24.84,14.44c-0.1,0.17-0.2,0.32-0.3,0.47
						C307.68,216.62,299.4,211.81,291.12,207z"/>
				</g>
				<g>
					<polygon class="st5" points="316.26,220.97 291.42,206.53 303.2,186.16 328.03,200.6 					"/>
				</g>
				<g>
					<path class="st5" d="M296.04,209.87c6.64,3.86,13.28,7.71,19.91,11.57c-0.43,0.61-0.93,1.08-1.43,1.37
						c-8.28-4.81-16.56-9.62-24.84-14.43c0.5-0.29,1-0.76,1.43-1.37C292.76,207.96,294.4,208.91,296.04,209.87z M310.9,218.52
						l-0.84-0.49l-0.88-0.51l-0.9-0.53l-0.93-0.54l-0.94-0.55l-0.95-0.55l-0.97-0.56l-0.97-0.56l-0.97-0.56l-0.96-0.56l-0.95-0.56
						l-0.94-0.55l-0.92-0.54l-0.9-0.52l-0.87-0.51l-0.85-0.5l0.85,0.5l0.87,0.51l0.9,0.52l0.92,0.54l0.94,0.55l0.95,0.56l0.96,0.56
						l0.97,0.56l0.97,0.56l0.97,0.56l0.95,0.55l0.94,0.55l0.93,0.54l0.9,0.53l0.88,0.51L310.9,218.52z"/>
				</g>
				<g>
					<path class="st5" d="M298.85,213.7c5.22,3.04,10.45,6.07,15.67,9.1c0,0,0,0,0,0c-8.28-4.81-16.56-9.62-24.84-14.43
						c1.47,0.86,2.95,1.71,4.42,2.57C295.68,211.86,297.27,212.78,298.85,213.7z"/>
				</g>
				<g>
					<path class="st8" d="M312.8,222.96l-24.84-14.43c0.47,0.28,1.1,0.2,1.73-0.16c0.63-0.37,1.25-1,1.74-1.84l24.84,14.44
						c-0.48,0.84-1.11,1.48-1.74,1.84C313.89,223.17,313.27,223.25,312.8,222.96z"/>
				</g>
				<g>
					<path class="st5" d="M298.85,213.7c5.22,3.04,10.45,6.07,15.67,9.1c-0.63,0.36-1.25,0.44-1.73,0.16l-24.84-14.43
						c0.47,0.28,1.1,0.2,1.73-0.16C292.74,210.15,295.8,211.92,298.85,213.7z"/>
				</g>
				<g>
					<polygon class="st5" points="304.17,218.05 279.33,203.62 287.96,208.53 312.8,222.96 					"/>
				</g>
				<g>
					<path class="st8" d="M312.77,222.95l-24.84-14.44c0.01,0,0.02,0.01,0.03,0.02l24.84,14.43
						C312.78,222.96,312.77,222.95,312.77,222.95z"/>
				</g>
				<g>
					<path class="st5" d="M328.03,200.6l-24.84-14.44c0.94-1.66,0.93-3.44-0.01-4.01l24.84,14.43
						C328.97,197.16,328.97,198.94,328.03,200.6z"/>
				</g>
				<g>
					<path class="st8" d="M326.28,196.78l-24.84-14.44c0.63-0.36,1.26-0.45,1.75-0.19l24.83,14.43
						C327.54,196.33,326.91,196.42,326.28,196.78z"/>
				</g>
				<g>
					<path class="st1" d="M303.84,177.93c8.28,4.81,16.56,9.62,24.84,14.43c0.78,0.69,1.44,1.55,1.95,2.59
						c-8.28-4.81-16.56-9.62-24.84-14.43C305.28,179.48,304.62,178.61,303.84,177.93z"/>
				</g>
				<g>
					<path class="st1" d="M303.84,177.93c-0.05-0.04-0.1-0.09-0.15-0.13c8.28,4.81,16.56,9.62,24.84,14.43
						c0.05,0.04,0.1,0.08,0.15,0.13c-4.78-2.78-9.57-5.56-14.35-8.34c-1.75-1.01-3.5-2.03-5.24-3.05c-0.2-0.12-0.48-0.28-0.69-0.4
						c-0.21-0.12-0.48-0.28-0.68-0.4c-0.4-0.23-0.94-0.55-1.35-0.78c-0.2-0.12-0.46-0.27-0.66-0.38c-0.19-0.11-0.45-0.26-0.64-0.37
						C304.7,178.43,304.18,178.17,303.84,177.93z"/>
				</g>
				<g>
					<path class="st8" d="M312.77,222.95l-24.84-14.44c-0.94-0.55-0.94-2.31,0.02-3.96l24.84,14.44
						C311.83,220.64,311.83,222.4,312.77,222.95z"/>
				</g>
				<g>
					<polygon class="st8" points="312.78,218.99 287.94,204.55 289.67,201.56 314.51,215.99 					"/>
				</g>
				<g>
					<path class="st8" d="M324.54,198.6l-24.84-14.43c0.48-0.82,1.11-1.46,1.74-1.82l24.84,14.44
						C325.65,197.15,325.02,197.78,324.54,198.6z"/>
				</g>
				<g>
					<path class="st8" d="M326.28,196.78c0.63-0.37,1.26-0.46,1.74-0.19c0.95,0.57,0.95,2.35,0.01,4.01l-11.77,20.37
						c-0.48,0.84-1.11,1.48-1.74,1.84c-0.63,0.36-1.25,0.44-1.73,0.16c-0.97-0.52-0.98-2.31-0.01-3.98l1.72-3l10.03-17.39
						C325.02,197.78,325.65,197.15,326.28,196.78z"/>
				</g>
				<g>
					<polygon class="st8" points="314.51,215.99 289.67,201.56 299.7,184.17 324.54,198.6 					"/>
				</g>
				<g>
					<path class="st1" d="M303.69,177.8c-0.21-0.18-0.44-0.34-0.66-0.49c4.14,2.41,8.28,4.81,12.42,7.22
						c4.14,2.41,8.28,4.81,12.42,7.22c0.23,0.15,0.45,0.31,0.67,0.49c-4.14-2.41-8.28-4.81-12.42-7.22
						c-0.97-0.56-2.27-1.32-3.25-1.89c-0.48-0.28-1.12-0.65-1.61-0.93c-0.48-0.28-1.11-0.65-1.59-0.92
						c-0.47-0.27-1.09-0.63-1.56-0.9c-0.9-0.52-2.1-1.22-2.99-1.74C304.69,178.38,304.09,178.08,303.69,177.8z"/>
				</g>
				<g>
					<path class="st1" d="M303.03,177.31c-0.11-0.07-0.21-0.13-0.32-0.2l24.84,14.43c0.11,0.06,0.21,0.13,0.32,0.2
						c-4.14-2.41-8.28-4.81-12.42-7.22c-0.49-0.29-1.14-0.66-1.63-0.95c-0.97-0.56-2.26-1.31-3.23-1.87
						c-0.47-0.28-1.11-0.64-1.59-0.92C307.01,179.62,304.99,178.52,303.03,177.31z"/>
				</g>
				<g>
					<path class="st13" d="M281.51,213.54c2.72,1.58,6.49,1.36,10.65-1.04L317,226.94c-4.16,2.4-7.93,2.62-10.65,1.04
						C298.9,223.65,288.96,217.87,281.51,213.54z"/>
				</g>
				<g>
					<polygon class="st8" points="307.63,212.07 282.79,197.64 289.67,201.56 314.51,215.99 					"/>
				</g>
				<g>
					<path class="st5" d="M279.31,203.6l24.84,14.44c0.01,0.01,0.02,0.01,0.03,0.01l-24.84-14.43
						C279.32,203.61,279.31,203.61,279.31,203.6z"/>
				</g>
				<g>
					<path class="st5" d="M281.51,213.54c-2.36-1.37-3.93-4.09-4.28-7.92c4.14,2.41,8.28,4.81,12.42,7.22
						c4.14,2.41,8.28,4.81,12.42,7.22c0.36,3.83,1.93,6.55,4.28,7.92C298.9,223.65,288.96,217.87,281.51,213.54z"/>
				</g>
				<g>
					<path class="st8" d="M305.88,212.26l-24.84-14.43c0.63-0.36,1.26-0.45,1.74-0.19l24.84,14.43
						C307.14,211.81,306.51,211.9,305.88,212.26z"/>
				</g>
				<g>
					<path class="st5" d="M277.23,205.62c-0.05-0.52-0.07-1.07-0.08-1.63c8.28,4.82,16.56,9.63,24.84,14.44
						c0,0.57,0.03,1.11,0.08,1.63c-4.14-2.41-8.28-4.81-12.42-7.22C285.5,210.44,281.36,208.03,277.23,205.62z"/>
				</g>
				<g>
					<path class="st5" d="M277.15,203.99c0,0,0-0.01,0-0.02c8.28,4.81,16.56,9.63,24.84,14.44c0,0.01,0,0.01,0,0.02
						C293.71,213.62,285.43,208.81,277.15,203.99z"/>
				</g>
				<g>
					<path class="st1" d="M292.06,178.14c4.15-2.39,7.92-2.61,10.64-1.03l24.84,14.43c-2.73-1.58-6.5-1.36-10.64,1.03
						C309.45,188.25,299.52,182.47,292.06,178.14z"/>
				</g>
				<g>
					<path class="st5" d="M277.15,203.97c0-0.06,0-0.12,0-0.17c8.28,4.81,16.56,9.62,24.84,14.43c0,0.06,0,0.12,0,0.18
						C293.71,213.6,285.43,208.79,277.15,203.97z"/>
				</g>
				<g>
					<path class="st8" d="M304.14,218.04l-24.84-14.44c-0.94-0.55-0.94-2.34,0.02-3.97c0.47-0.81,1.09-1.45,1.72-1.81l24.84,14.43
						c-0.63,0.36-1.25,1-1.72,1.81C303.2,215.7,303.2,217.49,304.14,218.04z"/>
				</g>
				<g>
					<path class="st1" d="M278.11,197.3c2.13-7.71,7.57-15.47,13.96-19.16l24.84,14.43c-6.39,3.69-11.83,11.44-13.96,19.16
						C294.67,206.92,286.38,202.11,278.11,197.3z"/>
				</g>
				<g>
					<path class="st5" d="M316.9,192.57c8.23-4.75,14.99-0.93,15.01,8.56c0.03,9.46-6.68,21.05-14.92,25.81
						c-8.26,4.77-14.98,0.94-15.01-8.53C301.96,208.92,308.65,197.34,316.9,192.57z M316.26,220.97l11.77-20.37
						c0.94-1.66,0.94-3.44-0.01-4.01c-0.49-0.26-1.12-0.17-1.75,0.19c-0.63,0.36-1.26,1-1.74,1.82l-10.03,17.39l-6.88-3.92
						c-0.49-0.26-1.12-0.17-1.74,0.19c-0.63,0.36-1.25,1-1.72,1.81c-0.96,1.65-0.96,3.46,0.01,3.98l8.62,4.91
						c0.48,0.28,1.1,0.2,1.73-0.16C315.15,222.44,315.78,221.8,316.26,220.97z"/>
				</g>
				<g>
					<path class="st8" d="M305.88,212.26c0.62-0.36,1.26-0.45,1.74-0.19l6.88,3.92l-1.72,3c-0.97,1.67-0.96,3.45,0.01,3.98
						c0.48,0.28,1.1,0.2,1.73-0.16c0.63-0.36,1.26-1,1.74-1.84c-0.48,0.84-1.11,1.48-1.74,1.84c-0.63,0.36-1.25,0.44-1.73,0.16
						l-8.62-4.91c-0.97-0.52-0.97-2.33-0.01-3.98C304.63,213.26,305.26,212.62,305.88,212.26z"/>
				</g>
				<g>
					<path class="st5" d="M277.55,199.72c7.09,4.13,14.19,8.25,21.29,12.37c1.18,0.69,2.36,1.38,3.55,2.06
						c-0.25,1.38-0.39,2.75-0.4,4.08c-4.68-2.72-9.37-5.44-14.05-8.16c-0.49-0.28-1.14-0.66-1.62-0.94
						c-1.58-0.92-3.16-1.84-4.75-2.76c-0.45-0.27-1.06-0.62-1.52-0.88c-0.44-0.26-1.03-0.6-1.47-0.86
						c-0.43-0.25-0.93-0.83-1.43-0.83C277.16,202.47,277.3,201.1,277.55,199.72z"/>
				</g>
				<g>
					<path class="st5" d="M277.55,199.72c0.07-0.36,0.14-0.72,0.22-1.08c8.28,4.81,16.56,9.62,24.84,14.43
						c-0.08,0.36-0.16,0.72-0.22,1.08c-4.27-2.48-8.53-4.96-12.79-7.44c-0.42-0.24-0.98-0.57-1.4-0.81
						c-1.39-0.81-2.77-1.61-4.16-2.42C281.87,202.23,279.71,200.97,277.55,199.72z"/>
				</g>
				<g>
					<path class="st5" d="M277.91,198.04c0.4,0.23,0.8,0.47,1.21,0.7c7.88,4.58,15.75,9.15,23.63,13.73
						c-0.05,0.2-0.09,0.4-0.14,0.59c-8.28-4.81-16.56-9.62-24.84-14.43C277.81,198.44,277.86,198.24,277.91,198.04z"/>
				</g>
				<g>
					<path class="st5" d="M277.91,198.04c0.06-0.25,0.12-0.49,0.19-0.74c8.28,4.81,16.56,9.62,24.84,14.44
						c-0.07,0.24-0.13,0.49-0.2,0.74c-1.59-0.92-3.18-1.84-4.77-2.77C291.29,205.81,284.6,201.93,277.91,198.04z"/>
				</g>
				<g>
					<path class="st1" d="M305.9,171.58l24.84,14.43c-3.55-2.06-8.45-1.78-13.85,1.34l-24.84-14.43
						C297.45,169.8,302.35,169.52,305.9,171.58z"/>
				</g>
				<g>
					<path class="st1" d="M303.15,233.51l-24.84-14.44c-3.5-2.03-5.67-6.36-5.69-12.49c-0.03-12.36,8.67-27.46,19.42-33.66
						l24.84,14.43c-10.75,6.21-19.46,21.31-19.42,33.66C297.48,227.15,299.65,231.47,303.15,233.51z"/>
				</g>
				<g>
					<path class="st13" d="M316.89,187.35c10.73-6.2,19.51-1.19,19.55,11.17c0.03,12.33-8.69,27.44-19.42,33.64
						c-10.76,6.21-19.51,1.19-19.55-11.14C297.43,208.66,306.13,193.56,316.89,187.35z M317,226.94
						c8.24-4.76,14.94-16.34,14.92-25.81c-0.03-9.49-6.78-13.31-15.01-8.56c-8.26,4.77-14.94,16.35-14.91,25.83
						C302.01,227.87,308.74,231.71,317,226.94z"/>
				</g>
			</g>
		</g>
		<g>
			<g>
				<path class="st14" d="M327.61,233.02l33.24,24.64l-0.03-10.84l-33.24-19.32c-1.64-0.94-2.47-2.17-2.48-3.4l0.03,5.52
					C325.14,230.85,325.96,232.08,327.61,233.02z"/>
				<path class="st14" d="M385.28,245.67c0.45,0.3,8.97,11.28,11.47,12.42c1.05,0.96,5.53,5.16,5.53,6.46l-0.03-10.84
					c0-1.3-4.48-5.5-5.53-6.46c-2.5-1.14-11.02-6.8-11.47-7.1c-2.82-1.35-3.79-2.75-3.79-4.02l0.03,5.52
					C381.5,242.92,382.46,244.32,385.28,245.67z"/>
				<path class="st14" d="M349.98,255.5l-10.95-6.36c-1.63-0.95-2.45-2.19-2.45-3.42l0.03,10.84c0,1.23,0.82,2.47,2.45,3.41
					l10.95,6.36L349.98,255.5z"/>
				<path class="st14" d="M329.39,256.5l0.03,10.84c0,1.23,0.82,2.47,2.46,3.41l7.32,4.26l-0.03-10.84l-7.32-4.25
					C330.21,258.96,329.39,257.72,329.39,256.5z"/>
				<path class="st14" d="M385.61,303.81c-13.24-4.83-27.37-10.38-32.66-13.77c-10.87-6.99-17.46-13.07-24.42-17.36l-3.02-1.76
					c-1.63-0.95-2.45-2.19-2.46-3.42l0.03,21.48c0,1.23,0.83,2.47,2.46,3.42c0,0,2.36,0.96,8.03,4.44c5.67,3.48,8.34,1.28,8.34-1.2
					v-2.49c0,0,7.62,6.83,16.89,11.59c9.28,4.77,20.21,7.48,26.82,9.89l50.98-29.45l-0.03-10.84L385.61,303.81z"/>
			</g>
			<g>
				<g>
					<path class="st15" d="M327.46,220.8c-3.19,1.84-3.13,4.83,0.12,6.7l33.24,19.32l-1.23,0.96l-9.08-5.28
						c-3.22-1.87-8.42-1.92-11.6-0.09c-3.16,1.82-3.11,4.84,0.12,6.72l10.95,6.36l-1.19,0.96l-5.47-3.18
						c-3.24-1.88-8.42-1.92-11.6-0.09c-3.16,1.82-3.12,4.83,0.11,6.72l7.32,4.25l-1.02,0.83l-1.16-0.68
						c-3.24-1.88-8.42-1.92-11.58-0.1c-3.18,1.84-3.11,4.85,0.11,6.72l3.02,1.76c0.02,0.01,9.28,7.62,24.42,17.36
						c5.29,3.38,19.42,8.94,32.66,13.77l50.99-29.45l1.69,0.98c0.98-6.02-6.91-16.6-11.75-21.86c-2.46-2.67-2.71-5.61-12.2-10.1
						c-6.99-3.3-10.47-3.92-13.66-6.11l-7.15-4.81c-3-2.04-5.68-2.29-8.67-0.57c-0.18,0.1-0.37,0.22-0.55,0.34
						c-2.25,1.45-5.5,4.82,0.95,7.9c0.45,0.3,8.97,5.96,11.47,7.1c1.16,1.07,6.53,6.1,5.37,6.77c-0.19,0.11-0.54,0.1-1.1-0.05
						c-9.33-2.51-24.1-11.09-24.87-11.54l-37.07-21.55C335.8,219,330.62,218.98,327.46,220.8z"/>
				</g>
			</g>
			<g>
				<g>
					<path class="st16" d="M331.73,227.86c0.3,0.02,0.62,0.03,0.95,0.03c0,0,0,0,0,0c3.58,0,9.13-1.05,10.06-3.83l-4.37-2.54
						c-2.68-1.56-7.62-1.6-10.25-0.08c-1.08,0.62-1.7,1.4-1.69,2.14c0,0.77,0.66,1.59,1.81,2.25L331.73,227.86z"/>
				</g>
			</g>
			<path class="st17" d="M328.13,280.77v8.47c0,0,0.33-2.16,3.82-1l9.14,5.51c0,0,1.06,0.75,0.83,1.91
				c-0.22,1.16-0.03,0.33-0.03,0.33l0.03-2.82l-9.98-6.09C331.95,287.08,328.71,286.17,328.13,280.77z"/>
			<path class="st14" d="M362.95,246.95c8.23-1.24,9.14,4.82,9.14,4.82C369.53,247.15,362.95,246.95,362.95,246.95z"/>
			<path class="st14" d="M369.94,241.05c8.23-1.24,9.14,4.81,9.14,4.81C376.52,241.25,369.94,241.05,369.94,241.05z"/>
			<path class="st14" d="M350.76,255.66c8.23-1.24,9.14,4.81,9.14,4.81C357.35,255.85,350.76,255.66,350.76,255.66z"/>
			<path class="st14" d="M339.89,264.02c8.23-1.24,9.13,4.82,9.13,4.82C346.47,264.21,339.89,264.02,339.89,264.02z"/>
			<g>
				<g class="st0">
					<path class="st8" d="M435.2,260.36c-5.15-1.97-12.38-0.89-20.45,3.71c-16.04,9.15-29.32,28.74-29.68,43.74
						c-0.18,7.45,2.87,12.37,7.94,14.32l36.43,19.48c-5.08-1.94-8.12-6.87-7.94-14.32c0.35-15.01,13.64-34.6,29.68-43.74
						c8.07-4.6,15.3-5.69,20.45-3.72L435.2,260.36z"/>
					<path class="st6" d="M451.18,283.55c-16.04,9.15-29.32,28.74-29.68,43.74c-0.36,15,12.34,19.74,28.38,10.59
						c16.04-9.15,29.35-28.73,29.71-43.73C479.94,279.16,467.21,274.4,451.18,283.55z"/>
				</g>
			</g>
		</g>
	</g>
</g>
<g id="Layer_1">
</g>
</svg>
