<?xml version="1.0" encoding="utf-8"?>
<!-- Generator: Adobe Illustrator 26.0.1, SVG Export Plug-In . SVG Version: 6.00 Build 0)  -->
<svg version="1.1" id="Illustration" xmlns="http://www.w3.org/2000/svg" xmlns:xlink="http://www.w3.org/1999/xlink" x="0px"
	 y="0px" viewBox="0 0 500 500" style="enable-background:new 0 0 500 500;" xml:space="preserve">
<style type="text/css">
	.st0{fill:#999999;}
	.st1{opacity:0.5;fill:url(#SVGID_1_);}
	.st2{opacity:0.5;fill:url(#SVGID_00000006673987322885062910000018286080106564311192_);}
	.st3{fill:url(#SVGID_00000030446054047862263790000008368666452558527884_);}
	.st4{opacity:0.57;fill:#FFFFFF;}
	.st5{fill:url(#SVGID_00000093857460064912583520000017800497178009549194_);}
	.st6{fill:url(#SVGID_00000091735482753355988680000017206233576889094327_);}
	.st7{fill:url(#SVGID_00000094612541837153059090000001064452066386238372_);}
	.st8{fill:url(#SVGID_00000005260840317743315460000005018857428914329512_);}
	.st9{fill:url(#SVGID_00000128479435735438194900000012419834790839466403_);}
	.st10{fill:url(#SVGID_00000045613953354820324680000012473943601126998705_);}
	.st11{opacity:0.5;fill:#FFFFFF;}
	.st12{fill:url(#SVGID_00000121254944535122348460000015108940549229004701_);}
	.st13{fill:url(#SVGID_00000096751056779382818970000006504388123801533842_);}
	.st14{fill:url(#SVGID_00000157281179349888420570000008953712389476916405_);}
	.st15{opacity:0.65;fill:#FFFFFF;}
	.st16{fill:url(#SVGID_00000003098508129684006850000015306197391582332599_);}
	.st17{fill:#FFFFFF;}
	.st18{fill:url(#SVGID_00000067919132186028083340000014778522209152145815_);}
	.st19{fill:url(#SVGID_00000026121816059585983080000010937591767773522879_);}
	.st20{fill:url(#SVGID_00000011739470935446213130000015472802518166113699_);}
	.st21{fill:url(#SVGID_00000135669054520285548770000006328939811264880782_);}
	.st22{opacity:0.69;fill:#FFFFFF;}
	.st23{fill:url(#SVGID_00000175310891637062073650000001297733713473307296_);}
	.st24{fill:url(#SVGID_00000090983401639855806470000015191219785162014851_);}
	.st25{fill:url(#SVGID_00000055698766884091945480000016294279913808256163_);}
	.st26{fill:url(#SVGID_00000111898299391178483710000008928712623861149327_);}
	.st27{fill:url(#SVGID_00000041269829190384035670000016341920226222328485_);}
	.st28{fill:url(#SVGID_00000132770558763458216470000014404228569957115057_);}
	.st29{fill:url(#SVGID_00000043423220279362815650000006110179137072743833_);}
	.st30{fill:url(#SVGID_00000087375582244052699710000012874937410782409407_);}
	.st31{fill:url(#SVGID_00000176030066520569095720000006799965490380717204_);}
	.st32{fill:url(#SVGID_00000047775880741940972030000004603798420948890555_);}
	.st33{fill:url(#SVGID_00000012440056062290433740000006058272728148881556_);}
	.st34{fill:url(#SVGID_00000087390215995390520910000008713551037842355892_);}
	.st35{fill:url(#SVGID_00000103985104863816399980000012369442950405307299_);}
	.st36{fill:url(#SVGID_00000070797619653333630900000015524766138861306257_);}
	.st37{fill:url(#SVGID_00000116194157062442077730000013420553556200424106_);}
	.st38{fill:url(#SVGID_00000173120423502114580990000004618664214626929795_);}
	.st39{fill:url(#SVGID_00000072967739460047183160000004541542225455856804_);}
	.st40{fill:url(#SVGID_00000021092467226110217180000006124307166996712622_);}
	.st41{fill:url(#SVGID_00000007416635289103103370000013723900294287231384_);}
	.st42{fill:url(#SVGID_00000070811095040161365440000001750066032701919131_);}
	.st43{fill:url(#SVGID_00000116937841104948105560000012826584143603080620_);}
	.st44{fill:url(#SVGID_00000158715861423696718250000002357651394897840537_);}
	.st45{fill:url(#SVGID_00000173142111346127861470000011976533409153596349_);}
	.st46{fill:url(#SVGID_00000172411361008785474830000013375699409753283475_);}
	.st47{fill:url(#SVGID_00000160177816895049162940000015237083197608501648_);}
	.st48{fill:url(#SVGID_00000097489390319108121410000008209151748693977734_);}
	.st49{fill:url(#SVGID_00000139284161311963785700000007023857380155713453_);}
	.st50{fill:url(#SVGID_00000011754094959217558530000001512309803386218112_);}
	.st51{fill:url(#SVGID_00000129200350577048027780000012125224884680640957_);}
	.st52{fill:url(#SVGID_00000135675082971112716540000014382937664295335059_);}
	.st53{fill:url(#SVGID_00000114052034210127121570000002012782807876446904_);}
	.st54{fill:url(#SVGID_00000009581313252533571110000006688816756271726466_);}
	.st55{fill:url(#SVGID_00000084507947695607827700000009929611625642676902_);}
	.st56{fill:url(#SVGID_00000128453250847275836990000005016882171573277843_);}
	.st57{fill:url(#SVGID_00000039097383763616037830000013077554083352393856_);}
	.st58{fill:url(#SVGID_00000018934044099854776290000003012988273738658945_);}
	.st59{fill:url(#SVGID_00000115493304999632723950000004814077363235352962_);}
	.st60{fill:url(#SVGID_00000058591537466368271500000000105393661064400778_);}
	.st61{fill:url(#SVGID_00000120542532368281680700000003889416703374154921_);}
	.st62{fill:#E992EC;}
</style>
<path class="st0" d="M851.75,624.48c-1.05-0.16-1.92-0.98-2.27-2.15c-0.19-0.66-0.19-1.31,0-1.89l-9.31,2.22l4.42-10.19l0.92,0.4
	l-3.62,8.36l10.51-2.51l-1.51,1.33c-0.6,0.53-0.62,1.38-0.44,2c0.18,0.62,0.66,1.32,1.45,1.44L851.75,624.48z"/>
<g>
	<g>
		<linearGradient id="SVGID_1_" gradientUnits="userSpaceOnUse" x1="15.3273" y1="250.2483" x2="474.4971" y2="250.2483">
			<stop  offset="0" style="stop-color:#B37CFF"/>
			<stop  offset="1" style="stop-color:#F895E7"/>
		</linearGradient>
		<path class="st1" d="M454.54,232.83c-7.89-4.4-17.55-7.56-27.91-9.97c-6.12-1.42-26.7-2.49-30.58-6.94
			c-8.65-9.92-1.65-21.9,1.36-32.47c7.01-24.67-16.5-44.38-35.42-55.49c-18.44-10.82-40.15-8.91-60.52-6.28
			c-21.78,2.81-42.49,7.77-62.35,17.29c-18.12,8.7-36.52,25.01-57.49,25.67c-20.35,0.65-35.84-14.99-51.36-25.74
			c-47.96-33.24-105.78,15.3-100.8,68.27c2.59,27.49,20.71,55.37-2.66,79.33c-1.07,1.1-2.06,2.19-2.9,3.27
			c-7.78,9.96-9.06,16.56-8.44,29.85c1.6,34.62,32.56,49.97,63.08,53.76c26.23,3.26,47.29-16.24,70.95-23.56
			c22.8-7.06,47.37,4,69.08,10.49c43.62,13.05,104.26,42.74,134.72-8.1c14.6-24.36,33.87-20.88,58.67-21.9
			c28.9-1.18,50.61-23.89,59.51-50.32C479.5,256.2,470.76,241.89,454.54,232.83z"/>
		
			<linearGradient id="SVGID_00000155118252632142877740000016273277316993400706_" gradientUnits="userSpaceOnUse" x1="-1675.8301" y1="267.3174" x2="-1217.5269" y2="267.3174" gradientTransform="matrix(-1 0 0 -1 -1201.6477 517.4441)">
			<stop  offset="0" style="stop-color:#B37CFF"/>
			<stop  offset="1" style="stop-color:#F895E7"/>
		</linearGradient>
		<path style="opacity:0.5;fill:url(#SVGID_00000155118252632142877740000016273277316993400706_);" d="M36.11,266.18
			c4.79,2.81,10.21,5.09,16,6.83c11.12,3.35,23.65,2.43,34.33,7.38c16.79,7.77,10.07,22.23,5.97,36.66
			c-3.94,13.86,6.73,34.15,16.46,43.02c40.31,36.78,99.62,15.61,144.1,0.67c28.97-9.73,61.45-10.68,91.24-4.15
			c26.23,5.75,51.38,21.89,77.83,7.85c24.62-13.07,40.95-43.06,38.31-71.12c-1.46-15.57-9.04-30.35-8.64-46.11
			c0.39-15.21,8.56-27.87,16.07-40.56c15.23-25.76,1.63-59.53-23.86-71.14c-22.2-10.12-49.93-8.94-73.5-5.63
			c-13.09,1.84-26.15,4.42-39.13,6.89c-25.66,4.89-52.01,5.17-77.44-1.24c-24.25-6.11-47.29-17.18-72.91-15.64
			c-18.67,1.13-34.79,12.31-44.42,28.39c-14.6,24.36-33.87,20.88-58.67,21.89c-28.9,1.18-50.61,23.89-59.52,50.33
			C11.23,241.62,20.22,256.84,36.11,266.18z"/>
	</g>
	<g>
		
			<linearGradient id="SVGID_00000067919611854067307240000011017043802012113854_" gradientUnits="userSpaceOnUse" x1="86.1486" y1="106.5756" x2="138.6099" y2="314.6718">
			<stop  offset="0" style="stop-color:#C32B78"/>
			<stop  offset="1" style="stop-color:#593092"/>
		</linearGradient>
		<path style="fill:url(#SVGID_00000067919611854067307240000011017043802012113854_);" d="M194.79,255.87
			c-6.51-24.46-20.4-44.39-37.39-56.54c-15.19-10.86-25.73-27.13-29.06-45.48c-0.35-1.93-0.78-3.87-1.3-5.81
			c-7.83-29.42-32.21-48.47-54.45-42.55c-22.24,5.92-33.91,34.57-26.08,63.99c1.6,6.02,3.9,11.6,6.72,16.62
			c9.02,16.03,11.96,34.86,7.53,52.72c-3.96,15.96-3.94,34.15,0.94,52.49c7.28,27.35,23.79,49.03,43.53,60.51
			c7.47,4.34,14.12,10.01,19.54,16.74c9,11.17,22.15,16.87,34.63,13.54c13.47-3.59,22.39-16.66,23.72-32.37
			c0.76-8.89,3.25-17.51,7.04-25.59C199.12,305.05,201.38,280.6,194.79,255.87z"/>
		<path class="st4" d="M88.72,134.71c8.08,18.67,15.56,37.59,22.84,56.58c1.82,4.75,3.57,9.52,5.33,14.29l2.64,7.16l2.58,7.18
			c1.7,4.79,3.47,9.56,5.12,14.37l4.94,14.43c3.17,9.66,6.43,19.3,9.42,29.02c1.5,4.86,3.1,9.69,4.5,14.58l4.28,14.65
			c5.51,19.59,10.53,39.32,14.54,59.27l-0.86,0.18l-3.57-14.81l-0.88-3.7l-0.98-3.68l-1.97-7.36l-1.95-7.36
			c-0.65-2.45-1.38-4.89-2.07-7.33c-1.41-4.88-2.78-9.77-4.21-14.64c-5.88-19.44-12.02-38.8-18.56-58.04
			c-3.34-9.59-6.6-19.21-10.01-28.78l-2.54-7.18l-2.6-7.16c-1.73-4.78-3.46-9.55-5.24-14.31c-3.47-9.55-7.02-19.07-10.63-28.56
			c-3.57-9.51-7.23-18.99-10.92-28.46L88.72,134.71z"/>
	</g>
	<g>
		
			<linearGradient id="SVGID_00000106847994303220237780000000361431275625871023_" gradientUnits="userSpaceOnUse" x1="1945.5059" y1="-4534.1147" x2="1906.2954" y2="-4687.8057" gradientTransform="matrix(0.8844 -0.4667 0.4667 0.8844 530.4025 5307.6406)">
			<stop  offset="0" style="stop-color:#A737D5"/>
			<stop  offset="1" style="stop-color:#EF497A"/>
		</linearGradient>
		<path style="fill:url(#SVGID_00000106847994303220237780000000361431275625871023_);" d="M121.31,315.1
			c-7.09-13.44-17.87-23.24-29.42-28.08c-10.32-4.33-18.66-12.43-23.07-22.72c-0.46-1.08-0.98-2.16-1.54-3.22
			c-8.53-16.16-25.32-24.05-37.5-17.62c-12.18,6.43-15.15,24.74-6.62,40.9c1.74,3.3,3.83,6.26,6.16,8.82
			c7.42,8.17,11.67,18.79,11.48,29.83c-0.17,9.86,2.29,20.49,7.6,30.57c7.93,15.03,20.47,25.5,33.54,29.58
			c4.94,1.54,9.59,3.97,13.65,7.18c6.75,5.33,15.2,6.91,22.04,3.3c7.38-3.89,10.83-12.73,9.5-22.09c-0.75-5.3-0.46-10.67,0.67-15.91
			C130.45,343.29,128.48,328.69,121.31,315.1z"/>
		<path class="st4" d="M43.12,258.4c7.23,9.84,14.13,19.91,20.93,30.04c1.7,2.53,3.36,5.09,5.03,7.65l2.5,3.83l2.47,3.85
			c1.64,2.58,3.31,5.13,4.92,7.72l4.82,7.78c3.15,5.23,6.34,10.43,9.4,15.72c1.53,2.64,3.11,5.25,4.59,7.92l4.47,8
			c5.85,10.72,11.43,21.59,16.45,32.72l-0.48,0.22l-4.07-8.19l-1.01-2.05l-1.06-2.02l-2.14-4.04l-2.13-4.04
			c-0.71-1.35-1.46-2.67-2.19-4.01c-1.48-2.67-2.93-5.34-4.43-8c-6.05-10.58-12.23-21.09-18.63-31.46
			c-3.24-5.16-6.44-10.35-9.71-15.5l-2.45-3.86l-2.48-3.84c-1.65-2.56-3.3-5.12-4.98-7.67c-3.31-5.12-6.66-10.22-10.05-15.29
			c-3.36-5.09-6.77-10.14-10.2-15.19L43.12,258.4z"/>
	</g>
	<g>
		<g>
			<g>
				
					<linearGradient id="SVGID_00000092450452952524585220000008591893448640317610_" gradientUnits="userSpaceOnUse" x1="443.4811" y1="174.0865" x2="394.1535" y2="361.9517">
					<stop  offset="0" style="stop-color:#FDF53F"/>
					<stop  offset="1" style="stop-color:#D93C65"/>
				</linearGradient>
				<path style="fill:url(#SVGID_00000092450452952524585220000008591893448640317610_);" d="M432.94,262.78
					c-1.86-5.23-3.02-10.61-2.81-16.32c0.51-14.39,10.21-26.66,17.61-38.31c6.8-10.71,12.75-27.1-6.32-27.61
					c-15.19-0.4-34.5,12.74-38.18,28.18c-4.36,18.28,2.19,42.61-10.29,58.31c-17.46,21.96-27.68,15.42-31.9,55.17
					c-1.8,16.98,6.61,27.35,16.84,33.65c16.14,9.95,36.77,8.8,51.71-2.87c13.2-10.31,22.08-26.21,21.44-43.19
					C450.4,292.64,438.51,278.43,432.94,262.78z"/>
				
					<linearGradient id="SVGID_00000094581832049425340320000013096847713899116693_" gradientUnits="userSpaceOnUse" x1="663.177" y1="192.7586" x2="686.5394" y2="192.7586" gradientTransform="matrix(0.9944 0.1054 -0.1054 0.9944 -230.5991 27.8061)">
					<stop  offset="0" style="stop-color:#2B3582"/>
					<stop  offset="1" style="stop-color:#150E42"/>
				</linearGradient>
				<path style="fill:url(#SVGID_00000094581832049425340320000013096847713899116693_);" d="M415.37,395.52
					c-0.03,0-0.06,0.01-0.09,0.01c-0.32,0-0.6-0.24-0.65-0.56c-5.41-38.41-7.36-73.2-5.81-103.4c1.25-24.18,4.73-45.49,10.36-63.33
					c9.62-30.5,22-40.2,22.52-40.59c0.29-0.22,0.7-0.16,0.92,0.12c0.22,0.29,0.16,0.7-0.12,0.92c-0.03,0.02-3.18,2.47-7.46,8.61
					c-3.95,5.67-9.71,15.74-14.67,31.52c-5.58,17.75-9.03,38.94-10.25,62.99c-1.54,30.07,0.42,64.72,5.8,102.98
					C415.98,395.14,415.73,395.47,415.37,395.52z"/>
			</g>
			
				<linearGradient id="SVGID_00000129921591895875080890000008255208133918176149_" gradientUnits="userSpaceOnUse" x1="447.6057" y1="205.7734" x2="445.3327" y2="305.0256">
				<stop  offset="0" style="stop-color:#FDF53F"/>
				<stop  offset="1" style="stop-color:#D93C65"/>
			</linearGradient>
			<path style="fill:url(#SVGID_00000129921591895875080890000008255208133918176149_);" d="M452.4,222.48
				c-0.71-0.27-1.5-0.42-2.36-0.41c-4.77,0.04-7.23,4.81-9.03,8.55c-1.54,3.2-3.36,7.09-3.05,10.77c0.34,3.98,4.15,7.6,7.57,3.96
				c3.89-4.14,9.75-10.5,10.41-16.46C456.27,225.92,454.85,223.43,452.4,222.48z"/>
		</g>
		<g>
			
				<linearGradient id="SVGID_00000023959860716830911140000014089330774600805761_" gradientUnits="userSpaceOnUse" x1="483.1623" y1="250.4701" x2="397.1016" y2="455.1264">
				<stop  offset="0" style="stop-color:#53D8FF"/>
				<stop  offset="1" style="stop-color:#3840F7"/>
			</linearGradient>
			<path style="fill:url(#SVGID_00000023959860716830911140000014089330774600805761_);" d="M479.33,334.98
				c3.27-12.5,0.2-27.57-0.68-41.25c-0.47-7.23-0.28-14.34,1.62-21.37c1.89-6.99,6.05-14.33,3.72-21.75
				c-4.7-14.94-20.15-10-29.74-0.15C443.1,261.9,438.26,282,432.87,297.3c-3.25,9.22-7.66,18.57-9.87,28.09
				c-3.66,15.77-1.22,27.24,5.63,35.54c6.57,7.96,17.57,10.63,27.07,6.59C464.27,363.86,474.04,355.14,479.33,334.98z"/>
			
				<linearGradient id="SVGID_00000121269809481281413540000002663929365863966856_" gradientUnits="userSpaceOnUse" x1="924.6435" y1="-38.4898" x2="949.674" y2="-38.4898" gradientTransform="matrix(0.9438 0.3302 -0.3302 0.9438 -445.2962 49.9789)">
				<stop  offset="0" style="stop-color:#2B3582"/>
				<stop  offset="1" style="stop-color:#150E42"/>
			</linearGradient>
			<path style="fill:url(#SVGID_00000121269809481281413540000002663929365863966856_);" d="M439.36,395.53
				c-0.34,0-0.63-0.27-0.65-0.62c-0.01-0.21-1.17-21.19,1.58-49.18c2.54-25.85,9.03-63.15,25.5-94.04c0.17-0.32,0.57-0.44,0.89-0.27
				c0.32,0.17,0.44,0.57,0.27,0.89c-16.37,30.7-22.82,67.81-25.35,93.53c-2.74,27.9-1.59,48.79-1.58,49
				c0.02,0.36-0.26,0.67-0.62,0.69C439.38,395.53,439.37,395.53,439.36,395.53z"/>
		</g>
	</g>
	<path class="st11" d="M439.94,155.86c-0.03-12-13.43-27.61-32.99-10.7c-1.16-5.57-29.44-20.45-37.89,17.6
		c-3.02-8.72-21.77-2.34-23.66,13.1c-7.61-3.01-23.04,17.43,0.28,18.37c29.78,1.21,96.9-6.66,106.85-28.29
		C462.47,144.32,439.94,155.86,439.94,155.86z"/>
	<path class="st11" d="M299.7,152.25c-0.02-7.66-8.58-17.63-21.07-6.83c-0.74-3.56-18.8-13.06-24.19,11.24
		c-1.93-5.57-13.9-1.49-15.11,8.37c-4.86-1.92-14.71,11.13,0.18,11.73c19.02,0.77,61.88-4.26,68.23-18.07
		C314.09,144.87,299.7,152.25,299.7,152.25z"/>
	<g>
		
			<linearGradient id="SVGID_00000035496880327261745530000011882074225650855348_" gradientUnits="userSpaceOnUse" x1="241.3048" y1="412.3708" x2="237.1847" y2="330.7937">
			<stop  offset="0" style="stop-color:#2B3582"/>
			<stop  offset="1" style="stop-color:#150E42"/>
		</linearGradient>
		<polygon style="fill:url(#SVGID_00000035496880327261745530000011882074225650855348_);" points="206.87,319.76 200.03,381.13 
			279.42,381.13 269.08,319.76 		"/>
		
			<linearGradient id="SVGID_00000058583588265394287000000017179770090866957744_" gradientUnits="userSpaceOnUse" x1="73.5118" y1="270.3566" x2="390.4174" y2="270.3566">
			<stop  offset="0" style="stop-color:#2B3582"/>
			<stop  offset="1" style="stop-color:#150E42"/>
		</linearGradient>
		<path style="fill:url(#SVGID_00000058583588265394287000000017179770090866957744_);" d="M73.51,195.3v140.56
			c0,11.56,9.21,21.02,20.77,21.32c51.34,1.32,230.89,4.53,279.76,3.81c8.4-0.12,15.2-6.85,15.45-15.24
			c0.94-32.65,2.47-111.17-3.19-147.63c-1.19-7.68-7.67-13.42-15.44-13.67c-43.01-1.38-233.36-5.75-282.2-4.65
			C80.24,179.99,73.51,186.87,73.51,195.3z"/>
		
			<linearGradient id="SVGID_00000161606362905395268790000016558501095971669683_" gradientUnits="userSpaceOnUse" x1="161.1908" y1="321.8036" x2="452.0342" y2="79.4339">
			<stop  offset="0" style="stop-color:#FDF53F"/>
			<stop  offset="1" style="stop-color:#D93C65"/>
		</linearGradient>
		<path style="fill:url(#SVGID_00000161606362905395268790000016558501095971669683_);" d="M82.33,194.61v133.54
			c0,6.75,5.42,12.25,12.17,12.35l272.52,3.37c6.69,0.1,12.18-5.28,12.2-11.98l0.46-132.34c0.02-4.79-3.79-8.71-8.58-8.82
			l-279.01-5.64C86.74,184.96,82.33,189.26,82.33,194.61z"/>
		<path class="st15" d="M381.27,349.4C381.27,349.4,381.27,349.4,381.27,349.4l-298.95-5.09c-0.24,0-0.43-0.2-0.43-0.44
			c0-0.24,0.2-0.43,0.44-0.43l298.94,5.09c0.24,0,0.43,0.2,0.43,0.44C381.7,349.21,381.51,349.4,381.27,349.4z"/>
		
			<linearGradient id="SVGID_00000177466482728642584790000018296977189038004388_" gradientUnits="userSpaceOnUse" x1="241.5613" y1="381.5885" x2="203.6567" y2="464.8137">
			<stop  offset="0" style="stop-color:#2B3582"/>
			<stop  offset="1" style="stop-color:#150E42"/>
		</linearGradient>
		<path style="fill:url(#SVGID_00000177466482728642584790000018296977189038004388_);" d="M296.52,393.69H180.33
			c-3.16,0-5.53-2.25-4.92-4.66l1.49-5.9c0.45-1.77,2.4-3.08,4.72-3.15l112.02-3.5c2.42-0.08,4.56,1.21,5.09,3.05l2.69,9.39
			C302.11,391.37,299.73,393.69,296.52,393.69z"/>
		<path class="st17" d="M242.88,381.64c-0.24,0-0.43-0.19-0.44-0.43c0-0.24,0.19-0.44,0.43-0.44l4.8-0.07c0,0,0,0,0.01,0
			c0.24,0,0.43,0.19,0.44,0.43c0,0.24-0.19,0.44-0.43,0.44L242.88,381.64C242.88,381.64,242.88,381.64,242.88,381.64z"/>
		<path class="st17" d="M179.71,390.49c-0.02,0-0.05,0-0.07-0.01c-0.24-0.04-0.4-0.26-0.36-0.5l0.68-4.29
			c0.37-2.33,2.36-4.05,4.72-4.08l50.91-0.74c0,0,0,0,0.01,0c0.24,0,0.43,0.19,0.44,0.43c0,0.24-0.19,0.44-0.43,0.44l-50.91,0.74
			c-1.94,0.03-3.56,1.44-3.87,3.35l-0.68,4.29C180.11,390.34,179.93,390.49,179.71,390.49z"/>
		<g>
			
				<linearGradient id="SVGID_00000174573173496140129730000011902287640183560364_" gradientUnits="userSpaceOnUse" x1="152.9154" y1="292.2628" x2="352.7448" y2="125.7381">
				<stop  offset="0" style="stop-color:#53D8FF"/>
				<stop  offset="1" style="stop-color:#3840F7"/>
			</linearGradient>
			<path style="fill:url(#SVGID_00000174573173496140129730000011902287640183560364_);" d="M295.41,308.39l-190.62-4.64
				c-3.28-0.08-5.89-2.76-5.89-6.03v-94.44c0-3.33,2.7-6.04,6.04-6.04h187.91c3.27,0,5.94,2.6,6.03,5.87l2.71,99.08
				C301.69,305.65,298.87,308.48,295.41,308.39z"/>
			<g>
				
					<linearGradient id="SVGID_00000036969586129725047660000003683713291595391633_" gradientUnits="userSpaceOnUse" x1="226.2986" y1="203.6139" x2="145.3116" y2="314.6137">
					<stop  offset="0" style="stop-color:#CB236D"/>
					<stop  offset="1" style="stop-color:#4C246D"/>
				</linearGradient>
				<circle style="fill:url(#SVGID_00000036969586129725047660000003683713291595391633_);" cx="199.16" cy="240.81" r="26.63"/>
				<path class="st17" d="M219.34,254.22c-0.08,0-0.16-0.02-0.24-0.07c-0.2-0.13-0.26-0.4-0.13-0.6c1.37-2.12,2.38-4.44,3-6.87
					c0.06-0.23,0.3-0.38,0.53-0.31c0.23,0.06,0.37,0.3,0.31,0.53c-0.65,2.53-1.69,4.93-3.11,7.13
					C219.62,254.15,219.48,254.22,219.34,254.22z"/>
				<path class="st17" d="M223.14,241.25c-0.24,0-0.44-0.2-0.44-0.44c0-12.99-10.56-23.55-23.55-23.55c-0.24,0-0.44-0.2-0.44-0.44
					c0-0.24,0.2-0.44,0.44-0.44c13.47,0,24.42,10.96,24.42,24.42C223.58,241.05,223.39,241.25,223.14,241.25z"/>
				<path class="st17" d="M190.57,254.72c-0.75,0-1.36-0.6-1.38-1.35l-0.63-23.62c-0.02-0.78,0.36-1.5,1.01-1.93
					c0.65-0.43,1.46-0.49,2.17-0.16l23.34,10.91c0.77,0.36,1.26,1.11,1.29,1.96c0.02,0.85-0.43,1.63-1.18,2.03l-20.6,10.98
					c-0.68,0.36-1.51,0.1-1.87-0.57c-0.36-0.67-0.1-1.51,0.57-1.87l19.65-10.47l-21.57-10.09l0.61,22.75
					c0.02,0.76-0.58,1.4-1.35,1.42C190.59,254.72,190.58,254.72,190.57,254.72z"/>
			</g>
			<g>
				
					<linearGradient id="SVGID_00000006706873894757938510000016640231187905786012_" gradientUnits="userSpaceOnUse" x1="199.862" y1="259.2207" x2="200.1776" y2="292.3609">
					<stop  offset="0" style="stop-color:#CB236D"/>
					<stop  offset="1" style="stop-color:#4C246D"/>
				</linearGradient>
				<path style="fill:url(#SVGID_00000006706873894757938510000016640231187905786012_);" d="M98.91,283.32v14.4
					c0,3.28,2.61,5.95,5.89,6.03l190.62,4.64c3.45,0.08,6.27-2.74,6.18-6.2l-0.52-18.87H98.91z"/>
				
					<linearGradient id="SVGID_00000048480338176943318850000015221924001700769445_" gradientUnits="userSpaceOnUse" x1="199.7624" y1="259.2201" x2="200.0781" y2="292.3625">
					<stop  offset="0" style="stop-color:#53D8FF"/>
					<stop  offset="1" style="stop-color:#3840F7"/>
				</linearGradient>
				<path style="fill:url(#SVGID_00000048480338176943318850000015221924001700769445_);" d="M98.91,283.32h202.17H98.91z"/>
			</g>
			<g>
				<path class="st22" d="M104.58,293.9l0.17,1.74c0.16,1.59,1.5,2.8,3.1,2.8H276.2c1.72,0,3.11-1.39,3.11-3.11l0,0
					c0-1.71-1.38-3.1-3.08-3.11l-168.52-1.74C105.85,290.46,104.39,292.05,104.58,293.9z"/>
				
					<linearGradient id="SVGID_00000143596748399468053590000005756587110190789263_" gradientUnits="userSpaceOnUse" x1="209.6956" y1="273.1126" x2="79.2579" y2="328.9377">
					<stop  offset="0" style="stop-color:#53D8FF"/>
					<stop  offset="1" style="stop-color:#3840F7"/>
				</linearGradient>
				<path style="fill:url(#SVGID_00000143596748399468053590000005756587110190789263_);" d="M212.32,296.45
					c-0.2-1.62-0.44-3.26-0.67-4.9l-103.94-1.07c-1.86-0.02-3.32,1.58-3.13,3.43l0.17,1.74c0.16,1.59,1.5,2.8,3.1,2.8h104.75
					C212.5,297.74,212.39,297.07,212.32,296.45z"/>
				<path class="st17" d="M218.78,294.83c0,3.11-2.52,5.63-5.63,5.63c-3.11,0-5.63-2.52-5.63-5.63c0-3.11,2.52-5.63,5.63-5.63
					C216.26,289.2,218.78,291.72,218.78,294.83z"/>
			</g>
			<rect x="283.19" y="290.72" class="st22" width="3.36" height="7.64"/>
			<rect x="292.36" y="288.58" class="st22" width="3.36" height="9.78"/>
			<rect x="288.08" y="286.75" class="st22" width="3.06" height="11.62"/>
			<path class="st22" d="M98.83,315.76l0.16,16.16c0.02,2.31,1.92,4.17,4.23,4.15l192.2-1.86c2.31-0.02,4.17-1.92,4.15-4.23
				l-0.11-10.96c-0.02-2.27-1.85-4.11-4.11-4.15l-192.25-3.34C100.73,311.49,98.81,313.4,98.83,315.76z"/>
			<path class="st22" d="M249.13,321.35h-142.5c-1.04,0-1.88-0.84-1.88-1.88l0,0c0-1.04,0.84-1.88,1.88-1.88h142.5
				c1.04,0,1.88,0.84,1.88,1.88l0,0C251.01,320.51,250.17,321.35,249.13,321.35z"/>
			<path class="st22" d="M206.51,325.95H106.22c-0.81,0-1.46-0.65-1.46-1.46l0,0c0-0.81,0.65-1.46,1.46-1.46h100.29
				c0.81,0,1.46,0.65,1.46,1.46l0,0C207.97,325.29,207.32,325.95,206.51,325.95z"/>
			<path class="st22" d="M159.71,330.54H105.8c-0.58,0-1.04-0.47-1.04-1.04l0,0c0-0.58,0.47-1.04,1.04-1.04h53.91
				c0.58,0,1.04,0.47,1.04,1.04l0,0C160.75,330.07,160.28,330.54,159.71,330.54z"/>
		</g>
		<g>
			<path class="st22" d="M367.81,240.95l-52.35-1.72c-1.21-0.03-2.18-1.02-2.18-2.24v-35.01c0-1.24,1-2.24,2.24-2.24h51.35
				c1.21,0,2.2,0.96,2.24,2.18l1,36.73C370.14,239.93,369.09,240.98,367.81,240.95z"/>
			<g>
				
					<linearGradient id="SVGID_00000052798857931631308280000016138711039575504014_" gradientUnits="userSpaceOnUse" x1="351.4865" y1="206.0859" x2="321.2956" y2="247.4651">
					<stop  offset="0" style="stop-color:#FDF53F"/>
					<stop  offset="1" style="stop-color:#D93C65"/>
				</linearGradient>
				<circle style="fill:url(#SVGID_00000052798857931631308280000016138711039575504014_);" cx="341.37" cy="219.95" r="9.93"/>
				<path class="st17" d="M348.89,225c-0.04,0-0.08-0.01-0.11-0.03c-0.1-0.06-0.13-0.19-0.06-0.29c0.51-0.79,0.88-1.64,1.11-2.55
					c0.03-0.11,0.14-0.18,0.25-0.15c0.11,0.03,0.18,0.14,0.15,0.25c-0.24,0.95-0.64,1.85-1.17,2.67
					C349.03,224.96,348.96,225,348.89,225z"/>
				<path class="st17" d="M350.31,220.16c-0.12,0-0.21-0.09-0.21-0.21c0-4.82-3.92-8.73-8.73-8.73c-0.12,0-0.21-0.09-0.21-0.21
					c0-0.12,0.09-0.21,0.21-0.21c5.05,0,9.15,4.1,9.15,9.15C350.52,220.07,350.43,220.16,350.31,220.16z"/>
				<path class="st17" d="M338.17,225.14c-0.28,0-0.51-0.22-0.52-0.5l-0.24-8.81c-0.01-0.29,0.13-0.56,0.38-0.72
					c0.24-0.16,0.54-0.18,0.81-0.06l8.7,4.07c0.29,0.13,0.47,0.41,0.48,0.73c0.01,0.32-0.16,0.61-0.44,0.76l-7.68,4.09
					c-0.25,0.13-0.56,0.04-0.7-0.21c-0.13-0.25-0.04-0.56,0.21-0.7l7.32-3.9l-8.04-3.76l0.23,8.48c0.01,0.29-0.22,0.52-0.5,0.53
					C338.17,225.14,338.17,225.14,338.17,225.14z"/>
			</g>
		</g>
		<g>
			<path class="st22" d="M367.81,286.91l-52.35-1.72c-1.21-0.03-2.18-1.02-2.18-2.24v-35.01c0-1.24,1-2.24,2.24-2.24h51.35
				c1.21,0,2.2,0.96,2.24,2.18l1,36.73C370.14,285.9,369.09,286.95,367.81,286.91z"/>
			<g>
				
					<linearGradient id="SVGID_00000113339717043062556450000006673905543078083512_" gradientUnits="userSpaceOnUse" x1="351.4865" y1="252.0524" x2="321.2956" y2="293.4317">
					<stop  offset="0" style="stop-color:#53D8FF"/>
					<stop  offset="1" style="stop-color:#3840F7"/>
				</linearGradient>
				<circle style="fill:url(#SVGID_00000113339717043062556450000006673905543078083512_);" cx="341.37" cy="265.92" r="9.93"/>
				<path class="st17" d="M348.89,270.96c-0.04,0-0.08-0.01-0.11-0.03c-0.1-0.06-0.13-0.19-0.06-0.29c0.51-0.79,0.88-1.64,1.11-2.55
					c0.03-0.11,0.14-0.18,0.25-0.15c0.11,0.03,0.18,0.14,0.15,0.25c-0.24,0.95-0.64,1.85-1.17,2.67
					C349.03,270.93,348.96,270.96,348.89,270.96z"/>
				<path class="st17" d="M350.31,266.13c-0.12,0-0.21-0.09-0.21-0.21c0-4.82-3.92-8.73-8.73-8.73c-0.12,0-0.21-0.09-0.21-0.21
					c0-0.12,0.09-0.21,0.21-0.21c5.05,0,9.15,4.1,9.15,9.15C350.52,266.03,350.43,266.13,350.31,266.13z"/>
				<path class="st17" d="M338.17,271.11c-0.28,0-0.51-0.22-0.52-0.5l-0.24-8.81c-0.01-0.29,0.13-0.56,0.38-0.72
					c0.24-0.16,0.54-0.18,0.81-0.06l8.7,4.07c0.29,0.13,0.47,0.41,0.48,0.73c0.01,0.32-0.16,0.61-0.44,0.76l-7.68,4.09
					c-0.25,0.13-0.56,0.04-0.7-0.21c-0.13-0.25-0.04-0.56,0.21-0.7l7.32-3.9l-8.04-3.76l0.23,8.48c0.01,0.29-0.22,0.52-0.5,0.53
					C338.17,271.11,338.17,271.11,338.17,271.11z"/>
			</g>
		</g>
		<path class="st22" d="M368.23,298.37h-53.07c-1.04,0-1.88-0.84-1.88-1.88l0,0c0-1.04,0.84-1.88,1.88-1.88h53.07
			c1.04,0,1.88,0.84,1.88,1.88l0,0C370.11,297.52,369.27,298.37,368.23,298.37z"/>
		<path class="st22" d="M368.23,304.63h-53.07c-1.04,0-1.88-0.84-1.88-1.88l0,0c0-1.04,0.84-1.88,1.88-1.88h53.07
			c1.04,0,1.88,0.84,1.88,1.88l0,0C370.11,303.79,369.27,304.63,368.23,304.63z"/>
		<path class="st22" d="M368.23,310.9h-53.07c-1.04,0-1.88-0.84-1.88-1.88v0c0-1.04,0.84-1.88,1.88-1.88h53.07
			c1.04,0,1.88,0.84,1.88,1.88v0C370.11,310.06,369.27,310.9,368.23,310.9z"/>
		<path class="st22" d="M352.35,317.17h-37.19c-1.04,0-1.88-0.84-1.88-1.88v0c0-1.04,0.84-1.88,1.88-1.88h37.19
			c1.04,0,1.88,0.84,1.88,1.88l0,0C354.23,316.33,353.39,317.17,352.35,317.17z"/>
		<path class="st22" d="M368.23,327.2h-53.07c-1.04,0-1.88-0.84-1.88-1.88l0,0c0-1.04,0.84-1.88,1.88-1.88h53.07
			c1.04,0,1.88,0.84,1.88,1.88l0,0C370.11,326.36,369.27,327.2,368.23,327.2z"/>
		<path class="st22" d="M352.35,333.47h-37.19c-1.04,0-1.88-0.84-1.88-1.88v0c0-1.04,0.84-1.88,1.88-1.88h37.19
			c1.04,0,1.88,0.84,1.88,1.88l0,0C354.23,332.63,353.39,333.47,352.35,333.47z"/>
	</g>
	<g>
		
			<linearGradient id="SVGID_00000119813774849587398310000013856768870575808899_" gradientUnits="userSpaceOnUse" x1="293.5881" y1="318.6143" x2="446.5537" y2="318.6143">
			<stop  offset="0" style="stop-color:#CB236D"/>
			<stop  offset="1" style="stop-color:#4C246D"/>
		</linearGradient>
		<circle style="fill:url(#SVGID_00000119813774849587398310000013856768870575808899_);" cx="370.07" cy="318.61" r="76.48"/>
		<path class="st17" d="M439.49,337.39c-0.04,0-0.07,0-0.11-0.01c-0.23-0.06-0.37-0.3-0.31-0.53c1.56-5.92,2.35-12.05,2.35-18.23
			c0-0.24,0.2-0.44,0.44-0.44c0.24,0,0.44,0.2,0.44,0.44c0,6.25-0.8,12.46-2.38,18.45C439.86,337.26,439.69,337.39,439.49,337.39z"
			/>
		<path class="st17" d="M441.21,308.92c-0.02,0-0.04,0-0.06,0c-0.21,0-0.4-0.16-0.43-0.38c-2.38-16.86-10.78-32.35-23.66-43.63
			c-13-11.38-29.69-17.65-46.98-17.65c-7.24,0-14.37,1.08-21.22,3.21c-0.23,0.07-0.47-0.06-0.55-0.29
			c-0.07-0.23,0.06-0.47,0.29-0.55c6.93-2.15,14.15-3.25,21.48-3.25c17.51,0,34.4,6.35,47.56,17.87
			c13.03,11.41,21.54,27.1,23.95,44.17C441.61,308.66,441.45,308.88,441.21,308.92z"/>
		<circle class="st22" cx="370.07" cy="279.86" r="21.02"/>
		
			<ellipse transform="matrix(0.277 -0.9609 0.9609 0.277 -1.3439 557.9358)" class="st22" cx="370.07" cy="279.86" rx="15.65" ry="15.65"/>
		<circle class="st22" cx="370.07" cy="357.97" r="21.02"/>
		<circle class="st22" cx="331.01" cy="318.92" r="21.02"/>
		<circle class="st22" cx="370.07" cy="357.97" r="15.65"/>
		
			<ellipse transform="matrix(0.7071 -0.7071 0.7071 0.7071 -128.5567 327.4713)" class="st22" cx="331.01" cy="318.92" rx="15.65" ry="15.65"/>
		
			<ellipse transform="matrix(0.1701 -0.9854 0.9854 0.1701 25.2815 667.8525)" class="st22" cx="409.13" cy="318.92" rx="21.02" ry="21.02"/>
		
			<ellipse transform="matrix(0.0731 -0.9973 0.9973 0.0731 61.1584 703.6394)" class="st22" cx="409.13" cy="318.92" rx="15.65" ry="15.65"/>
		<circle class="st22" cx="371.82" cy="320.4" r="7.16"/>
	</g>
	<g>
		
			<linearGradient id="SVGID_00000080165248847824837440000012922054132531938182_" gradientUnits="userSpaceOnUse" x1="12607.0293" y1="172.863" x2="12566.8877" y2="195.775" gradientTransform="matrix(1 0 0 1 -12430.0557 0)">
			<stop  offset="0" style="stop-color:#F9B776"/>
			<stop  offset="1" style="stop-color:#F47960"/>
		</linearGradient>
		<path style="fill:url(#SVGID_00000080165248847824837440000012922054132531938182_);" d="M170.87,210.22
			c-0.05-0.02-25.51-44.61-28.95-48.8c-0.58-0.71-1.47-1.07-2.38-0.96l-7.11,0.85l-8.35,18.06l13.91-8.1
			c-1.38,9.52,16.49,23.66,22.62,28.83c0.62,0.52,0.67,1.46,0.11,2.05l-2.45,2.56c4.02,4.07,8.65,6.69,13.88,7.89L170.87,210.22z"/>
		
			<linearGradient id="SVGID_00000089545156972143057330000011851085062303318181_" gradientUnits="userSpaceOnUse" x1="-5853.6514" y1="-4095.3958" x2="-5856.7329" y2="-4048.1462" gradientTransform="matrix(-0.8974 -0.4412 -0.4412 0.8974 -6888.229 1288.3492)">
			<stop  offset="0" style="stop-color:#CB236D"/>
			<stop  offset="1" style="stop-color:#4C246D"/>
		</linearGradient>
		<path style="fill:url(#SVGID_00000089545156972143057330000011851085062303318181_);" d="M159.69,203.32c0,0-1.56,0.5-2.09,1.89
			c-0.25,0.67,0.02,1.42,0.6,1.83c2.57,1.84,11.05,7.79,14.97,8.95c0.32,0.1,0.63-0.19,0.55-0.52c-0.2-0.91-0.85-2.72-2.94-5.38
			l0.19,0.38c0.24,0.48-0.29,0.98-0.75,0.72C167.6,209.72,162.26,206.48,159.69,203.32z"/>
		
			<linearGradient id="SVGID_00000006699735438725683260000015135441270356859530_" gradientUnits="userSpaceOnUse" x1="12603.1465" y1="178.577" x2="12740.4902" y2="92.5977" gradientTransform="matrix(1 0 0 1 -12430.0557 0)">
			<stop  offset="0" style="stop-color:#F9B776"/>
			<stop  offset="1" style="stop-color:#F47960"/>
		</linearGradient>
		<path style="fill:url(#SVGID_00000006699735438725683260000015135441270356859530_);" d="M160.95,221.16
			c-0.04-0.03-3.86-9.23-3.91-9.26c-3.5-21.32-12.05-39.59-14.57-44.39c-0.42-0.81-1.23-1.34-2.14-1.42l-7.13-0.61l-11.83,16
			l15.26-5.12c-3.27,9.04,11.36,26.51,16.32,32.81c0.5,0.64,0.36,1.57-0.31,2.03l-2.91,2.01c3.11,4.8,7.12,8.3,12,10.54
			L160.95,221.16z"/>
		
			<linearGradient id="SVGID_00000103981582900399856510000017237611412000350103_" gradientUnits="userSpaceOnUse" x1="-4644.9316" y1="-5714.5869" x2="-4648.0127" y2="-5667.3403" gradientTransform="matrix(-0.7895 -0.6137 -0.6137 0.7895 -7009.501 1868.2607)">
			<stop  offset="0" style="stop-color:#CB236D"/>
			<stop  offset="1" style="stop-color:#4C246D"/>
		</linearGradient>
		<path style="fill:url(#SVGID_00000103981582900399856510000017237611412000350103_);" d="M151.4,212.14c0,0-1.63,0.18-2.43,1.43
			c-0.38,0.6-0.27,1.39,0.21,1.92c2.15,2.32,9.25,9.86,12.84,11.8c0.29,0.16,0.65-0.06,0.65-0.4c-0.01-0.93-0.28-2.84-1.79-5.87
			l0.11,0.41c0.14,0.52-0.48,0.9-0.88,0.55C157.85,220.01,153.28,215.76,151.4,212.14z"/>
		<g>
			
				<linearGradient id="SVGID_00000161625715336050663360000003297829907775530170_" gradientUnits="userSpaceOnUse" x1="4737.7295" y1="144.0946" x2="4704.7148" y2="180.275" gradientTransform="matrix(1 0 0 1 -4598.355 0)">
				<stop  offset="0" style="stop-color:#53D8FF"/>
				<stop  offset="1" style="stop-color:#3840F7"/>
			</linearGradient>
			<path style="fill:url(#SVGID_00000161625715336050663360000003297829907775530170_);" d="M99.83,162.11c0,0-6.45,9.59-6.98,13.97
				c-0.53,4.38,1.78,5.89,8.54,6.45c20.09,1.66,30-4.36,30-4.36c1.37-8.76,2.35-10.99,13.83-15.76c0,0-14.52,1.15-17.44,0.02
				C124.85,161.3,99.83,162.11,99.83,162.11z"/>
		</g>
		<g>
			
				<linearGradient id="SVGID_00000165192598509684078930000011864066702323009670_" gradientUnits="userSpaceOnUse" x1="-9362.9473" y1="-702.7664" x2="-9353.0762" y2="-678.0057" gradientTransform="matrix(-0.9446 -0.3283 -0.3283 0.9446 -8942.5234 -2315.0107)">
				<stop  offset="0" style="stop-color:#2B3582"/>
				<stop  offset="1" style="stop-color:#150E42"/>
			</linearGradient>
			<path style="fill:url(#SVGID_00000165192598509684078930000011864066702323009670_);" d="M125.56,108.35c0,0-4.49-5.32-9.27,1.21
				c-0.87,1.18-4.19,0.21-5.41,2.68c-0.63,1.28-1.99,2-3.39,1.74c-3.49-0.64-9.18-0.7-12,4.77c-2.15,4.17-0.49,6.61,1.66,8
				c1.58,1.02,2.14,3.1,1.19,4.71c-0.91,1.55-1.09,3.66,1.27,6.19c5.29,5.67,15.76-3.6,15.76-3.6l8.32-19.65L125.56,108.35z"/>
			
				<linearGradient id="SVGID_00000036225150602107162070000010229730859979363505_" gradientUnits="userSpaceOnUse" x1="12561.1641" y1="129.1083" x2="12466.5352" y2="220.387" gradientTransform="matrix(1 0 0 1 -12430.0557 0)">
				<stop  offset="0" style="stop-color:#FDF53F"/>
				<stop  offset="1" style="stop-color:#D93C65"/>
			</linearGradient>
			<path style="fill:url(#SVGID_00000036225150602107162070000010229730859979363505_);" d="M117.28,160.84
				c0,0,7.51-7.15,11.21-11.89c2-2.56,2.63-5.93,1.7-9.05c-1.69-5.69-4.69-11.58-4.96-12.5c-0.42-1.41-8.84-1.35-8.84-1.35
				s-16.57,10.76-23.09,28.98l7.31,2.28c0,0,4.33-7.26,8.6-11.88c0,0-7.4,9.77-7.66,13.78L117.28,160.84z"/>
			
				<linearGradient id="SVGID_00000100348606273763894440000009293219756518775981_" gradientUnits="userSpaceOnUse" x1="-7350.2603" y1="159.6562" x2="-7310.2734" y2="159.6562" gradientTransform="matrix(-1 0 0 1 -7243.5923 0)">
				<stop  offset="0" style="stop-color:#F9B776"/>
				<stop  offset="1" style="stop-color:#F47960"/>
			</linearGradient>
			<path style="fill:url(#SVGID_00000100348606273763894440000009293219756518775981_);" d="M131.59,163.66l-5.64-6.14l-6.52,1.76
				c0,0-7.6,1.18-11.95,0c-4.35-1.18-4.35-1.18-4.35-1.18l-9.83-3.06l-1.54,4.36c-0.39,1.11,0,2.34,0.96,3.02
				c0.85,0.6,1.85,1.27,2.48,1.55c1.29,0.57,29.82,0.18,29.82,0.18L131.59,163.66z"/>
			
				<linearGradient id="SVGID_00000165219420891652530070000013512748366507750298_" gradientUnits="userSpaceOnUse" x1="-9131.1152" y1="-501.2173" x2="-9129.1602" y2="-515.5175" gradientTransform="matrix(-0.9974 -0.0717 -0.0717 0.9974 -9020.3682 -14.2421)">
				<stop  offset="0" style="stop-color:#F9B776"/>
				<stop  offset="1" style="stop-color:#F47960"/>
			</linearGradient>
			<path style="fill:url(#SVGID_00000165219420891652530070000013512748366507750298_);" d="M122.17,115.93l-5.66,10.53
				c0.37,2.3,6.16,2.36,7.06,0.99c0.09-0.14,0.14-0.3,0.18-0.46l3.39-7.03c0.15-0.69-1.73-3-2.35-3.33l-2.25-1.2
				C121.66,114.97,125.28,114.93,122.17,115.93z"/>
			<g>
				
					<linearGradient id="SVGID_00000096057543193531866190000008310467590737607044_" gradientUnits="userSpaceOnUse" x1="-9410.8096" y1="-2496.0962" x2="-9392.4043" y2="-2528.8506" gradientTransform="matrix(-0.5458 -0.8379 -0.8379 0.5458 -7106.3169 -6394.5898)">
					<stop  offset="0" style="stop-color:#F9B776"/>
					<stop  offset="1" style="stop-color:#F47960"/>
				</linearGradient>
				<path style="fill:url(#SVGID_00000096057543193531866190000008310467590737607044_);" d="M133.63,113.46
					c0,0,0.64,3.56-2.16,8.08c-2.8,4.52-5.58,4.32-6.99,2.71c-1.41-1.61-3.11-4.3-2.34-8.81
					C122.92,110.93,132.67,108.93,133.63,113.46z"/>
				
					<linearGradient id="SVGID_00000118388765698495106440000005539197719931633855_" gradientUnits="userSpaceOnUse" x1="-9406.8516" y1="-2524.6201" x2="-9397.6494" y2="-2501.5364" gradientTransform="matrix(-0.5458 -0.8379 -0.8379 0.5458 -7106.3169 -6394.5898)">
					<stop  offset="0" style="stop-color:#2B3582"/>
					<stop  offset="1" style="stop-color:#150E42"/>
				</linearGradient>
				<path style="fill:url(#SVGID_00000118388765698495106440000005539197719931633855_);" d="M125.53,115.93c0,0,4.53-5.95,8-0.76
					l-0.06,1.79c0,0,4.52-0.21,4.03-4.38c-0.49-4.17-4.18-7.01-9.29-5.59c-5.11,1.42-8.1,3.04-8.68,6.59
					c-0.58,3.55,2.32,2.97,2.32,2.97s1.11-2.45,2.45-2.62c1.34-0.17,0.85,1.77,0.85,1.77L125.53,115.93z"/>
				
					<linearGradient id="SVGID_00000182526603014236404290000001539956032955905937_" gradientUnits="userSpaceOnUse" x1="-9406.8916" y1="-2493.8953" x2="-9388.4863" y2="-2526.6492" gradientTransform="matrix(-0.5458 -0.8379 -0.8379 0.5458 -7106.3169 -6394.5898)">
					<stop  offset="0" style="stop-color:#F9B776"/>
					<stop  offset="1" style="stop-color:#F47960"/>
				</linearGradient>
				<path style="fill:url(#SVGID_00000182526603014236404290000001539956032955905937_);" d="M124.49,115.77
					c0,0,2.34-3.04,0.21-3.67c-2.13-0.63-2.05,2.98-1.92,4.33L124.49,115.77z"/>
			</g>
		</g>
		<g>
			
				<linearGradient id="SVGID_00000049187046272316876490000011580635805530196395_" gradientUnits="userSpaceOnUse" x1="-7393.4062" y1="-69.8779" x2="-7414.3242" y2="-64.1447" gradientTransform="matrix(-0.9988 -0.0494 -0.0494 0.9988 -7279.4839 -136.2458)">
				<stop  offset="0" style="stop-color:#53D8FF"/>
				<stop  offset="1" style="stop-color:#3840F7"/>
			</linearGradient>
			<path style="fill:url(#SVGID_00000049187046272316876490000011580635805530196395_);" d="M112.91,166.09c0.02,0,0.04,0,0.06,0
				l25.96-0.03c0.64,0,1.16-0.52,1.16-1.16c0-0.64-0.52-1.17-1.16-1.16l-25.96,0.03c-0.64,0-1.16,0.52-1.16,1.16
				C111.8,165.55,112.29,166.06,112.91,166.09z"/>
			
				<linearGradient id="SVGID_00000042013538972380871670000009508628039375730345_" gradientUnits="userSpaceOnUse" x1="4144.7241" y1="155.8273" x2="4332.8618" y2="139.9985" gradientTransform="matrix(-1 0 0 1 4307.5176 0)">
				<stop  offset="0" style="stop-color:#2B3582"/>
				<stop  offset="1" style="stop-color:#150E42"/>
			</linearGradient>
			<path style="fill:url(#SVGID_00000042013538972380871670000009508628039375730345_);" d="M162.27,142.52h-21.62
				c-1.59,0-3.05,0.92-3.73,2.36l-10,21.2h26.87c1.03,0,1.95-0.63,2.33-1.58l7.75-19.61C164.32,143.75,163.49,142.52,162.27,142.52z
				"/>
			
				<linearGradient id="SVGID_00000165927002322942520470000005278115851603959978_" gradientUnits="userSpaceOnUse" x1="-7389.3784" y1="149.5871" x2="-7396.1133" y2="159.7286" gradientTransform="matrix(-1 0 0 1 -7243.5923 0)">
				<stop  offset="0" style="stop-color:#53D8FF"/>
				<stop  offset="1" style="stop-color:#3840F7"/>
			</linearGradient>
			<path style="fill:url(#SVGID_00000165927002322942520470000005278115851603959978_);" d="M147.04,153.39
				c-0.47,1.46-0.12,2.87,0.77,3.16c0.9,0.29,2-0.66,2.47-2.11c0.47-1.46,0.12-2.87-0.77-3.16
				C148.61,150.99,147.5,151.93,147.04,153.39z"/>
		</g>
	</g>
	<g>
		<g>
			
				<linearGradient id="SVGID_00000131347178770790116870000001811956060710867342_" gradientUnits="userSpaceOnUse" x1="14515.5371" y1="-2992.2017" x2="14529.7666" y2="-2992.2017" gradientTransform="matrix(0.916 0.4012 -0.4012 0.916 -14242.2412 -2707.0884)">
				<stop  offset="0" style="stop-color:#53D8FF"/>
				<stop  offset="1" style="stop-color:#3840F7"/>
			</linearGradient>
			<path style="fill:url(#SVGID_00000131347178770790116870000001811956060710867342_);" d="M258.21,380.46
				c2.97,1.47,5.95,2.67,7.96,3.43c-1.23-2.05-4.13-6.62-7.09-9.23l-2.3-1.18c0,0-1.33,0.87-2.84,3.53
				C254.11,377.67,254.96,378.85,258.21,380.46z"/>
			
				<linearGradient id="SVGID_00000006683818538804776610000017161241201071728017_" gradientUnits="userSpaceOnUse" x1="14515.5371" y1="-2989.6431" x2="14529.7666" y2="-2989.6431" gradientTransform="matrix(0.916 0.4012 -0.4012 0.916 -14242.2412 -2707.0884)">
				<stop  offset="0" style="stop-color:#53D8FF"/>
				<stop  offset="1" style="stop-color:#3840F7"/>
			</linearGradient>
			<path style="fill:url(#SVGID_00000006683818538804776610000017161241201071728017_);" d="M266.18,383.92
				c-0.01-0.01-0.01-0.02-0.02-0.03c-2.01-0.76-4.98-1.96-7.96-3.43c-3.26-1.61-4.1-2.79-4.28-3.45c-0.07,0.12-0.14,0.24-0.21,0.37
				c-0.32,0.59-0.1,1.33,0.49,1.64c2.4,1.28,8.38,4.4,11.42,5.55C266.04,384.72,266.4,384.28,266.18,383.92z"/>
			
				<linearGradient id="SVGID_00000023244659272822207040000016043068630192171160_" gradientUnits="userSpaceOnUse" x1="14516.2607" y1="-2997.0425" x2="14519.8633" y2="-2997.0425" gradientTransform="matrix(0.916 0.4012 -0.4012 0.916 -14242.2412 -2707.0884)">
				<stop  offset="0" style="stop-color:#F9B776"/>
				<stop  offset="1" style="stop-color:#F47960"/>
			</linearGradient>
			<path style="fill:url(#SVGID_00000023244659272822207040000016043068630192171160_);" d="M257.7,370.11
				c0.33,0.13-0.87,1.64-1.11,3.53c-0.05,0.43,0.1,0.85,0.49,1.03c0.25,0.12,0.56,0.24,0.88,0.35c0.48,0.17,1.01-0.03,1.25-0.47
				l2.31-4.17L257.7,370.11z"/>
		</g>
		<g>
			
				<linearGradient id="SVGID_00000111193630287582150200000001673310910030726072_" gradientUnits="userSpaceOnUse" x1="14931.4189" y1="370.8508" x2="14945.4385" y2="370.8508" gradientTransform="matrix(0.9996 -0.0293 0.0293 0.9996 -14720.2129 458.5942)">
				<stop  offset="0" style="stop-color:#53D8FF"/>
				<stop  offset="1" style="stop-color:#3840F7"/>
			</linearGradient>
			<path style="fill:url(#SVGID_00000111193630287582150200000001673310910030726072_);" d="M221.45,394.45
				c3.27,0.05,6.42-0.13,8.53-0.3c-1.96-1.31-6.47-4.15-10.21-5.23l-1.76-0.05c-0.5-0.02-0.96,0.29-1.13,0.76
				c-0.25,0.69-0.57,1.86-0.69,3.56C216.62,393.7,217.87,394.4,221.45,394.45z"/>
			
				<linearGradient id="SVGID_00000005229003501533383950000008092243126528111774_" gradientUnits="userSpaceOnUse" x1="14931.4189" y1="373.3492" x2="14945.4385" y2="373.3492" gradientTransform="matrix(0.9996 -0.0293 0.0293 0.9996 -14720.2129 458.5942)">
				<stop  offset="0" style="stop-color:#53D8FF"/>
				<stop  offset="1" style="stop-color:#3840F7"/>
			</linearGradient>
			<path style="fill:url(#SVGID_00000005229003501533383950000008092243126528111774_);" d="M230.01,394.17
				c-0.01-0.01-0.02-0.01-0.03-0.02c-2.11,0.17-5.26,0.36-8.53,0.3c-3.58-0.06-4.83-0.76-5.27-1.27c-0.01,0.14-0.02,0.28-0.03,0.42
				c-0.03,0.66,0.47,1.22,1.13,1.25c2.68,0.12,9.32,0.39,12.51,0.13C230.22,394.95,230.36,394.4,230.01,394.17z"/>
			
				<linearGradient id="SVGID_00000003826526245360696830000009655984935042285745_" gradientUnits="userSpaceOnUse" x1="15282.2754" y1="235.5507" x2="15286.8057" y2="235.5507" gradientTransform="matrix(0.9932 0.1165 -0.1165 0.9932 -14933.0898 -1627.1466)">
				<stop  offset="0" style="stop-color:#F9B776"/>
				<stop  offset="1" style="stop-color:#F47960"/>
			</linearGradient>
			<path style="fill:url(#SVGID_00000003826526245360696830000009655984935042285745_);" d="M218.67,385.14
				c0.36,0.03-0.84,2.06-1.06,3.94c-0.05,0.43,0.34,0.78,0.77,0.84c0.28,0.04,0.61,0.07,0.94,0.08c0.51,0.02,0.95-0.32,1.06-0.82
				l2.26-4.09L218.67,385.14z"/>
		</g>
		
			<linearGradient id="SVGID_00000138549600742891322410000016640388388067837600_" gradientUnits="userSpaceOnUse" x1="-6650.3228" y1="238.6732" x2="-6699.2383" y2="289.1381" gradientTransform="matrix(-0.9938 -0.1113 -0.1113 0.9938 -6359.9316 -639.3836)">
			<stop  offset="0" style="stop-color:#CB236D"/>
			<stop  offset="1" style="stop-color:#4C246D"/>
		</linearGradient>
		<path style="fill:url(#SVGID_00000138549600742891322410000016640388388067837600_);" d="M217.68,386.38
			c1.96-5.37,15.71-42.5,23.08-50.19l8.68,2.28l1.2-1.18c0,0,20.87,8.73,23.07,11.38c1.81,2.17-12.44,24.44-12.44,24.44
			s-2.51,0.64-4.56-1.56l5.5-16.05c0.23-0.66-0.13-1.37-0.79-1.59l-15.98-5.33c-0.62-0.21-1.3,0.04-1.65,0.6
			c-4.29,6.97-19.05,31.2-21.99,38.87c-0.08,0.22-0.3,0.35-0.53,0.31c-0.68-0.11-2.09-0.39-3.17-0.94
			C217.71,387.24,217.53,386.79,217.68,386.38z"/>
		
			<linearGradient id="SVGID_00000181082261434962725620000003872230766832533653_" gradientUnits="userSpaceOnUse" x1="15318.8789" y1="234.0146" x2="15304.1309" y2="253.081" gradientTransform="matrix(0.9938 0.1113 -0.1113 0.9938 -14942.4727 -1600.3517)">
			<stop  offset="0" style="stop-color:#CB236D"/>
			<stop  offset="1" style="stop-color:#4C246D"/>
		</linearGradient>
		<path style="fill:url(#SVGID_00000181082261434962725620000003872230766832533653_);" d="M244.9,347.95
			c-0.05-0.01-0.1-0.03-0.14-0.08c-0.07-0.09-0.06-0.22,0.03-0.3l2.38-1.94c0.09-0.07,0.22-0.06,0.3,0.03
			c0.07,0.09,0.06,0.22-0.03,0.3l-2.38,1.94C245.01,347.94,244.95,347.96,244.9,347.95z"/>
		
			<linearGradient id="SVGID_00000080196570798250732640000007412101362325199284_" gradientUnits="userSpaceOnUse" x1="553.0091" y1="192.744" x2="483.4008" y2="258.1538" gradientTransform="matrix(0.9938 0.1113 -0.1113 0.9938 -244.5386 45.5965)">
			<stop  offset="0" style="stop-color:#53D8FF"/>
			<stop  offset="1" style="stop-color:#3840F7"/>
		</linearGradient>
		<path style="fill:url(#SVGID_00000080196570798250732640000007412101362325199284_);" d="M267.52,305.2
			c-2.16-2.52-4.27-3.54-8.12-4.06c-2.83-0.38-5.56,1.23-6.64,3.87l-12.94,31.4c2.98,2.65,7.46,3.56,13.06,3.19l16.46-20.52
			c1.09-1.76,1.77-3.74,1.96-5.8C271.62,309.87,270.05,308.16,267.52,305.2z"/>
		
			<linearGradient id="SVGID_00000057135835430401511870000008137247446109621691_" gradientUnits="userSpaceOnUse" x1="15320.4453" y1="203.742" x2="15322.0947" y2="193.5659" gradientTransform="matrix(0.9938 0.1113 -0.1113 0.9938 -14942.4727 -1600.3517)">
			<stop  offset="0" style="stop-color:#F9B776"/>
			<stop  offset="1" style="stop-color:#F47960"/>
		</linearGradient>
		<path style="fill:url(#SVGID_00000057135835430401511870000008137247446109621691_);" d="M261.34,293.59c0,0-2.09,5.84-3.37,8.44
			c-0.17,0.35,0.09,0.76,0.45,0.89c1.31,0.49,4.43,1.57,6.03,1.44c0.32-0.02,0.59-0.26,0.66-0.57l1.8-8.07L261.34,293.59z"/>
		<g>
			
				<linearGradient id="SVGID_00000163030507039041448150000003921679636727459738_" gradientUnits="userSpaceOnUse" x1="15326.8701" y1="187.2956" x2="15315.833" y2="195.7412" gradientTransform="matrix(0.9938 0.1113 -0.1113 0.9938 -14942.4727 -1600.3517)">
				<stop  offset="0" style="stop-color:#F9B776"/>
				<stop  offset="1" style="stop-color:#F47960"/>
			</linearGradient>
			<path style="fill:url(#SVGID_00000163030507039041448150000003921679636727459738_);" d="M268.56,287.74c0,0,1.43,4.62,1.29,6.95
				c-0.13,2.33,0.2,3.89-2.53,4.05c-2.73,0.17-4.83-1.42-5.79-3.86c0,0-1.52-3.77-0.92-5.17
				C261.2,288.3,268.56,287.74,268.56,287.74z"/>
			
				<linearGradient id="SVGID_00000074442705415786350170000004130763166634676396_" gradientUnits="userSpaceOnUse" x1="15319.1162" y1="180.6288" x2="15329.1113" y2="193.4972" gradientTransform="matrix(0.9938 0.1113 -0.1113 0.9938 -14942.4727 -1600.3517)">
				<stop  offset="0" style="stop-color:#2B3582"/>
				<stop  offset="1" style="stop-color:#150E42"/>
			</linearGradient>
			<path style="fill:url(#SVGID_00000074442705415786350170000004130763166634676396_);" d="M262.63,293.33l0.34,0.04
				c0,0-1.07-3.01,0.21-3.38c1.28-0.37,6.24-0.81,7.48-2.41c1.19-1.55,0.53-3.79-0.74-4.54c-0.08-0.05-0.19-0.02-0.24,0.06
				l-0.14,0.2c-0.09,0.14-0.3,0.09-0.33-0.07l0,0c-0.03-0.15-0.22-0.21-0.32-0.09c-0.38,0.48-1.34,1.22-3.71,1.39
				c-3.37,0.24-5.7,1.33-6.01,3.61c-0.02,0.14-0.18,0.21-0.3,0.12c-0.23-0.18-0.61-0.29-1.18,0.09c-0.99,0.66-0.84,2.68,0.96,4.53
				c0.09,0.09,0.07,0.24-0.04,0.29c-0.39,0.19-0.99,0.69,0.32,1.59c1.34,0.92,2.19,0.93,2.52,0.89c0.09-0.01,0.15-0.08,0.16-0.17
				l0.1-2.04c0.01-0.11,0.1-0.18,0.2-0.17L262.63,293.33z"/>
			
				<linearGradient id="SVGID_00000084498568848286335120000005941442557100704693_" gradientUnits="userSpaceOnUse" x1="15325.501" y1="185.5063" x2="15314.4639" y2="193.9519" gradientTransform="matrix(0.9938 0.1113 -0.1113 0.9938 -14942.4727 -1600.3517)">
				<stop  offset="0" style="stop-color:#F9B776"/>
				<stop  offset="1" style="stop-color:#F47960"/>
			</linearGradient>
			<path style="fill:url(#SVGID_00000084498568848286335120000005941442557100704693_);" d="M262.67,293.76c0,0-0.42-2.9-1.77-2.25
				c-1.35,0.65,0.3,3.23,1.3,3.45L262.67,293.76z"/>
		</g>
		<g>
			
				<linearGradient id="SVGID_00000173152275871815374400000006814621197063050684_" gradientUnits="userSpaceOnUse" x1="304.9417" y1="291.1864" x2="249.7482" y2="333.5898">
				<stop  offset="0" style="stop-color:#F9B776"/>
				<stop  offset="1" style="stop-color:#F47960"/>
			</linearGradient>
			<path style="fill:url(#SVGID_00000173152275871815374400000006814621197063050684_);" d="M296.94,292.31
				c-0.41-0.1-4.07,9.08-4.07,9.08l0.85,2.54c0,0,2.61,0.03,2.77-2.12C296.66,299.52,298.64,292.74,296.94,292.31z"/>
			<g>
				
					<linearGradient id="SVGID_00000026137463045863056500000012113795274987472525_" gradientUnits="userSpaceOnUse" x1="299.4662" y1="290.9913" x2="257.9208" y2="322.9092">
					<stop  offset="0" style="stop-color:#F9B776"/>
					<stop  offset="1" style="stop-color:#F47960"/>
				</linearGradient>
				<path style="fill:url(#SVGID_00000026137463045863056500000012113795274987472525_);" d="M292.89,301.4
					c-7.06,6.17-18.83,6.4-26.32,5.65c-0.37,1.55-0.9,4.37-0.72,7.23c19.1,1.25,27.88-10.34,27.88-10.34
					C293.72,301.78,292.89,301.4,292.89,301.4z"/>
				
					<linearGradient id="SVGID_00000093141712485067151440000017971541396965535167_" gradientUnits="userSpaceOnUse" x1="265.604" y1="305.406" x2="243.6923" y2="324.989">
					<stop  offset="0" style="stop-color:#53D8FF"/>
					<stop  offset="1" style="stop-color:#3840F7"/>
				</linearGradient>
				<path style="fill:url(#SVGID_00000093141712485067151440000017971541396965535167_);" d="M266.56,307.05
					c-2.69-0.27-4.83-0.64-6-0.95c-9.53-2.58-9.53,6.29-4.46,8.41c1.92,0.8,8.03,0.42,9.74-0.22
					C265.66,311.42,266.19,308.6,266.56,307.05z"/>
			</g>
		</g>
	</g>
	<g>
		
			<linearGradient id="SVGID_00000083046615517450978010000003045541375931285921_" gradientUnits="userSpaceOnUse" x1="3666.679" y1="-2142.7673" x2="3623.5181" y2="-2168.9255" gradientTransform="matrix(0.966 0.2584 -0.408 0.8335 -4043.1143 1012.3706)">
			<stop  offset="0" style="stop-color:#53D8FF"/>
			<stop  offset="1" style="stop-color:#3840F7"/>
		</linearGradient>
		<polygon style="fill:url(#SVGID_00000083046615517450978010000003045541375931285921_);" points="353.84,146.76 349.83,155.65 
			345.53,149.11 		"/>
		
			<linearGradient id="SVGID_00000104676485706832834740000009653906867569647523_" gradientUnits="userSpaceOnUse" x1="3642.7239" y1="-2152.4387" x2="3593.3333" y2="-2204.6636" gradientTransform="matrix(0.966 0.2584 -0.408 0.8335 -4043.1143 1012.3706)">
			<stop  offset="0" style="stop-color:#53D8FF"/>
			<stop  offset="1" style="stop-color:#3840F7"/>
		</linearGradient>
		<path style="fill:url(#SVGID_00000104676485706832834740000009653906867569647523_);" d="M316.15,123.61l14.51,31.9
			c0.28,0.61,0.79,1.08,1.43,1.31c0.63,0.22,1.33,0.18,1.93-0.12l31.48-15.78c0.36-0.18,0.58-0.56,0.54-0.96
			c-0.03-0.4-0.3-0.74-0.69-0.87L316.15,123.61z"/>
		
			<linearGradient id="SVGID_00000054973767066637048140000004107676365427432107_" gradientUnits="userSpaceOnUse" x1="3663.5273" y1="-2143.2021" x2="3623.2087" y2="-2167.6377" gradientTransform="matrix(0.966 0.2584 -0.408 0.8335 -4043.1143 1012.3706)">
			<stop  offset="0" style="stop-color:#53D8FF"/>
			<stop  offset="1" style="stop-color:#3840F7"/>
		</linearGradient>
		<polygon style="fill:url(#SVGID_00000054973767066637048140000004107676365427432107_);" points="353.84,146.76 316.15,123.61 
			348.77,149.32 347.76,151.83 		"/>
		
			<linearGradient id="SVGID_00000178896771395584339770000001137200719079848581_" gradientUnits="userSpaceOnUse" x1="-7073.6133" y1="-1890.1896" x2="-7055.1895" y2="-1895.5256" gradientTransform="matrix(-0.966 -0.2584 -0.2584 0.966 -6965.1235 154.882)">
			<stop  offset="0" style="stop-color:#53D8FF"/>
			<stop  offset="1" style="stop-color:#3840F7"/>
		</linearGradient>
		<polygon style="fill:url(#SVGID_00000178896771395584339770000001137200719079848581_);" points="345.75,150.81 349.83,155.65 
			348.77,149.32 		"/>
	</g>
	<g>
		<path class="st62" d="M295.48,277.37l-1.06-0.29c-0.12-0.03-0.19-0.16-0.16-0.28c0.03-0.12,0.16-0.19,0.28-0.16c0,0,0,0,0,0
			l0.01,0l1.04,0.31l0.01,0c0.12,0.03,0.18,0.16,0.15,0.27C295.71,277.34,295.6,277.4,295.48,277.37z"/>
		<path class="st62" d="M292.33,276.33l-2-0.95c-0.14-0.07-0.2-0.23-0.13-0.37c0.07-0.14,0.23-0.2,0.37-0.13c0,0,0,0,0,0l0.03,0.01
			l1.94,0.97l0.02,0.01c0.13,0.06,0.18,0.22,0.11,0.34C292.61,276.34,292.46,276.39,292.33,276.33z"/>
		<path class="st62" d="M288.42,274.25l-1.79-1.3c-0.14-0.11-0.18-0.31-0.07-0.45c0.11-0.14,0.31-0.18,0.45-0.07c0,0,0,0,0,0
			l0.02,0.02l1.73,1.3l0.02,0.02c0.13,0.1,0.16,0.29,0.06,0.43C288.75,274.32,288.56,274.35,288.42,274.25z"/>
		<path class="st62" d="M284.95,271.49l-1.55-1.59c-0.14-0.14-0.14-0.37,0.01-0.51c0.14-0.14,0.37-0.14,0.51,0.01c0,0,0,0,0,0
			l0.02,0.02l1.48,1.57l0.02,0.02c0.13,0.14,0.12,0.35-0.01,0.48C285.3,271.63,285.08,271.63,284.95,271.49z"/>
		<path class="st62" d="M281.98,268.2l-1.29-1.81c-0.13-0.18-0.09-0.43,0.09-0.56c0.18-0.13,0.43-0.09,0.56,0.09c0,0,0,0,0,0
			l0.02,0.03l1.23,1.78l0.02,0.02c0.12,0.17,0.08,0.41-0.1,0.53C282.34,268.41,282.1,268.37,281.98,268.2z"/>
		<path class="st62" d="M279.54,264.5l-1.02-1.97c-0.11-0.21-0.03-0.48,0.19-0.59c0.21-0.11,0.48-0.03,0.59,0.19c0,0,0,0,0,0
			l0.01,0.03l0.96,1.94l0.01,0.03c0.1,0.21,0.02,0.46-0.19,0.56C279.89,264.78,279.64,264.7,279.54,264.5z"/>
		<path class="st62" d="M277.64,260.48l-0.73-2.1c-0.09-0.25,0.04-0.52,0.29-0.61c0.25-0.09,0.52,0.04,0.61,0.29c0,0,0,0,0,0.01
			l0.01,0.03l0.68,2.05l0.01,0.03c0.08,0.24-0.05,0.5-0.29,0.58C277.98,260.84,277.73,260.72,277.64,260.48z"/>
		<path class="st62" d="M276.33,256.24l-0.43-2.18c-0.05-0.27,0.12-0.53,0.39-0.59c0.27-0.05,0.53,0.12,0.59,0.39l0,0.01l0.01,0.03
			l0.39,2.12l0.01,0.03c0.05,0.27-0.13,0.52-0.39,0.57C276.63,256.67,276.38,256.5,276.33,256.24z"/>
		<path class="st62" d="M275.63,251.84l-0.11-2.23c-0.01-0.29,0.21-0.53,0.5-0.55c0.29-0.01,0.53,0.21,0.55,0.5l0,0.01l0,0.04
			l0.08,2.15l0,0.04c0.01,0.28-0.21,0.52-0.49,0.53C275.88,252.34,275.64,252.12,275.63,251.84z"/>
		<path class="st62" d="M275.58,247.39l0.2-2.22c0.03-0.3,0.29-0.52,0.59-0.49c0.3,0.03,0.52,0.29,0.49,0.59l0,0.01l0,0.03
			l-0.22,2.15l0,0.03c-0.03,0.29-0.29,0.51-0.59,0.48C275.76,247.94,275.55,247.68,275.58,247.39z"/>
		<path class="st62" d="M276.12,242.97l0.47-2.17c0.07-0.31,0.37-0.5,0.68-0.44c0.31,0.07,0.5,0.37,0.44,0.68l0,0.01l-0.01,0.03
			l-0.48,2.1l-0.01,0.03c-0.07,0.3-0.37,0.49-0.67,0.42C276.24,243.57,276.05,243.27,276.12,242.97z"/>
		<path class="st62" d="M277.19,238.66l0.72-2.1c0.11-0.31,0.44-0.48,0.75-0.37c0.31,0.11,0.48,0.44,0.37,0.75l0,0.01l-0.01,0.03
			l-0.72,2.04l-0.01,0.03c-0.11,0.3-0.44,0.46-0.74,0.35C277.24,239.29,277.09,238.96,277.19,238.66z"/>
		<path class="st62" d="M278.74,234.49l0.93-2.02c0.14-0.31,0.51-0.44,0.82-0.3c0.31,0.14,0.44,0.51,0.3,0.82l0,0.01l-0.01,0.03
			l-0.93,1.95l-0.01,0.03c-0.14,0.3-0.5,0.43-0.81,0.29C278.72,235.15,278.6,234.79,278.74,234.49z"/>
		<path class="st62" d="M280.7,230.51l1.12-1.91c0.18-0.3,0.57-0.41,0.87-0.23c0.3,0.18,0.41,0.57,0.23,0.87l0,0.01l-0.02,0.03
			l-1.11,1.85l-0.02,0.03c-0.18,0.3-0.56,0.39-0.86,0.21C280.62,231.19,280.53,230.81,280.7,230.51z"/>
		<path class="st62" d="M283.03,226.74l1.29-1.81c0.21-0.3,0.63-0.37,0.92-0.15c0.3,0.21,0.37,0.63,0.15,0.92l0,0.01l-0.02,0.02
			l-1.27,1.75l-0.02,0.02c-0.21,0.29-0.62,0.35-0.91,0.14C282.89,227.43,282.83,227.03,283.03,226.74z"/>
		<path class="st62" d="M285.69,223.19l1.44-1.69c0.24-0.28,0.66-0.31,0.94-0.07c0.28,0.24,0.31,0.66,0.07,0.94l0,0l-0.02,0.02
			l-1.41,1.64l-0.02,0.02c-0.24,0.28-0.66,0.31-0.94,0.07C285.49,223.88,285.45,223.46,285.69,223.19z"/>
		<path class="st62" d="M288.64,219.87l1.57-1.57c0.26-0.26,0.69-0.26,0.96,0c0.26,0.26,0.26,0.69,0,0.96l0,0l-0.02,0.02l-1.54,1.53
			l-0.02,0.02c-0.26,0.26-0.69,0.26-0.95,0C288.37,220.56,288.37,220.13,288.64,219.87z"/>
		<path class="st62" d="M291.83,216.8c0.55-0.49,1.12-0.97,1.68-1.44c0.29-0.24,0.72-0.21,0.96,0.08c0.24,0.29,0.21,0.72-0.08,0.96
			l0,0l-0.01,0.01c-0.55,0.46-1.11,0.93-1.65,1.4c-0.28,0.25-0.71,0.22-0.96-0.06C291.53,217.47,291.55,217.04,291.83,216.8z"/>
		<path class="st62" d="M295.25,213.97l1.78-1.32c0.31-0.23,0.74-0.16,0.97,0.15c0.23,0.31,0.16,0.74-0.15,0.97l0,0l-0.02,0.01
			l-1.75,1.28l-0.02,0.01c-0.31,0.22-0.74,0.16-0.96-0.15C294.88,214.63,294.94,214.2,295.25,213.97z"/>
		<path class="st62" d="M298.86,211.41l1.87-1.18c0.33-0.21,0.76-0.11,0.97,0.22c0.21,0.33,0.11,0.76-0.22,0.97l0,0l-0.02,0.01
			l-1.83,1.15l-0.02,0.01c-0.33,0.2-0.75,0.11-0.96-0.22C298.44,212.04,298.54,211.61,298.86,211.41z"/>
		<path class="st62" d="M302.64,209.11l1.95-1.05c0.34-0.19,0.77-0.06,0.96,0.29c0.19,0.34,0.06,0.77-0.29,0.96l0,0l-0.02,0.01
			l-1.91,1.02l-0.02,0.01c-0.34,0.18-0.77,0.05-0.95-0.29C302.17,209.71,302.3,209.29,302.64,209.11z"/>
		<path class="st62" d="M306.57,207.07l2.02-0.92c0.36-0.16,0.78,0,0.95,0.36s0,0.78-0.36,0.95l0,0l-0.02,0.01l-1.97,0.89
			l-0.02,0.01c-0.36,0.16-0.78,0-0.94-0.36C306.06,207.65,306.22,207.23,306.57,207.07z"/>
		<path class="st62" d="M310.63,205.31l2.07-0.78c0.37-0.14,0.79,0.05,0.93,0.42c0.14,0.37-0.05,0.79-0.42,0.93l0,0l-0.02,0.01
			l-2.03,0.75l-0.02,0.01c-0.37,0.14-0.79-0.05-0.92-0.42S310.26,205.45,310.63,205.31z"/>
		<path class="st62" d="M314.81,203.82l2.12-0.64c0.39-0.12,0.79,0.1,0.91,0.49c0.12,0.39-0.1,0.79-0.49,0.91l0,0l-0.02,0.01
			l-2.08,0.62l-0.02,0.01c-0.38,0.11-0.79-0.1-0.9-0.49C314.21,204.34,314.42,203.94,314.81,203.82z"/>
		<path class="st62" d="M319.07,202.61l2.16-0.5c0.4-0.09,0.79,0.16,0.89,0.55c0.09,0.4-0.16,0.79-0.55,0.89l0,0l-0.02,0.01
			l-2.11,0.48l-0.02,0.01c-0.4,0.09-0.79-0.16-0.88-0.55C318.43,203.09,318.67,202.7,319.07,202.61z"/>
		<path class="st62" d="M323.4,201.68l2.19-0.35c0.4-0.07,0.78,0.21,0.85,0.61c0.07,0.4-0.21,0.78-0.61,0.85l-0.02,0l-2.14,0.35
			l-0.02,0c-0.4,0.07-0.79-0.21-0.85-0.61C322.72,202.13,323,201.75,323.4,201.68L323.4,201.68z"/>
		<path class="st62" d="M327.78,201.05l2.2-0.21c0.41-0.04,0.76,0.26,0.8,0.66c0.04,0.41-0.26,0.76-0.66,0.8l-0.02,0l-2.16,0.21
			l-0.02,0c-0.41,0.04-0.77-0.26-0.81-0.66C327.08,201.45,327.38,201.09,327.78,201.05L327.78,201.05z"/>
		<path class="st62" d="M332.2,200.7l2.22-0.06c0.4-0.01,0.74,0.31,0.75,0.71c0.01,0.4-0.31,0.74-0.71,0.75l-0.02,0l-2.17,0.07
			l-0.02,0c-0.41,0.01-0.74-0.31-0.76-0.71C331.48,201.05,331.79,200.71,332.2,200.7L332.2,200.7z"/>
		<path class="st62" d="M336.63,200.65l2.21,0.08c0.4,0.02,0.71,0.35,0.7,0.75c-0.02,0.4-0.35,0.71-0.75,0.7l-0.02,0l-2.17-0.08
			l-0.02,0c-0.4-0.01-0.72-0.35-0.7-0.76C335.89,200.95,336.23,200.63,336.63,200.65L336.63,200.65z"/>
		<path class="st62" d="M341.06,200.89l2.2,0.23c0.4,0.04,0.69,0.4,0.64,0.8c-0.04,0.4-0.4,0.69-0.8,0.64l-0.02,0l-2.15-0.22
			l-0.02,0c-0.4-0.04-0.69-0.4-0.65-0.8C340.3,201.14,340.66,200.85,341.06,200.89L341.06,200.89z"/>
		<path class="st62" d="M345.45,201.43l2.18,0.38c0.39,0.07,0.65,0.44,0.58,0.83c-0.07,0.39-0.44,0.65-0.83,0.58l-0.02,0l-2.13-0.37
			l-0.02,0c-0.39-0.07-0.66-0.44-0.59-0.83C344.69,201.62,345.06,201.36,345.45,201.43L345.45,201.43z"/>
		<path class="st62" d="M349.8,202.27l2.15,0.54c0.38,0.1,0.62,0.48,0.52,0.87c-0.1,0.38-0.48,0.62-0.87,0.52l-0.02-0.01l-2.1-0.52
			l-0.02-0.01c-0.38-0.09-0.62-0.48-0.52-0.87C349.03,202.41,349.41,202.17,349.8,202.27L349.8,202.27z"/>
		<path class="st62" d="M354.08,203.42l2.11,0.69c0.37,0.12,0.58,0.52,0.45,0.9c-0.12,0.37-0.52,0.58-0.9,0.45l-0.02-0.01
			l-2.06-0.67l-0.02-0.01c-0.37-0.12-0.58-0.52-0.46-0.9C353.3,203.5,353.7,203.3,354.08,203.42L354.08,203.42z"/>
		<path class="st62" d="M358.26,204.88l2.05,0.83c0.36,0.15,0.54,0.56,0.39,0.92c-0.15,0.36-0.56,0.54-0.92,0.39l-0.01-0.01
			l-2.02-0.81l-0.02-0.01c-0.36-0.15-0.54-0.56-0.39-0.92C357.49,204.91,357.9,204.73,358.26,204.88L358.26,204.88z"/>
		<path class="st62" d="M362.34,206.57l2.01,0.9c0.35,0.16,0.51,0.57,0.35,0.93c-0.16,0.35-0.57,0.51-0.93,0.35l0,0l-2-0.89l-0.01,0
			c-0.35-0.16-0.51-0.57-0.36-0.93C361.56,206.57,361.98,206.41,362.34,206.57L362.34,206.57z"/>
		<path class="st62" d="M366.34,208.37l1.99,0.9l0,0c0.35,0.16,0.51,0.57,0.35,0.92c-0.16,0.35-0.57,0.51-0.92,0.35l-2-0.9
			c-0.35-0.16-0.51-0.57-0.35-0.92C365.57,208.37,365.98,208.21,366.34,208.37L366.34,208.37L366.34,208.37z"/>
		<path class="st62" d="M370.33,210.16l2,0.85l0.01,0.01c0.35,0.15,0.52,0.56,0.37,0.91c-0.15,0.35-0.55,0.52-0.91,0.37l-2.03-0.86
			c-0.35-0.15-0.52-0.56-0.37-0.91c0.15-0.35,0.56-0.52,0.91-0.37l0,0L370.33,210.16z"/>
		<path class="st62" d="M374.35,211.81l2.04,0.74l0.02,0.01c0.36,0.13,0.54,0.52,0.41,0.88c-0.13,0.36-0.52,0.54-0.88,0.41
			l-2.09-0.75c-0.36-0.13-0.54-0.52-0.42-0.88c0.13-0.36,0.52-0.54,0.88-0.42l0,0L374.35,211.81z"/>
		<path class="st62" d="M378.45,213.2l2.08,0.55l0.04,0.01c0.36,0.1,0.58,0.47,0.49,0.83c-0.1,0.36-0.47,0.58-0.83,0.49l-2.16-0.56
			c-0.37-0.1-0.59-0.47-0.49-0.83c0.1-0.37,0.47-0.59,0.83-0.49l0,0L378.45,213.2z"/>
		<path class="st62" d="M382.63,214.17l2.12,0.27l0.05,0.01c0.37,0.05,0.63,0.39,0.59,0.76c-0.05,0.37-0.39,0.63-0.76,0.59
			l-2.22-0.28c-0.37-0.05-0.64-0.39-0.59-0.76c0.05-0.37,0.39-0.64,0.76-0.59l0,0L382.63,214.17z"/>
		<path class="st62" d="M386.89,214.55l2.13-0.07l0.06,0c0.37-0.01,0.68,0.28,0.7,0.65c0.01,0.37-0.28,0.68-0.65,0.7l-2.25,0.08
			c-0.37,0.01-0.69-0.28-0.7-0.65c-0.01-0.37,0.28-0.69,0.65-0.7l0,0L386.89,214.55z"/>
		<path class="st62" d="M391.13,214.2l2.07-0.48l0.07-0.02c0.36-0.08,0.72,0.14,0.8,0.5c0.08,0.36-0.14,0.72-0.5,0.8l-2.2,0.52
			c-0.36,0.08-0.72-0.14-0.81-0.5c-0.08-0.36,0.14-0.72,0.5-0.81l0,0L391.13,214.2z"/>
		<path class="st62" d="M395.21,213.03l1.94-0.87l0.06-0.03c0.33-0.15,0.73,0,0.88,0.33c0.15,0.33,0,0.73-0.33,0.88l-2.05,0.93
			c-0.34,0.15-0.73,0-0.88-0.33s0-0.73,0.33-0.88l0,0L395.21,213.03z"/>
		<path class="st62" d="M399,211.11l1.76-1.21l0.05-0.03c0.3-0.21,0.71-0.13,0.91,0.17c0.21,0.3,0.13,0.71-0.17,0.91l-1.85,1.28
			c-0.3,0.21-0.71,0.13-0.92-0.17c-0.21-0.3-0.13-0.71,0.17-0.92l0,0L399,211.11z"/>
		<path class="st62" d="M402.41,208.55l1.54-1.49l0.04-0.04c0.26-0.25,0.66-0.24,0.91,0.02c0.25,0.25,0.24,0.66-0.01,0.91l-1.6,1.57
			c-0.26,0.25-0.67,0.25-0.92-0.01c-0.25-0.26-0.25-0.67,0.01-0.92l0,0L402.41,208.55z"/>
		<path class="st62" d="M405.36,205.46l1.28-1.72l0.03-0.04c0.21-0.28,0.6-0.34,0.88-0.13c0.28,0.21,0.34,0.6,0.13,0.88l-1.33,1.81
			c-0.21,0.28-0.61,0.34-0.89,0.14c-0.28-0.21-0.34-0.61-0.14-0.89l0,0L405.36,205.46z"/>
		<path class="st62" d="M407.78,201.93l0.99-1.9l0.02-0.04c0.16-0.3,0.53-0.42,0.83-0.26c0.3,0.16,0.42,0.53,0.26,0.83l-1.02,1.99
			c-0.16,0.31-0.53,0.43-0.84,0.27c-0.31-0.16-0.43-0.53-0.27-0.84l0,0L407.78,201.93z"/>
		<path class="st62" d="M409.6,198.06l0.66-2.03l0.02-0.05c0.1-0.32,0.44-0.49,0.76-0.39c0.32,0.1,0.49,0.44,0.39,0.76l-0.68,2.14
			c-0.1,0.32-0.44,0.5-0.77,0.4c-0.32-0.1-0.5-0.44-0.4-0.77l0,0L409.6,198.06z"/>
		<path class="st62" d="M410.74,193.94l0.15-1.06c0.04-0.35,0.11-0.7,0.14-1.06c0.02-0.32,0.31-0.57,0.63-0.54
			c0.32,0.02,0.57,0.3,0.54,0.63l0,0.02c-0.03,0.37-0.09,0.74-0.14,1.11l-0.15,1.11c-0.04,0.33-0.35,0.55-0.67,0.51
			c-0.33-0.04-0.55-0.35-0.51-0.67l0,0L410.74,193.94z"/>
		<path class="st62" d="M411.13,189.68l-0.07-2.14l0-0.05c-0.01-0.32,0.24-0.58,0.56-0.59c0.32-0.01,0.58,0.24,0.59,0.55l0.09,2.23
			c0.01,0.32-0.24,0.59-0.56,0.61c-0.32,0.01-0.59-0.24-0.61-0.56l0,0L411.13,189.68z"/>
		<path class="st62" d="M410.81,185.41l-0.42-2.11l-0.01-0.04c-0.06-0.3,0.14-0.6,0.44-0.66c0.3-0.06,0.6,0.14,0.66,0.44l0.45,2.19
			c0.06,0.31-0.14,0.61-0.44,0.67c-0.31,0.06-0.61-0.14-0.67-0.44l0,0L410.81,185.41z"/>
		<path class="st62" d="M409.82,181.24l-0.74-2.02l-0.01-0.04c-0.1-0.28,0.04-0.6,0.33-0.7c0.28-0.1,0.6,0.04,0.7,0.32l0.78,2.09
			c0.11,0.29-0.04,0.61-0.33,0.71c-0.29,0.11-0.61-0.04-0.71-0.33l0,0L409.82,181.24z"/>
		<path class="st62" d="M408.19,177.26l-1.04-1.88l-0.02-0.04c-0.14-0.26-0.05-0.58,0.21-0.73c0.26-0.14,0.58-0.05,0.72,0.21
			l1.09,1.95c0.15,0.26,0.05,0.59-0.21,0.74c-0.26,0.15-0.59,0.05-0.74-0.21l0,0L408.19,177.26z"/>
		<path class="st62" d="M405.96,173.59l-1.32-1.69l-0.03-0.03c-0.18-0.23-0.14-0.55,0.09-0.73c0.23-0.18,0.55-0.14,0.73,0.09
			l1.38,1.75c0.18,0.23,0.14,0.56-0.09,0.74c-0.23,0.18-0.56,0.14-0.74-0.09l0,0L405.96,173.59z"/>
		<path class="st62" d="M403.19,170.32l-0.79-0.73c-0.26-0.24-0.52-0.49-0.8-0.72c-0.22-0.18-0.25-0.5-0.07-0.71
			c0.18-0.22,0.5-0.25,0.71-0.07l0.01,0.01c0.29,0.23,0.56,0.49,0.83,0.74l0.82,0.76c0.21,0.19,0.22,0.52,0.03,0.73
			c-0.19,0.21-0.52,0.22-0.73,0.03l0,0L403.19,170.32z"/>
		<path class="st62" d="M399.91,167.55l-1.8-1.17l-0.03-0.02c-0.23-0.15-0.29-0.45-0.15-0.68c0.15-0.23,0.45-0.29,0.68-0.15
			l1.88,1.2c0.23,0.15,0.3,0.46,0.15,0.69c-0.15,0.23-0.46,0.3-0.69,0.15l0,0L399.91,167.55z"/>
		<path class="st62" d="M396.21,165.36l-1.97-0.87l-0.03-0.02c-0.24-0.11-0.35-0.39-0.25-0.63c0.11-0.24,0.39-0.35,0.63-0.25
			l2.05,0.88c0.25,0.11,0.36,0.39,0.25,0.64c-0.11,0.25-0.39,0.36-0.64,0.25l0,0L396.21,165.36z"/>
		<path class="st62" d="M392.21,163.78l-2.08-0.56l-0.03-0.01c-0.24-0.07-0.39-0.31-0.32-0.56c0.06-0.24,0.31-0.38,0.55-0.32
			l2.16,0.55c0.25,0.06,0.4,0.32,0.34,0.57c-0.06,0.25-0.32,0.4-0.57,0.34c0,0,0,0,0,0L392.21,163.78z"/>
		<path class="st62" d="M388,162.83l-2.15-0.23l-0.03,0c-0.24-0.03-0.41-0.24-0.38-0.47c0.03-0.23,0.23-0.41,0.47-0.38l2.22,0.21
			c0.24,0.02,0.42,0.24,0.4,0.48c-0.02,0.24-0.24,0.42-0.48,0.4c0,0,0,0,0,0L388,162.83z"/>
		<path class="st62" d="M383.7,162.53l-2.15,0.11l-0.03,0c-0.22,0.01-0.42-0.16-0.43-0.38c-0.01-0.22,0.16-0.41,0.38-0.43l2.22-0.14
			c0.23-0.01,0.43,0.16,0.44,0.39c0.01,0.23-0.16,0.43-0.39,0.44c0,0,0,0,0,0L383.7,162.53z"/>
		<path class="st62" d="M379.41,162.93l-1.06,0.22l-0.53,0.11c-0.18,0.03-0.35,0.09-0.52,0.13l-0.02,0
			c-0.21,0.05-0.41-0.08-0.46-0.28c-0.05-0.2,0.08-0.41,0.28-0.46c0.18-0.05,0.36-0.1,0.54-0.14l0.54-0.12l1.09-0.24
			c0.21-0.05,0.42,0.09,0.47,0.3c0.05,0.21-0.09,0.42-0.3,0.47l0,0L379.41,162.93z"/>
		<path class="st62" d="M375.22,164.01l-2.07,0.7l-0.01,0c-0.19,0.06-0.39-0.04-0.45-0.22c-0.06-0.19,0.04-0.39,0.22-0.45l2.08-0.73
			c0.19-0.07,0.4,0.03,0.47,0.23c0.07,0.19-0.03,0.4-0.23,0.47c0,0,0,0,0,0L375.22,164.01z"/>
		<path class="st62" d="M371.08,165.42l-2.11,0.65c-0.18,0.05-0.36-0.04-0.42-0.22c-0.05-0.17,0.04-0.36,0.22-0.42l0.02-0.01
			l2.07-0.67l0.01,0c0.18-0.06,0.38,0.04,0.44,0.22C371.36,165.16,371.26,165.36,371.08,165.42
			C371.08,165.42,371.08,165.42,371.08,165.42z"/>
		<path class="st62" d="M366.81,166.59c-0.73,0.14-1.46,0.25-2.21,0.3c-0.17,0.01-0.32-0.12-0.33-0.29
			c-0.01-0.17,0.11-0.32,0.28-0.33c0.71-0.06,1.42-0.17,2.13-0.31c0.17-0.04,0.34,0.08,0.38,0.25
			C367.1,166.38,366.99,166.55,366.81,166.59C366.81,166.59,366.81,166.59,366.81,166.59z"/>
		<path class="st62" d="M362.36,166.87c-0.75-0.08-1.49-0.26-2.2-0.51c-0.15-0.05-0.23-0.22-0.17-0.36
			c0.05-0.15,0.21-0.22,0.36-0.17c0.67,0.23,1.37,0.39,2.07,0.46c0.16,0.02,0.28,0.16,0.27,0.32
			C362.67,166.77,362.53,166.89,362.36,166.87C362.36,166.87,362.36,166.87,362.36,166.87z"/>
		<path class="st62" d="M358.14,165.39c-0.64-0.39-1.24-0.84-1.78-1.36c-0.1-0.1-0.11-0.26-0.01-0.37c0.1-0.1,0.26-0.11,0.37-0.01
			c0.52,0.48,1.1,0.91,1.71,1.27c0.13,0.08,0.17,0.24,0.1,0.37C358.44,165.43,358.27,165.47,358.14,165.39
			C358.14,165.39,358.14,165.39,358.14,165.39z"/>
		<path class="st62" d="M354.92,162.3c-0.4-0.64-0.71-1.34-0.88-2.09c-0.03-0.13,0.05-0.25,0.18-0.28c0.13-0.03,0.25,0.05,0.28,0.18
			c0.16,0.68,0.46,1.33,0.84,1.93c0.07,0.12,0.04,0.27-0.08,0.34C355.15,162.45,355,162.41,354.92,162.3
			C354.92,162.3,354.92,162.3,354.92,162.3z"/>
		<path class="st62" d="M354.02,157.93c0.08-0.37,0.19-0.73,0.34-1.08c0.05-0.11,0.18-0.16,0.29-0.11c0.11,0.05,0.16,0.17,0.11,0.28
			c-0.14,0.32-0.24,0.66-0.3,1c-0.02,0.12-0.14,0.2-0.26,0.18C354.07,158.17,353.99,158.05,354.02,157.93
			C354.02,157.93,354.02,157.93,354.02,157.93z"/>
	</g>
</g>
</svg>
