<?xml version="1.0" encoding="utf-8"?>
<!-- Generator: Adobe Illustrator 26.0.3, SVG Export Plug-In . SVG Version: 6.00 Build 0)  -->
<svg version="1.1" id="Layer_1" xmlns="http://www.w3.org/2000/svg" xmlns:xlink="http://www.w3.org/1999/xlink" x="0px" y="0px"
	 viewBox="0 0 400 400" style="enable-background:new 0 0 400 400;" xml:space="preserve">
<style type="text/css">
	.st0{fill:#FDFDFD;}
	.st1{fill:#0492C9;}
	.st2{fill:#FAA453;}
	.st3{fill:#F9A454;}
	.st4{fill:#0792C8;}
	.st5{fill:#1F8894;}
	.st6{fill:#D2AC85;}
	.st7{fill:#D4AE84;}
	.st8{fill:#FBFBFC;}
</style>
<g>
	<path class="st0" d="M200,84.72c61.03,0,122.06,0.03,183.1-0.08c3.01-0.01,3.6,0.59,3.6,3.59c-0.11,74.51-0.11,149.03,0,223.54
		c0,3-0.59,3.59-3.6,3.59c-122.06-0.1-244.13-0.1-366.19,0c-3.01,0-3.6-0.59-3.6-3.59c0.11-74.51,0.11-149.03,0-223.54
		c0-3,0.59-3.6,3.6-3.59C77.94,84.75,138.97,84.72,200,84.72z M136.32,193.43c0.38,0.75,1.04,0.88,1.79,0.82l0.02,0.01
		c2.37,1.84,5.19,2.63,8.01,3.42c0.19,0.08,0.38,0.13,0.59,0.14c0.39,0.23,0.78,0.45,1.17,0.68c0.18,0.09,0.37,0.15,0.57,0.2
		c0.66,0.63,1.32,1.26,1.97,1.89c-0.16,8.6-0.59,17.19-2.17,25.67c-4.05,21.79-13.05,41.65-24.14,60.64
		c-2.56,4.38-4.75,9.06-8.5,12.66c-10.92-21.76-16.88-44.88-19.12-69.04c-2.24-24.15-0.46-47.75,9.54-70.2c1.21-2.71,1-4-1.67-5.47
		c-11.38-6.27-22.64-12.76-33.97-19.12c-4.63-2.6-7.98-1.31-9.64,3.59c-0.56,1.65-1.12,3.31-1.57,5
		c-4.91,18.67-5.62,37.66-4.36,56.8c1.24,18.92,6.34,36.58,16.05,53.03c11.16,18.91,25.23,35.34,41.08,50.37
		c0.01,0.28,0.1,0.58,0.03,0.83c-0.57,1.93-3.72,3.66-2.27,5.29c1.48,1.67,3.03-1.95,5.09-1.87c2.81,0.27,3.92,2.78,5.73,4.36
		c0.58,0.5,1.38,0.82,1.96,0.39c0.61-0.45,0.37-1.2,0.03-1.95c-1-2.18-2.97-3.96-2.79-6.63c1.77-1.52,3.54-3.04,5.32-4.55
		c17.91-15.18,33.96-32.01,46.86-51.74c6.34-9.7,10.9-20.22,15.44-30.79c4.01,0.63,7.07,3.33,10.68,4.84c0,29.61,0,59.23,0,88.84
		c0,0.61,0.1,1.14,0.79,1.34c0.73,0.77,1.58,0.67,2.47,0.35c11.67,0.06,23.35,0.07,35.02,0.2c2.56,0.03,2.79-1.38,2.77-3.34
		c-0.05-6.56-0.11-13.12-0.03-19.68c0.19-14.27-0.52-28.54,0.34-42.81c14.38,9.39,27.74,19.99,38.66,33.35
		c7.29,8.92,13.2,18.58,13.83,30.54c0.17,3.13,2.24,2.79,4.35,2.74c11.84-0.27,23.67-0.59,35.51-0.72
		c13.95-0.14,13.94-0.06,9.45-13.46c-8.42-25.11-24.33-44.65-45.36-60.27c-22.14-16.44-47.47-26.14-73.6-34.01
		c-9.91-2.98-19.95-5.55-29.93-8.31c3.06-19.63,2.98-39.25,0.3-58.92c-0.44-3.21-1.62-4.03-4.72-3.94
		c-7.46,0.23-14.98,0.63-22.38-0.06c-9.69-0.9-18.01,1.82-26.03,6.87c-2.61,1.64-2.86,2.64-1.39,5.29
		c7.12,12.86,10.32,26.86,11.41,41.42c-0.92,1.44-2.37,0.96-3.57,0.81c-4.87-0.62-9.7-1.64-14.58-2.05
		c-4.01-0.34-8.02-1.83-12.84-0.75c2.56,1.98,4.8,2.71,7.27,2.9l-0.02-0.01c0.36,0.78,1.02,0.92,1.79,0.83l0.02,0.01
		c0.45,0.64,1.04,0.93,1.83,0.75c0.2,0.09,0.4,0.15,0.62,0.18c1.01,1.16,2.32,1.62,3.82,1.67c0.12,0.11,0.26,0.16,0.42,0.15
		c0.5,0.72,1.21,0.92,2.04,0.82L136.32,193.43z M260.09,134.69c-18.43,0-36.86-0.04-55.3,0.02c-6.72,0.02-5.92-1.09-5.94,6.13
		c-0.04,16.21,0.01,32.42,0.02,48.63c0,6.72,0,6.73,6.47,8.24c0.43,0.1,0.88,0.1,1.3,0.21c30.88,7.89,60.68,18.4,87.37,36.32
		c2.28,1.53,4.43,1.97,6.98,1.21c12.84-3.83,23.14-11,30.01-22.7c7.16-12.18,8.74-25.52,8.08-39.29c-0.67-14-5.69-26.05-15.94-35.87
		c-2.16-2.07-4.3-3-7.32-2.98C297.24,134.75,278.66,134.69,260.09,134.69z"/>
	<path class="st1" d="M260.09,134.69c18.58,0,37.16,0.06,55.73-0.06c3.02-0.02,5.16,0.9,7.32,2.98
		c10.25,9.81,15.28,21.87,15.94,35.87c0.65,13.77-0.93,27.11-8.08,39.29c-6.87,11.69-17.17,18.87-30.01,22.7
		c-2.55,0.76-4.71,0.32-6.98-1.21c-26.69-17.92-56.48-28.43-87.37-36.32c-0.42-0.11-0.87-0.11-1.3-0.21
		c-6.47-1.52-6.46-1.52-6.47-8.24c-0.01-16.21-0.07-32.42-0.02-48.63c0.02-7.22-0.79-6.11,5.94-6.13
		C223.22,134.65,241.65,134.69,260.09,134.69z M241.83,181.05c-0.01,0-0.01,0-0.02,0c0,6.72,0.07,13.43-0.04,20.15
		c-0.04,2.62,0.92,3.67,3.57,3.67c10.52,0.01,21.15,1.08,31.54-0.04c9.74-1.04,18.14-6.15,21.84-16
		c6.1-16.19-5.32-30.04-23.25-31.28c-9.89-0.68-19.88,0.17-29.82,0.08c-3.23-0.03-3.95,1.24-3.88,4.15
		C241.94,168.2,241.83,174.63,241.83,181.05z"/>
	<path class="st2" d="M148.47,198.69c-0.2-0.04-0.39-0.11-0.57-0.19c-0.39-0.23-0.78-0.45-1.17-0.68c-0.2-0.01-0.4-0.06-0.59-0.14
		c-1.87-3.01-4.97-3.15-8.01-3.42c0,0-0.02-0.01-0.02-0.01c-0.38-0.74-1.03-0.91-1.79-0.82c0,0,0.01,0.01,0.01,0.01
		c-0.44-0.87-1.22-0.9-2.04-0.82c-0.16,0.01-0.3-0.04-0.42-0.15c-0.6-2.09-2.33-1.59-3.82-1.67c-0.22-0.03-0.42-0.09-0.62-0.18
		c-0.46-0.61-1.09-0.8-1.82-0.75c0,0-0.02-0.01-0.02-0.01c-0.4-0.7-1.04-0.88-1.79-0.83c0,0,0.02,0.01,0.02,0.01
		c0.12-1.65,1.12-1.91,2.41-1.39c5.63,2.27,11.68,1.11,17.49,2.17c3.91,0.71,7.71,2.64,11.88,1.72c5.27,0.2,10.31,1.84,15.51,2.52
		c6.47,0.84,12.64,3.29,19.23,3.42c9.98,2.76,20.01,5.33,29.93,8.31c26.13,7.87,51.46,17.57,73.6,34.01
		c21.03,15.62,36.94,35.16,45.36,60.27c4.49,13.4,4.5,13.32-9.45,13.46c-11.84,0.12-23.68,0.45-35.51,0.72
		c-2.11,0.05-4.19,0.39-4.35-2.74c-0.63-11.96-6.54-21.61-13.83-30.54c-10.92-13.36-24.28-23.95-38.67-33.35
		c-0.88-1.39-1.93-2.54-3.7-2.71l0.06,0.03c-2.81-2.71-6.03-4.8-9.69-6.2l0.05,0.03c-4.85-3.98-10.35-6.86-16.01-9.49l0.05,0.03
		c-3.64-2.94-7.77-4.97-12.12-6.6c-3.6-1.52-6.67-4.22-10.68-4.85c-0.78-1.55-2.25-2.16-3.71-2.85
		c-10.49-4.95-20.97-9.92-31.45-14.89C151.57,198.08,149.84,198.86,148.47,198.69z"/>
	<path class="st3" d="M111.98,304.51c-15.85-15.03-29.93-31.45-41.08-50.37c-9.7-16.45-14.8-34.11-16.05-53.03
		c-1.26-19.14-0.55-38.13,4.36-56.8c0.44-1.69,1.01-3.35,1.57-5c1.66-4.91,5.01-6.2,9.64-3.59c11.33,6.36,22.59,12.86,33.97,19.12
		c2.66,1.47,2.88,2.76,1.67,5.47c-9.99,22.45-11.78,46.06-9.54,70.2c2.24,24.16,8.2,47.28,19.12,69.03
		C115.14,301.73,114.03,303.46,111.98,304.51z"/>
	<path class="st4" d="M201.31,313.24c-0.88,0.32-1.74,0.42-2.47-0.35c-0.04-28.25-0.08-56.5-0.12-84.75c0-0.15,0-0.29,0-0.44
		c-0.02-2.38,0.63-3.22,3.14-1.9c2.65,1.39,5.14,3.3,8.31,3.51c0,0-0.05-0.03-0.05-0.03c4.62,4.36,10.08,7.32,16.01,9.49
		c0,0-0.05-0.03-0.05-0.03c2.59,3.06,5.58,5.49,9.69,6.2c0,0-0.06-0.03-0.06-0.03c0.49,1.89,2.62,2.67,2.6,5.18
		c-0.19,19.8-0.13,39.59-0.06,59.39c0.01,2.54-1,3.24-3.38,3.21c-7.87-0.09-15.75-0.12-23.62,0.01
		C207.94,312.76,204.56,312.02,201.31,313.24z"/>
	<path class="st1" d="M192.34,197.47c-6.59-0.14-12.77-2.58-19.23-3.42c-5.19-0.68-10.23-2.32-15.51-2.52
		c-2.43-1.75-6.27-0.17-8.07-3.41c-1.08-14.55-4.28-28.55-11.41-41.42c-1.47-2.65-1.22-3.64,1.39-5.29
		c8.01-5.05,16.34-7.77,26.03-6.87c7.4,0.69,14.92,0.29,22.38,0.06c3.1-0.1,4.28,0.73,4.72,3.94
		C195.31,158.22,195.4,177.85,192.34,197.47z"/>
	<path class="st4" d="M111.98,304.51c2.05-1.05,3.16-2.78,3.66-4.96c3.75-3.61,5.94-8.28,8.5-12.66
		c11.09-18.99,20.09-38.85,24.14-60.64c1.57-8.48,2.01-17.06,2.17-25.67c0.59-0.15,1.18-0.29,1.77-0.44
		c10.48,4.97,20.96,9.95,31.45,14.89c1.46,0.69,2.93,1.3,3.71,2.85c-4.54,10.56-9.1,21.09-15.44,30.79
		c-12.9,19.72-28.95,36.56-46.86,51.74c-1.78,1.51-3.55,3.03-5.32,4.55c-1.64,1.27-3.28,2.55-4.93,3.82
		c-2.06-0.08-3.61,3.55-5.09,1.87c-1.45-1.64,1.7-3.36,2.27-5.29C112.08,305.09,111.99,304.78,111.98,304.51z"/>
	<path class="st5" d="M210.18,229.31c-3.17-0.21-5.66-2.12-8.31-3.51c-2.51-1.32-3.15-0.47-3.14,1.9c0,0.15,0,0.29,0,0.44
		c0.04,28.25,0.08,56.5,0.12,84.75c-0.68-0.2-0.79-0.73-0.79-1.34c0-29.61,0-59.23,0-88.84
		C202.41,224.34,206.54,226.37,210.18,229.31z"/>
	<path class="st5" d="M201.31,313.24c3.25-1.23,6.63-0.48,9.94-0.54c7.87-0.13,15.75-0.11,23.62-0.01c2.38,0.03,3.39-0.67,3.38-3.21
		c-0.07-19.8-0.12-39.6,0.06-59.39c0.02-2.51-2.11-3.29-2.6-5.18c1.77,0.17,2.83,1.32,3.7,2.7c-0.86,14.26-0.15,28.54-0.34,42.81
		c-0.09,6.56-0.03,13.12,0.03,19.68c0.02,1.97-0.21,3.37-2.77,3.34C224.66,313.31,212.99,313.3,201.31,313.24z"/>
	<path class="st6" d="M149.53,188.13c1.8,3.24,5.64,1.65,8.07,3.41c-4.16,0.92-7.96-1.01-11.88-1.72
		c-5.81-1.06-11.86,0.1-17.49-2.17c-1.29-0.52-2.29-0.26-2.41,1.39c-2.47-0.18-4.71-0.91-7.27-2.9c4.82-1.08,8.82,0.4,12.84,0.75
		c4.88,0.42,9.71,1.43,14.58,2.05C147.16,189.09,148.61,189.56,149.53,188.13z"/>
	<path class="st7" d="M114.83,308.76c1.64-1.27,3.28-2.55,4.93-3.82c-0.17,2.67,1.79,4.45,2.79,6.63c0.34,0.74,0.58,1.49-0.03,1.95
		c-0.58,0.43-1.38,0.11-1.96-0.39C118.74,311.54,117.64,309.03,114.83,308.76z"/>
	<path class="st6" d="M138.13,194.26c3.04,0.27,6.14,0.41,8.01,3.42C143.32,196.89,140.5,196.09,138.13,194.26z"/>
	<path class="st6" d="M130.05,190.79c1.48,0.08,3.21-0.42,3.82,1.67C132.38,192.41,131.06,191.95,130.05,190.79z"/>
	<path class="st6" d="M152.22,200.13c-0.59,0.15-1.18,0.29-1.77,0.44c-0.66-0.63-1.32-1.26-1.97-1.89
		C149.84,198.86,151.57,198.08,152.22,200.13z"/>
	<path class="st6" d="M125.8,189.02c0.75-0.05,1.39,0.13,1.79,0.83C126.82,189.95,126.16,189.8,125.8,189.02z"/>
	<path class="st6" d="M127.61,189.86c0.73-0.05,1.36,0.15,1.82,0.75C128.65,190.78,128.06,190.5,127.61,189.86z"/>
	<path class="st6" d="M134.29,192.61c0.82-0.08,1.6-0.05,2.04,0.82C135.51,193.53,134.79,193.33,134.29,192.61z"/>
	<path class="st6" d="M136.32,193.43c0.76-0.09,1.41,0.08,1.79,0.82C137.36,194.31,136.7,194.18,136.32,193.43z"/>
	<path class="st6" d="M146.73,197.82c0.39,0.23,0.78,0.45,1.17,0.68C147.51,198.27,147.12,198.04,146.73,197.82z"/>
	<path class="st8" d="M241.83,181.05c0-6.42,0.11-12.85-0.05-19.27c-0.07-2.9,0.65-4.18,3.88-4.15c9.94,0.09,19.93-0.76,29.82-0.08
		c17.93,1.24,29.34,15.09,23.25,31.28c-3.71,9.84-12.1,14.95-21.84,16c-10.39,1.12-21.02,0.05-31.54,0.04
		c-2.65,0-3.61-1.06-3.57-3.67c0.11-6.71,0.04-13.43,0.04-20.15C241.82,181.05,241.82,181.05,241.83,181.05z"/>
	<path class="st5" d="M226.13,238.77c-5.93-2.17-11.39-5.12-16.01-9.49C215.78,231.91,221.28,234.79,226.13,238.77z"/>
	<path class="st5" d="M235.78,244.94c-4.1-0.7-7.1-3.13-9.69-6.2C229.74,240.14,232.96,242.23,235.78,244.94z"/>
</g>
</svg>
