<svg id="visual" viewBox="0 0 900 600" width="900" height="600" xmlns="http://www.w3.org/2000/svg" xmlns:xlink="http://www.w3.org/1999/xlink" version="1.1"><rect x="0" y="0" width="900" height="600" fill="#FFFFFF"></rect><path d="M0 387L21.5 403.2C43 419.3 86 451.7 128.8 468.8C171.7 486 214.3 488 257.2 487.2C300 486.3 343 482.7 385.8 470.5C428.7 458.3 471.3 437.7 514.2 432.7C557 427.7 600 438.3 642.8 450C685.7 461.7 728.3 474.3 771.2 475.3C814 476.3 857 465.7 878.5 460.3L900 455L900 601L878.5 601C857 601 814 601 771.2 601C728.3 601 685.7 601 642.8 601C600 601 557 601 514.2 601C471.3 601 428.7 601 385.8 601C343 601 300 601 257.2 601C214.3 601 171.7 601 128.8 601C86 601 43 601 21.5 601L0 601Z" fill="#FF9B3D" stroke-linecap="round" stroke-linejoin="miter"></path></svg>